<svg xmlns="http://www.w3.org/2000/svg" width="102" height="33.045" viewBox="0 0 102 33.045">
  <g id="darkSMALL" transform="translate(0 0)">
    <path id="Path_1" data-name="Path 1" d="M37.011,45.254a2.987,2.987,0,0,0,1.19-.24,3.134,3.134,0,0,0,.975-.647,3.026,3.026,0,0,0,.9-2.165,2.857,2.857,0,0,0-.244-1.171,3.077,3.077,0,0,0-.658-.958,3.134,3.134,0,0,0-.974-.647,2.992,2.992,0,0,0-1.191-.24,3.035,3.035,0,0,0-1.209.24,3.251,3.251,0,0,0-.983.648,3.007,3.007,0,0,0-.668.958,2.86,2.86,0,0,0-.244,1.17,2.984,2.984,0,0,0,.911,2.165,3.238,3.238,0,0,0,.983.648,3.037,3.037,0,0,0,1.209.24Z" transform="translate(-10.174 -12.209)" fill="#ff5a1a"/>
    <path id="Path_2" data-name="Path 2" d="M13.35,26.278a13.422,13.422,0,0,0,8.641-3.123V13.113h-5v7.24a8.839,8.839,0,0,1-1.75.639,7.769,7.769,0,0,1-1.894.231,8,8,0,0,1-3.185-.639,8.409,8.409,0,0,1-2.607-1.739,8.228,8.228,0,0,1-1.768-2.573,7.747,7.747,0,0,1-.649-3.159,7.642,7.642,0,0,1,.649-3.132A8.15,8.15,0,0,1,7.559,7.425,8.489,8.489,0,0,1,10.166,5.7a8.216,8.216,0,0,1,6.413.027,8.7,8.7,0,0,1,2.707,1.837l2.706-4.436A13.54,13.54,0,0,0,9.8.47a13.466,13.466,0,0,0-5.89,3.371A12.846,12.846,0,0,0,1.822,6.5,13.346,13.346,0,0,0,.478,9.635,12.56,12.56,0,0,0,0,13.112a12.762,12.762,0,0,0,.478,3.5,13.266,13.266,0,0,0,1.344,3.15,12.846,12.846,0,0,0,2.093,2.661,13.773,13.773,0,0,0,2.706,2.058,13.361,13.361,0,0,0,6.729,1.8Zm15.471-.561L29.94,6.728H23.7l1.1,18.989Zm8.021.011V14.87a3.509,3.509,0,0,1,.288-1.411,3.65,3.65,0,0,1,.794-1.162,3.694,3.694,0,0,1,1.191-.781,3.781,3.781,0,0,1,1.461-.284A3.6,3.6,0,0,1,42,11.516a3.684,3.684,0,0,1,1.967,1.943,3.509,3.509,0,0,1,.288,1.411V25.729h4.925V14.87a8.2,8.2,0,0,0-.676-3.309,8.6,8.6,0,0,0-4.592-4.542,8.461,8.461,0,0,0-3.337-.666,8.75,8.75,0,0,0-5.845,2.218L33.107,6.726h-1.19v19h4.925ZM59.674,33a9.71,9.71,0,0,0,3.834-.763,10.1,10.1,0,0,0,3.139-2.076,9.757,9.757,0,0,0,2.12-3.07,9.2,9.2,0,0,0,.776-3.762V6.76H68.351L66.439,9.014a13.623,13.623,0,0,0-1.47-1.189,11.159,11.159,0,0,0-1.651-.958,9.731,9.731,0,0,0-1.786-.639A7.613,7.613,0,0,0,59.674,6,9.784,9.784,0,0,0,52.7,8.872a9.9,9.9,0,0,0-2.119,3.194,10.18,10.18,0,0,0-.776,3.992,10.846,10.846,0,0,0,.776,4.2,9.166,9.166,0,0,0,2.119,3.15,9.353,9.353,0,0,0,3.139,1.979,10.566,10.566,0,0,0,3.834.692q.613,0,1.326-.071a7.9,7.9,0,0,0,1.371-.257,5.875,5.875,0,0,0,1.2-.479,2.173,2.173,0,0,0,.83-.754,7.264,7.264,0,0,1-.532,1.384,4,4,0,0,1-.894,1.162,4.065,4.065,0,0,1-1.37.8,5.817,5.817,0,0,1-1.967.293L57.2,28.124v4.844L59.674,33Zm0-11.782a5,5,0,0,1-1.9-.364,4.533,4.533,0,0,1-1.551-1.037A4.891,4.891,0,0,1,55.182,18.2a5.735,5.735,0,0,1-.379-2.138,6.04,6.04,0,0,1,.378-2.21,4.672,4.672,0,0,1,1.038-1.623,4.341,4.341,0,0,1,1.552-.993,5.343,5.343,0,0,1,1.9-.337,4.284,4.284,0,0,1,1.9.435,5.248,5.248,0,0,1,1.561,1.153,5.52,5.52,0,0,1,1.055,1.65,4.973,4.973,0,0,1,0,3.85,5.52,5.52,0,0,1-1.056,1.65,5.241,5.241,0,0,1-1.561,1.153,4.291,4.291,0,0,1-1.9.435Zm20.613,4.862a10.027,10.027,0,0,0,2.354-.275A9.747,9.747,0,0,0,84.823,25a9.969,9.969,0,0,0,1.93-1.3,9.61,9.61,0,0,0,1.578-1.721l-3.607-3.566a4.686,4.686,0,0,1-1.8,2.049,5.061,5.061,0,0,1-1.254.559,4.924,4.924,0,0,1-1.389.2q-.289,0-.577-.027a2.853,2.853,0,0,1-.577-.115l9.236-10.948A9.96,9.96,0,0,0,80.286,6a10.117,10.117,0,0,0-3.834.727,9.6,9.6,0,0,0-3.139,2.041,9.474,9.474,0,0,0-2.12,3.176,10.606,10.606,0,0,0-.776,4.117,10.28,10.28,0,0,0,.776,4.036,9.617,9.617,0,0,0,5.259,5.243,9.9,9.9,0,0,0,3.834.746Zm-4.366-7.505a2.453,2.453,0,0,1-.234-.568,7.206,7.206,0,0,1-.244-1.349q-.026-.3-.027-.6a5.723,5.723,0,0,1,.379-2.138A4.884,4.884,0,0,1,76.832,12.3a4.533,4.533,0,0,1,1.552-1.037,5,5,0,0,1,1.9-.364,6.64,6.64,0,0,1,.694.036,2.873,2.873,0,0,1,.676.16l-5.737,7.488Zm18,7.15V15.26A3.65,3.65,0,0,1,95,12.651a3.694,3.694,0,0,1,1.19-.781,3.781,3.781,0,0,1,1.461-.284H102V6.76H97.652a8.761,8.761,0,0,0-3.139.577,8.625,8.625,0,0,0-2.706,1.641L90.184,6.725H88.993v19Z" transform="translate(0 0)" fill="#fff"/>
  </g>
</svg>
