<svg xmlns="http://www.w3.org/2000/svg" width="1101.6" height="72.257" viewBox="0 0 1101.6 72.257">
  <g id="Group_2129" data-name="Group 2129" transform="translate(-121 -610.899)">
    <g id="Group_411" data-name="Group 411" transform="translate(16.414 138)">
      <path id="Path_597" data-name="Path 597" d="M472.679,617.928a4.508,4.508,0,0,1,.911.246,2.328,2.328,0,0,1,1.526,2.169,4.766,4.766,0,0,1-2.315,4.3,5.709,5.709,0,0,1-3.271,1.007c-1.548.012-3.1,0-4.647,0-.414,0-.508-.117-.425-.518q1.406-6.812,2.813-13.625c.1-.466.213-.558.68-.558h3a6.59,6.59,0,0,1,2.695.483,2.549,2.549,0,0,1,1.726,2.109,4,4,0,0,1-1.583,3.732A6.284,6.284,0,0,1,472.679,617.928Zm-4.1,6.007v-.016c.327,0,.655.014.981,0a2.876,2.876,0,0,0,2.886-2.527,1.807,1.807,0,0,0-1.633-2.314,21,21,0,0,0-2.357-.055c-.13,0-.137.072-.155.161-.087.433-.177.865-.268,1.3-.221,1.063-.438,2.125-.666,3.188-.047.213-.006.292.232.276C467.925,623.919,468.254,623.935,468.581,623.935Zm.882-6.632a4.311,4.311,0,0,0,1-.057,3.011,3.011,0,0,0,2.274-2.657,1.53,1.53,0,0,0-1.359-1.841,9.708,9.708,0,0,0-1.345-.095c-.308-.02-.412.073-.471.38-.256,1.352-.54,2.7-.829,4.044-.046.212.018.237.2.225S469.285,617.3,469.463,617.3Z" transform="translate(-321.541 -90.398)" fill="#cbcbcb"/>
      <path id="Path_598" data-name="Path 598" d="M585.045,648.517c.139-.345.268-.638.374-.932a.5.5,0,0,1,.538-.373c.451.01.9,0,1.355,0,.335,0,.432.124.369.444l-1.488,7.352a1.842,1.842,0,0,0-.051.605c.046.34.159.46.5.5.212.028.3.145.266.344-.061.339-.131.677-.213,1.012a.425.425,0,0,1-.439.353,4.428,4.428,0,0,1-1.265-.123,1.373,1.373,0,0,1-1.093-1.275c-.009-.078-.013-.156-.02-.248-.115.028-.155.123-.213.189a5.029,5.029,0,0,1-4.852,1.618,2.776,2.776,0,0,1-2.365-2.3,7.594,7.594,0,0,1,.106-3.237,8.658,8.658,0,0,1,1.488-3.537,4.985,4.985,0,0,1,5.244-1.82A2.721,2.721,0,0,1,585.045,648.517Zm-6.269,5.892a4.231,4.231,0,0,0,.062.715,1.333,1.333,0,0,0,1.21,1.215,3.192,3.192,0,0,0,3.391-1.608,7.9,7.9,0,0,0,.963-4.077,1.809,1.809,0,0,0-1.347-1.876,3.349,3.349,0,0,0-1.523-.058,2.4,2.4,0,0,0-1.782,1.513A11.616,11.616,0,0,0,578.776,654.408Z" transform="translate(-421.537 -122.563)" fill="#cbcbcb"/>
      <path id="Path_599" data-name="Path 599" d="M805.7,611.8q-.441,2.146-.884,4.284c-.293,1.427-.585,2.854-.881,4.291.138-.008.183-.106.247-.17,1.327-1.314,2.657-2.627,3.974-3.951a1.351,1.351,0,0,1,1.063-.437c.486.018.973,0,1.46.01.106,0,.24-.029.287.077s-.083.181-.156.249q-2.444,2.3-4.9,4.593c-.172.16-.172.26-.05.449,1.016,1.574,2.019,3.156,3.03,4.735.048.074.1.15.137.226.087.159.039.271-.141.272-.771,0-1.541.007-2.31-.01-.231,0-.364-.188-.476-.38q-1.146-1.97-2.3-3.931c-.047-.08-.069-.182-.187-.237-.219,1.063-.435,2.111-.652,3.162-.068.329-.133.659-.207.986s-.2.415-.516.417h-1.488c-.442,0-.525-.1-.437-.522.272-1.314.548-2.629.821-3.944q.895-4.3,1.775-8.6a.425.425,0,0,1,.251-.336c.76-.376,1.513-.765,2.27-1.147A.482.482,0,0,1,805.7,611.8Z" transform="translate(-621.699 -91.158)" fill="#cbcbcb"/>
      <path id="Path_600" data-name="Path 600" d="M695.89,649.242a7.869,7.869,0,0,1,1.267-1.336,3.847,3.847,0,0,1,4.43.188,2.979,2.979,0,0,1,.9,2.858c-.239,1.4-.557,2.789-.834,4.184a1.981,1.981,0,0,0-.034.92c.058.218.152.393.425.391.229,0,.319.14.281.352-.061.338-.129.677-.207,1.011a.413.413,0,0,1-.425.338,4.076,4.076,0,0,1-1.263-.129A1.8,1.8,0,0,1,699.045,656a15.814,15.814,0,0,1,.369-2.113,23.4,23.4,0,0,0,.513-2.869,4.682,4.682,0,0,0,0-.582,1.391,1.391,0,0,0-1.8-1.407,2.363,2.363,0,0,0-1.615,1.063,6.171,6.171,0,0,0-.843,2.3q-.549,2.646-1.108,5.292c-.079.372-.205.469-.586.47h-1.541c-.326,0-.425-.134-.363-.455q.744-3.635,1.494-7.27a1.638,1.638,0,0,0,.041-.812.449.449,0,0,0-.425-.371c-.3-.025-.36-.128-.3-.425s.119-.59.181-.883a.453.453,0,0,1,.46-.4,4.049,4.049,0,0,1,1.29.126,1.287,1.287,0,0,1,1.063,1.286A2.616,2.616,0,0,0,695.89,649.242Z" transform="translate(-524.98 -122.879)" fill="#cbcbcb"/>
      <path id="Path_601" data-name="Path 601" d="M108.214,617.016h4c.384,0,.476.113.4.489-.059.294-.123.588-.189.881-.084.37-.213.472-.615.472-1.222,0-2.444,0-3.665-.009-.233,0-.329.045-.379.3-.37,1.872-.763,3.739-1.147,5.609-.106.531-.191.6-.744.6h-1.513c-.366,0-.46-.118-.386-.477q.669-3.245,1.342-6.488.733-3.544,1.462-7.086c.119-.578.2-.648.8-.647l6.907.013c.493,0,.567.09.466.561-.06.276-.116.554-.182.829-.082.343-.2.439-.556.439h-4.782c-.213,0-.3.039-.346.266C108.8,614.175,108.508,615.584,108.214,617.016Z" transform="translate(0.637 -90.139)" fill="#cbcbcb"/>
      <path id="Path_602" data-name="Path 602" d="M312.394,657.9a7.816,7.816,0,0,1-2.471-.425,1.828,1.828,0,0,1-.744-.448.443.443,0,0,1-.027-.663c.121-.152.256-.292.386-.439.319-.364.372-.377.85-.212a7.572,7.572,0,0,0,2.035.46,4.153,4.153,0,0,0,1.826-.232,1.5,1.5,0,0,0,.92-1.089.7.7,0,0,0-.349-.861,5,5,0,0,0-1.141-.491c-.453-.146-.9-.305-1.364-.425a2.316,2.316,0,0,1-1.721-3.1,4.039,4.039,0,0,1,3.487-3.122,6.666,6.666,0,0,1,3.695.417,2.209,2.209,0,0,1,.651.4.35.35,0,0,1,.043.556c-.212.253-.434.491-.645.744a.3.3,0,0,1-.358.076c-.518-.148-1.012-.374-1.544-.471a3.991,3.991,0,0,0-1.814.029,1.558,1.558,0,0,0-1.1,1.063.814.814,0,0,0,.59,1.154c.708.222,1.418.432,2.125.648a4.519,4.519,0,0,1,1.023.425,1.832,1.832,0,0,1,.928,1.574,3.935,3.935,0,0,1-2.712,4A6.772,6.772,0,0,1,312.394,657.9Z" transform="translate(-182.641 -122.411)" fill="#cbcbcb"/>
      <path id="Path_603" data-name="Path 603" d="M412.679,623.887H411.7c-.378,0-.462-.1-.39-.461.052-.26.106-.52.169-.777a.437.437,0,0,1,.457-.365c.292,0,.585-.017.877,0,.2.014.255-.06.286-.241.081-.478.185-.956.276-1.431.017-.087.024-.167.121-.212.875-.44,1.748-.884,2.647-1.34a2.7,2.7,0,0,1-.115.767c-.139.744-.291,1.474-.448,2.209-.041.192-.013.265.207.254.361-.018.726-.009,1.088,0,.293.005.385.111.333.4s-.115.554-.182.828a.451.451,0,0,1-.5.377h-1.142c-.136,0-.205.031-.235.175q-.592,2.965-1.194,5.925a1.327,1.327,0,0,0,.033.682.759.759,0,0,0,.737.5c.7.018.709.024.575.716-.041.212-.088.433-.138.647a.41.41,0,0,1-.411.349,8.494,8.494,0,0,1-1.7-.049,1.834,1.834,0,0,1-1.671-1.985,10.059,10.059,0,0,1,.336-2.171c.319-1.576.647-3.151.97-4.726a.3.3,0,0,0,0-.079Z" transform="translate(-274.045 -97.646)" fill="#cbcbcb"/>
      <path id="Path_604" data-name="Path 604" d="M251.864,649.094a4.945,4.945,0,0,1,.328-.379,3.8,3.8,0,0,1,2.829-.984c.213,0,.3.068.248.307-.115.472-.2.95-.3,1.425-.09.425-.229.5-.654.443a2.2,2.2,0,0,0-2.63,1.806c-.472,2.093-.923,4.192-1.381,6.288-.106.5-.2.577-.718.576h-1.407c-.367,0-.457-.118-.379-.479q.783-3.64,1.568-7.279a2.535,2.535,0,0,0,.083-.656.5.5,0,0,0-.5-.557.282.282,0,0,1-.271-.37c.061-.319.121-.638.193-.956a.441.441,0,0,1,.447-.38,5.24,5.24,0,0,1,1.63.163,1.076,1.076,0,0,1,.842,1.007Z" transform="translate(-127.901 -123.269)" fill="#cbcbcb"/>
      <path id="Path_605" data-name="Path 605" d="M198.824,658.785a12.33,12.33,0,0,1,.4-2.214c.432-2.019.877-4.038,1.318-6.057.081-.371.212-.472.584-.474h1.488c.373,0,.463.106.386.467q-.783,3.627-1.572,7.253a2.922,2.922,0,0,0-.078.9c.032.339.152.468.479.516a.262.262,0,0,1,.253.332c-.062.348-.132.695-.213,1.038a.406.406,0,0,1-.4.319,3.655,3.655,0,0,1-1.562-.237A1.756,1.756,0,0,1,198.824,658.785Z" transform="translate(-84.156 -125.334)" fill="#cbcbcb"/>
      <path id="Path_606" data-name="Path 606" d="M524.76,791.056a1.346,1.346,0,0,1,.212,2.266,2.432,2.432,0,0,1-2.463.355.938.938,0,0,1-.531-.857,1.639,1.639,0,0,1,.819-1.533,4.4,4.4,0,0,1,.417-.213c0-.02,0-.045-.008-.049-.755-.391-.588-1.108-.192-1.67a1.408,1.408,0,0,1,.809-.522,2.541,2.541,0,0,1,1.105-.042.869.869,0,0,1,.785.583,1.243,1.243,0,0,1-.228,1.191A2.065,2.065,0,0,1,524.76,791.056Zm-1.877,1.5a.613.613,0,0,0,.517.638,1.067,1.067,0,0,0,1.206-1.275.618.618,0,0,0-.606-.5A1.116,1.116,0,0,0,522.883,792.554Zm1.469-3.154a.772.772,0,0,0-.778.768.531.531,0,0,0,.509.563.9.9,0,0,0,.806-.841A.485.485,0,0,0,524.353,789.4Z" transform="translate(-372.97 -249.305)" fill="#cbcbcb"/>
      <path id="Path_607" data-name="Path 607" d="M564.814,789.756a1.082,1.082,0,0,0-.892-.966,1.98,1.98,0,0,0-.995.078,2.065,2.065,0,0,0-1.335,1.957c-.09.948.46,1.437,1.41,1.326a1.521,1.521,0,0,0,.862-.478,1.965,1.965,0,0,1-.286.872,1.138,1.138,0,0,1-1.269.652,3.026,3.026,0,0,1-.569-.121c-.319-.12-.326.162-.416.307-.113.182.084.221.188.272a1.89,1.89,0,0,0,2.444-.548A4.409,4.409,0,0,0,564.814,789.756Zm-.761.471a2.334,2.334,0,0,1-.284.85.779.779,0,0,1-.738.425c-.425-.011-.611-.2-.6-.687a2.248,2.248,0,0,1,.221-.831.961.961,0,0,1,.378-.431.716.716,0,0,1,.777-.057A.669.669,0,0,1,564.054,790.227Z" transform="translate(-408.11 -249.313)" fill="#cbcbcb"/>
      <path id="Path_608" data-name="Path 608" d="M599.057,793.309h-1.881c-.26,0-.31-.082-.191-.319a1.134,1.134,0,0,1,.172-.232c.86-.986,1.733-1.96,2.576-2.96a.868.868,0,0,1,.838-.247c.173.008.106.152.086.245q-.226,1.1-.455,2.2a4.419,4.419,0,0,1-.106.492c-.061.187.022.2.175.206.12.006.334-.106.328.159-.007.361-.086.476-.356.448s-.365.079-.381.319a2.194,2.194,0,0,1-.052.259c-.133.65-.133.645-.8.609-.165-.01-.194-.075-.165-.213C598.918,793.968,598.983,793.656,599.057,793.309Zm.5-2.427-1.514,1.806h1.012a.143.143,0,0,0,.162-.134c.106-.531.215-1.065.34-1.673Z" transform="translate(-439.956 -250.012)" fill="#cbcbcb"/>
      <path id="Path_609" data-name="Path 609" d="M320,793.7a3.129,3.129,0,0,1-1.183-.234c-.093-.04-.277-.065-.193-.213s.1-.435.4-.363a4.659,4.659,0,0,0,1.258.155,1.4,1.4,0,0,0,.638-.171.588.588,0,0,0,.023-1.091,6.376,6.376,0,0,0-.744-.336,1.284,1.284,0,0,1-.411-2.267,2.314,2.314,0,0,1,2.329-.473c.076.02.151.048.226.073.4.139.412.169.191.519a.212.212,0,0,1-.283.106,3.359,3.359,0,0,0-1.284-.14.928.928,0,0,0-.728.431.531.531,0,0,0,.229.836c.245.12.5.213.755.319a1.335,1.335,0,0,1,.306,2.391A2.466,2.466,0,0,1,320,793.7Z" transform="translate(-191.205 -249.167)" fill="#cbcbcb"/>
      <path id="Path_610" data-name="Path 610" d="M380.1,802.144a1.61,1.61,0,0,1,.8-.6,1.084,1.084,0,0,1,1.391,1.356c-.089.441-.184.881-.269,1.323-.03.157-.048.3.164.386.166.068.022.233.017.354a.191.191,0,0,1-.192.206.706.706,0,0,1-.842-.885c.076-.434.17-.866.255-1.3a1.26,1.26,0,0,0,.029-.213c.007-.252,0-.507-.267-.638a.732.732,0,0,0-.8.212,1.755,1.755,0,0,0-.364.839c-.123.588-.251,1.174-.367,1.764a.233.233,0,0,1-.266.222c-.622.015-.621.02-.5-.589q.207-1.013.411-2.024c.033-.165.08-.339-.164-.4-.106-.028-.083-.129-.055-.2.049-.122-.012-.3.175-.353a.645.645,0,0,1,.834.532Z" transform="translate(-245.036 -260.709)" fill="#cbcbcb"/>
      <path id="Path_611" data-name="Path 611" d="M450.977,803.762c-.229,0-.461.012-.69,0-.17-.011-.212.062-.212.212-.022.559.279.855.833.787a3.45,3.45,0,0,0,.669-.153c.169-.056.232,0,.3.143a.218.218,0,0,1-.106.326,2.514,2.514,0,0,1-1.415.257,1.123,1.123,0,0,1-1.119-1.387,3.562,3.562,0,0,1,.349-1.3,1.791,1.791,0,0,1,2.042-1.01.965.965,0,0,1,.833.956,1.982,1.982,0,0,1-.032.475.732.732,0,0,1-.841.7h-.61Zm-.762-.581h1.134a.231.231,0,0,0,.223-.106.764.764,0,0,0-.106-.77.535.535,0,0,0-.662-.034A1.422,1.422,0,0,0,450.215,803.181Z" transform="translate(-307.952 -260.79)" fill="#cbcbcb"/>
      <path id="Path_612" data-name="Path 612" d="M221.311,611.976c.283,0,.565-.006.85,0,.257.007.358.125.309.372q-.166.831-.351,1.656a.453.453,0,0,1-.51.4h-1.594c-.332-.005-.425-.132-.354-.455.106-.517.221-1.035.337-1.55a.459.459,0,0,1,.515-.425h.795Z" transform="translate(-102.761 -91.313)" fill="#cbcbcb"/>
      <path id="Path_613" data-name="Path 613" d="M499.885,790.126c-.287.119-.544.226-.8.329-.064.026-.156.07-.2.045-.076-.049-.016-.146-.012-.222a.568.568,0,0,1,.425-.538c.487-.187.956-.409,1.438-.614.07-.031.148-.106.212-.062s.01.148,0,.22c-.3,1.5-.615,3-.917,4.494a.286.286,0,0,1-.339.27c-.6-.008-.6,0-.476-.59.221-1.046.436-2.093.652-3.14C499.878,790.268,499.877,790.214,499.885,790.126Z" transform="translate(-352.301 -249.574)" fill="#cbcbcb"/>
      <path id="Path_614" data-name="Path 614" d="M417.9,803.884a3.374,3.374,0,0,1,.342-1.407,1.916,1.916,0,0,1,2.527-.885c.115.058.328.088.253.3a.357.357,0,0,1-.5.239,1.1,1.1,0,0,0-1.606.777,2.83,2.83,0,0,0-.157,1.041.625.625,0,0,0,.744.638,2.662,2.662,0,0,0,.614-.157c.106-.035.2-.069.256.079.045.122.131.229-.015.353a2.032,2.032,0,0,1-2.062.043A1.151,1.151,0,0,1,417.9,803.884Z" transform="translate(-279.958 -260.617)" fill="#cbcbcb"/>
      <path id="Path_615" data-name="Path 615" d="M358.61,805.069c.1-.488.212-1.062.333-1.646.062-.3.134-.6.187-.907a.232.232,0,0,1,.265-.223c.628-.019.625-.024.5.581-.139.675-.277,1.349-.41,2.024-.032.164-.063.319.166.407.162.062.024.212.019.33s-.037.2-.172.23A.735.735,0,0,1,358.61,805.069Z" transform="translate(-226.964 -261.404)" fill="#cbcbcb"/>
      <path id="Path_616" data-name="Path 616" d="M366.409,788.067h.267c.079,0,.15.034.134.123-.036.2-.081.4-.13.591-.019.074-.087.1-.161.114-.627.113-.7.024-.572-.591C366.012,787.97,366.252,788.1,366.409,788.067Z" transform="translate(-233.475 -248.694)" fill="#fff"/>
      <g id="Group_409" data-name="Group 409" transform="translate(131.159 472.899)">
        <path id="Path_596" data-name="Path 596" d="M363.011,162.49h30.921c-.234,1.124-.463,2.249-.7,3.373q-1.373,6.447-2.754,12.889-.558,2.619-1.12,5.236c-.048.213-.027.288.212.291.85.013,1.7,0,2.55-.033a5.021,5.021,0,0,1,1.242.081c.744.157.951.694.506,1.318a2.538,2.538,0,0,1-.944.757,7.958,7.958,0,0,1-2.669.737,9.187,9.187,0,0,1-1.375.106c-.179,0-.224.083-.254.226q-.425,2.019-.858,4.046l-2.623,12.371c-.053.251-.106.5-.156.753-.026.142-.077.228-.239.2a.69.69,0,0,0-.133,0H354.361c-.365,0-.364,0-.286-.374q2.272-10.7,4.541-21.4.507-2.387,1.017-4.771a.385.385,0,0,0-.017-.28,7.838,7.838,0,0,1-.69-2.843,19.3,19.3,0,0,1,1.017-7.231,1.567,1.567,0,0,1,1.743-1.007c.3.033.381-.048.437-.328.269-1.343.563-2.681.85-4.021A.584.584,0,0,1,363.011,162.49Zm10.52,22a1.112,1.112,0,0,1,.238,0c.971.221,1.469-.353,1.862-1.1.045-.086.09-.173.129-.261.273-.622.272-.623-.231-1.063a.835.835,0,0,0-.106-.085c-.22-.134-.219-.277-.084-.5a4.022,4.022,0,0,1,4.077-1.863,1.474,1.474,0,0,1,.734.319c.691.554,1.4,1.075,2.134,1.579a19.581,19.581,0,0,0,2.1,1.3c.269.14.284.134.259-.155q-.07-.819-.163-1.637a6.322,6.322,0,0,0-1.292-3.341c-.562-.706-1.1-1.433-1.67-2.13a.538.538,0,0,1-.137-.453,1.641,1.641,0,0,0-.5-1.806,35.666,35.666,0,0,0-4.7-4.712.781.781,0,0,0-.336-.147,17.065,17.065,0,0,0-3.538-.486,2.794,2.794,0,0,0-1.9.47,1.876,1.876,0,0,1-1.54.308c-1.883-.313-3.775-.571-5.666-.838a8.781,8.781,0,0,0-1.658-.185.815.815,0,0,0-.874.589,18.549,18.549,0,0,0-1,6.042,9.173,9.173,0,0,0,1.815,5.313,10.662,10.662,0,0,0,4.974,3.569,22.546,22.546,0,0,0,7.067,1.27Zm-.213,13.041c-.111.073-.185.122-.259.169-.921.578-1.841,1.158-2.768,1.728-.187.115-.2.174-.021.319,1.488,1.227,2.969,2.464,4.453,3.7.037.032.071.086.15.049.016-.274.048-.556.044-.837a2.244,2.244,0,0,1,.2-.922c.413-.986.809-1.98,1.215-2.969a.869.869,0,0,0,.069-.385c-.036-.876-.07-1.751-.1-2.627a.858.858,0,0,0-.139-.445c-.939-1.52-1.872-3.042-2.815-4.561a.471.471,0,0,1-.06-.419c.157-.543.3-1.09.456-1.634a1.748,1.748,0,0,0,.053-.655c-.055-.6-.106-1.2-.148-1.8-.012-.2-.068-.266-.279-.267a21.192,21.192,0,0,1-4.191-.415,13.064,13.064,0,0,1-8.554-5.609c-.042-.061-.062-.148-.172-.172-.012.05-.024.1-.035.148q-1.375,6.522-2.749,13.046c-.115.543-.115.549.431.607a2.2,2.2,0,0,0,1.063.014c1.812-.651,3.635-1.27,5.452-1.913a.531.531,0,0,1,.557.07q3.618,2.582,7.251,5.145Zm-8.494-4.842v3.867a1.588,1.588,0,0,1-.126.638c-.7,1.669-1.394,3.343-2.1,5.012a.5.5,0,0,0,.019.5c.149.261.281.531.4.807a.319.319,0,0,0,.337.219c1.692-.01,3.382,0,5.073-.007.073,0,.157.034.236-.052-.155-.319-.3-.649-.473-.968a.707.707,0,0,1-.072-.5c.414-2.025.818-4.054,1.239-6.078a.337.337,0,0,0-.159-.412q-2.08-1.448-4.154-2.907a.362.362,0,0,0-.233-.113Zm23.393-6.114c.194,0,.389.006.583,0a11.792,11.792,0,0,0,3.413-.573,2.413,2.413,0,0,0,.918-.513c.126-.12.239-.261.166-.443-.065-.162-.24-.173-.387-.174-.354,0-.71-.01-1.063.022a13.251,13.251,0,0,1-4.453-.33,19.972,19.972,0,0,1-7.029-3.432,1.923,1.923,0,0,0-.956-.394,2.589,2.589,0,0,0-2.5.949c-.119.152-.122.249.034.387a18.3,18.3,0,0,0,2.645,1.95,16.317,16.317,0,0,0,8.625,2.548Zm-7.92-1.15c.028.185.053.319.067.462a7.034,7.034,0,0,1,.148,1.367c-.14,1.427-.444,2.83-.631,4.25a18.227,18.227,0,0,0-.233,3.331,2.758,2.758,0,0,0,1.107,2.254,2.149,2.149,0,0,0,2.35.23.332.332,0,0,0,.2-.336,5.178,5.178,0,0,0-.088-.9c-.037-.187-.1-.236-.3-.2a.918.918,0,0,1-1.119-1.15,10.336,10.336,0,0,1,.638-1.878c.6-1.472,1.323-2.893,1.951-4.357a4.477,4.477,0,0,0,.292-1.287c.017-.145,0-.219-.181-.242a7.6,7.6,0,0,1-.882-.183A13.475,13.475,0,0,1,380.3,185.421Z" transform="translate(-354.033 -162.49)" fill="#535353"/>
        <path id="Path_617" data-name="Path 617" d="M420.87,228.217a22.487,22.487,0,0,1-7.069-1.275,10.641,10.641,0,0,1-4.974-3.569,9.174,9.174,0,0,1-1.815-5.313,18.667,18.667,0,0,1,1-6.042.815.815,0,0,1,.875-.589,8.7,8.7,0,0,1,1.658.185c1.89.268,3.783.525,5.666.838a1.878,1.878,0,0,0,1.54-.308,2.794,2.794,0,0,1,1.9-.47,17.065,17.065,0,0,1,3.539.494.779.779,0,0,1,.336.147,35.848,35.848,0,0,1,4.7,4.712c.627.793.625.8.5,1.806a.538.538,0,0,0,.137.453c.574.7,1.108,1.425,1.67,2.13a6.322,6.322,0,0,1,1.292,3.341q.092.817.163,1.637c.024.289.01.3-.259.155a19.574,19.574,0,0,1-2.1-1.3c-.729-.5-1.443-1.025-2.134-1.579a1.474,1.474,0,0,0-.734-.319,4.022,4.022,0,0,0-4.077,1.863c-.135.219-.136.362.084.5a.843.843,0,0,1,.106.085c.5.436.5.437.231,1.063-.038.088-.084.175-.129.261-.393.744-.891,1.323-1.862,1.1A1.107,1.107,0,0,0,420.87,228.217Zm2.576-9.267-1.435-1.611c-.12-.135-.186,0-.256.057q-1.09.95-2.176,1.906c-.062.054-.153.09-.166.207Z" transform="translate(-401.377 -206.225)" fill="#3b3b3b"/>
        <path id="Path_618" data-name="Path 618" d="M403.326,342.836l-.894-.638q-3.628-2.569-7.251-5.142a.531.531,0,0,0-.557-.07c-1.817.638-3.64,1.257-5.452,1.913a2.2,2.2,0,0,1-1.062-.014c-.546-.057-.546-.064-.431-.607q1.371-6.528,2.742-13.051c.011-.049.023-.1.035-.148.106.024.131.112.172.172a13.049,13.049,0,0,0,8.554,5.609,21.2,21.2,0,0,0,4.191.415c.212,0,.268.067.279.267.037.6.092,1.2.148,1.8a1.748,1.748,0,0,1-.053.655c-.156.544-.3,1.091-.456,1.634a.472.472,0,0,0,.06.419c.943,1.518,1.875,3.041,2.815,4.561a.86.86,0,0,1,.139.445c.027.875.061,1.751.1,2.627a.87.87,0,0,1-.069.385c-.406.989-.8,1.983-1.215,2.969a2.245,2.245,0,0,0-.2.922c0,.282-.028.563-.044.837-.079.037-.113-.017-.15-.049-1.487-1.233-2.965-2.469-4.453-3.7-.174-.143-.166-.2.021-.319.927-.569,1.847-1.15,2.768-1.728C403.141,342.958,403.215,342.909,403.326,342.836Z" transform="translate(-384.049 -307.804)" fill="#3b3b3b"/>
        <path id="Path_619" data-name="Path 619" d="M436.358,446.61a.362.362,0,0,1,.227.113l4.154,2.9a.335.335,0,0,1,.159.412c-.425,2.019-.825,4.053-1.239,6.078a.707.707,0,0,0,.072.5c.168.319.319.647.473.968-.079.086-.163.052-.236.052q-2.536,0-5.073.007a.319.319,0,0,1-.337-.219c-.122-.274-.254-.545-.4-.807a.5.5,0,0,1-.019-.5c.7-1.669,1.4-3.343,2.1-5.012a1.585,1.585,0,0,0,.127-.638C436.354,449.193,436.358,447.911,436.358,446.61Z" transform="translate(-425.575 -416.42)" fill="#3b3b3b"/>
        <path id="Path_620" data-name="Path 620" d="M579.8,339.785a16.357,16.357,0,0,1-8.631-2.55,18.3,18.3,0,0,1-2.645-1.95c-.156-.138-.153-.235-.034-.387a2.592,2.592,0,0,1,2.5-.949,1.925,1.925,0,0,1,.956.394,19.97,19.97,0,0,0,7.029,3.432,13.253,13.253,0,0,0,4.448.325c.352-.032.708-.026,1.062-.022.147,0,.319.013.387.174.073.182-.04.319-.166.443a2.415,2.415,0,0,1-.918.513,11.791,11.791,0,0,1-3.413.573C580.191,339.791,580,339.785,579.8,339.785Z" transform="translate(-545.627 -315.709)" fill="#3b3b3b"/>
        <path id="Path_621" data-name="Path 621" d="M595.653,378.29a13.467,13.467,0,0,0,3.325,1.368,7.588,7.588,0,0,0,.882.183c.175.023.2.1.18.242a4.478,4.478,0,0,1-.292,1.287c-.628,1.461-1.346,2.883-1.951,4.357a9.877,9.877,0,0,0-.638,1.878.919.919,0,0,0,1.119,1.15c.2-.036.263.013.3.2a5.17,5.17,0,0,1,.088.9.332.332,0,0,1-.2.336,2.149,2.149,0,0,1-2.35-.23,2.748,2.748,0,0,1-1.107-2.254,18.249,18.249,0,0,1,.233-3.331c.187-1.42.491-2.822.631-4.25a7.205,7.205,0,0,0-.148-1.366C595.705,378.613,595.68,378.472,595.653,378.29Z" transform="translate(-569.389 -355.359)" fill="#3b3b3b"/>
        <path id="Path_622" data-name="Path 622" d="M527.758,268.2l-4.038.56c.013-.117.106-.153.166-.207q1.085-.956,2.176-1.906c.07-.061.136-.192.256-.057Z" transform="translate(-505.689 -255.473)" fill="#535353"/>
      </g>
    </g>
    <g id="Group_412" data-name="Group 412" transform="translate(-102.586 147.078)">
      <path id="Path_629" data-name="Path 629" d="M308.367,118.307a20.869,20.869,0,1,1-20.83-20.888A20.844,20.844,0,0,1,308.367,118.307Zm-20.044-8.242a6.1,6.1,0,1,0,6.125-6.135A6.108,6.108,0,0,0,288.323,110.065Z" transform="translate(110.867 366.503)" fill="#535353"/>
      <path id="Path_630" data-name="Path 630" d="M859.915,679.357c-.069-.023-.089-.008-.111.028a3.222,3.222,0,0,1-2.267,1.527,5.636,5.636,0,0,1-4.633-1.02,4.917,4.917,0,0,1-1.967-3.419,7.144,7.144,0,0,1,.637-4.14,6.107,6.107,0,0,1,4.434-3.447,7.155,7.155,0,0,1,2.5-.125,5.045,5.045,0,0,1,4.273,3.357,5.517,5.517,0,0,1,.411,2.073c-.015,2.093.074,4.184.111,6.277a6.474,6.474,0,0,1-.415,2.421,5.741,5.741,0,0,1-3.7,3.582,7.593,7.593,0,0,1-4.478.116,4.647,4.647,0,0,1-1.514-.707,2.514,2.514,0,0,1-1.162-2.266c.016-.345,0-.692,0-1.038,0-.068.015-.139.085-.162a.179.179,0,0,1,.179.065,3.96,3.96,0,0,0,1.061.716,6.535,6.535,0,0,0,1.694.521,8.191,8.191,0,0,0,1.808.1,4.32,4.32,0,0,0,1.444-.3,2.5,2.5,0,0,0,1.59-1.935,4.542,4.542,0,0,0,.07-1.431C859.941,679.885,859.933,679.613,859.915,679.357Zm-.064-4.471a4.109,4.109,0,0,0-.312-1.808,2.265,2.265,0,0,0-2.337-1.393,2.782,2.782,0,0,0-2.393,1.51,3.838,3.838,0,0,0-.252,3.286,2.547,2.547,0,0,0,3.091,1.647,2.611,2.611,0,0,0,1.961-1.768,4.022,4.022,0,0,0,.242-1.472Z" transform="translate(-421.122 -153.696)" fill="#cbcbcb"/>
      <path id="Path_631" data-name="Path 631" d="M21.519,633.045c-.123-.011-.179-.1-.248-.168a5.561,5.561,0,0,0-3.2-1.4,8.757,8.757,0,0,0-2.169,0,4.207,4.207,0,0,0-1.421.394,1.818,1.818,0,0,0-1.064,1.8,1.317,1.317,0,0,0,.473.994,2.928,2.928,0,0,0,.757.461,11.118,11.118,0,0,0,1.926.614c.56.134,1.125.25,1.68.4a6.428,6.428,0,0,1,2.092.984A3.781,3.781,0,0,1,22,639.781a5.177,5.177,0,0,1-3.41,5.851,8.922,8.922,0,0,1-3.8.453,7.927,7.927,0,0,1-1.891-.34,4.771,4.771,0,0,1-1.2-.567,2.844,2.844,0,0,1-1.317-2.414c-.01-.461,0-.923,0-1.384,0-.1.084-.147.164-.089.106.079.2.166.309.247a7.043,7.043,0,0,0,5.332,1.468,4.473,4.473,0,0,0,1.246-.3,1.8,1.8,0,0,0,1-.909,2.474,2.474,0,0,0,.114-1.644,1.216,1.216,0,0,0-.5-.66,3.339,3.339,0,0,0-.83-.434,16.038,16.038,0,0,0-2.325-.649,12.349,12.349,0,0,1-1.759-.488,5.944,5.944,0,0,1-1.755-.991,3.7,3.7,0,0,1-1.356-3.29,5.384,5.384,0,0,1,3.538-4.714,6.342,6.342,0,0,1,2.3-.511,10.3,10.3,0,0,1,2.849.208,5.142,5.142,0,0,1,1.466.575,2.884,2.884,0,0,1,1.121,1.154,1.989,1.989,0,0,1,.251.847c.015.576.02,1.153.024,1.729A.265.265,0,0,1,21.519,633.045Z" transform="translate(344.541 -116.998)" fill="#cbcbcb"/>
      <path id="Path_632" data-name="Path 632" d="M273.266,677.18h-1.829c-.186,0-.235.064-.2.244a2.827,2.827,0,0,0,.6,1.23,3.616,3.616,0,0,0,2.057,1.189,6.609,6.609,0,0,0,2.017.068,6.719,6.719,0,0,0,1.5-.3,4.68,4.68,0,0,0,1.6-.863c.1-.089.2-.041.2.085a8.7,8.7,0,0,1-.05,1.431,2.435,2.435,0,0,1-1.047,1.665,4.087,4.087,0,0,1-1.592.645,9.387,9.387,0,0,1-3.046.145,6.617,6.617,0,0,1-5.515-4.81,7.542,7.542,0,0,1-.229-2.593,9.2,9.2,0,0,1,.439-2.272,6.289,6.289,0,0,1,2.593-3.385,6.484,6.484,0,0,1,2.783-.936,5.791,5.791,0,0,1,3.04.434,4.94,4.94,0,0,1,3,3.621,4.56,4.56,0,0,1,.06,1.815,2.451,2.451,0,0,1-1.1,1.687,4.528,4.528,0,0,1-1.46.584,12.239,12.239,0,0,1-2.4.293c-.478.014-.955,0-1.431,0Zm-.4-2.377a15.987,15.987,0,0,0,2.109-.1,3.832,3.832,0,0,0,1-.255.922.922,0,0,0,.591-.889,1.794,1.794,0,0,0-1.073-1.789,3.316,3.316,0,0,0-2.219-.179,2.7,2.7,0,0,0-1.833,1.658,3.91,3.91,0,0,0-.262,1.252c-.023.258,0,.3.251.3C271.888,674.807,272.349,674.8,272.865,674.8Z" transform="translate(109.881 -153.674)" fill="#cbcbcb"/>
      <path id="Path_633" data-name="Path 633" d="M706.743,677.932v4.053c-.008.373-.014.381-.394.385a5.073,5.073,0,0,1-1.18-.078,2.146,2.146,0,0,1-1.705-1.539,2.732,2.732,0,0,1-.066-.786v-4.994a6.339,6.339,0,0,0-.166-1.52,2.969,2.969,0,0,0-.309-.778,2.072,2.072,0,0,0-1.108-.94,2.973,2.973,0,0,0-1.8-.1,2.107,2.107,0,0,0-1.258.894,3.006,3.006,0,0,0-.478,1.285,7.966,7.966,0,0,0-.075,1.084q.006,3.463,0,6.923c0,.6.039.554-.567.554a4.788,4.788,0,0,1-.984-.064,2.085,2.085,0,0,1-1.768-1.919,5.252,5.252,0,0,1-.025-.543v-5.291a6.648,6.648,0,0,1,.291-2.1,5.239,5.239,0,0,1,3.507-3.543,6.777,6.777,0,0,1,4.04-.1A5.268,5.268,0,0,1,706.583,673a7.759,7.759,0,0,1,.159,1.674C706.748,675.756,706.743,676.844,706.743,677.932Z" transform="translate(-279.069 -153.554)" fill="#cbcbcb"/>
      <path id="Path_634" data-name="Path 634" d="M169.864,645.535v-4.105a5.155,5.155,0,0,1,.043-.789,3.709,3.709,0,0,1,1.7-2.5,2.092,2.092,0,0,1,1.431-.254.159.159,0,0,1,.149.167c.006.115.006.231.006.346v2.324a.168.168,0,0,0,.179.19c.132,0,.264.005.4.005h3.759c.321.007.328.012.334.339v.841a1.69,1.69,0,0,1-1.527,1.762,5.517,5.517,0,0,1-.74.046c-.61.006-1.22,0-1.83,0h-.346c-.16.009-.212.056-.222.2-.007.1-.005.2-.005.3v4.7a4.1,4.1,0,0,0,.119,1.127,1.667,1.667,0,0,0,1.589,1.331,5.186,5.186,0,0,0,2.71-.377c.183-.089.246-.047.249.145,0,.358.013.726,0,1.087a2,2,0,0,1-1.263,1.85,3.019,3.019,0,0,1-.951.256,6.992,6.992,0,0,1-2.742-.22,3.966,3.966,0,0,1-2.836-2.959,6.429,6.429,0,0,1-.207-1.663v-4.154Z" transform="translate(198.985 -125.617)" fill="#cbcbcb"/>
      <path id="Path_635" data-name="Path 635" d="M526.109,629.247v-6.92c0-.474-.015-.455.461-.453.248,0,.494,0,.741.005a2.481,2.481,0,0,1,.82.163,1.9,1.9,0,0,1,1.252,1.417,3.651,3.651,0,0,1,.084.883v10.774c0,.231,0,.462.015.691a1.351,1.351,0,0,0,1.083,1.306,3.345,3.345,0,0,0,.879.114c.33,0,.659,0,.989.005.11,0,.2.043.2.166a4.414,4.414,0,0,1-.089,1.325,1.521,1.521,0,0,1-.99,1.085,2.767,2.767,0,0,1-.715.162,5.705,5.705,0,0,1-2.2-.228A3.4,3.4,0,0,1,526.227,637a6.144,6.144,0,0,1-.109-1.278Q526.11,632.485,526.109,629.247Z" transform="translate(-125.409 -111.053)" fill="#cbcbcb"/>
      <path id="Path_636" data-name="Path 636" d="M426.992,679.991v3.859c0,.447-.005.447-.43.447a5.6,5.6,0,0,1-1.28-.089,1.936,1.936,0,0,1-1.568-1.341,2.609,2.609,0,0,1-.114-.78c0-2.077-.01-4.155.006-6.232a6.061,6.061,0,0,1,.537-2.545,4.314,4.314,0,0,1,3.4-2.56,5.277,5.277,0,0,1,1.967.008,2.686,2.686,0,0,1,.872.334,2,2,0,0,1,1,1.715c.013.329.006.659,0,.989,0,.24-.064.277-.309.2-.11-.034-.217-.078-.327-.113a4.506,4.506,0,0,0-1.954-.172,1.824,1.824,0,0,0-1.551,1.212,2.929,2.929,0,0,0-.216.96c-.016.378-.03.757-.03,1.137C426.989,678.01,426.992,679,426.992,679.991Z" transform="translate(-32.064 -155.476)" fill="#cbcbcb"/>
      <path id="Path_637" data-name="Path 637" d="M613.567,680.275v-4.551c0-.439,0-.44.427-.447a5.825,5.825,0,0,1,1.182.071,1.972,1.972,0,0,1,1.645,1.573,4.1,4.1,0,0,1,.1.984q-.006,2.968,0,5.936c0,.214-.005.429.015.642a1.309,1.309,0,0,0,1.138,1.3,5.5,5.5,0,0,0,1.082.07c.441,0,.439,0,.436.435a4.992,4.992,0,0,1-.08,1.082,1.415,1.415,0,0,1-1.137,1.162,3.167,3.167,0,0,1-.635.082,5.412,5.412,0,0,1-1.566-.179,3.27,3.27,0,0,1-2.4-2.391,5.482,5.482,0,0,1-.209-1.563v-4.2Z" transform="translate(-205.045 -159.676)" fill="#cbcbcb"/>
      <path id="Path_638" data-name="Path 638" d="M610.257,619.555a1.95,1.95,0,0,1,1.944-1.945,1.964,1.964,0,1,1,.019,3.927,1.949,1.949,0,0,1-1.963-1.982Z" transform="translate(-202.032 -107.17)" fill="#cbcbcb"/>
      <path id="Path_639" data-name="Path 639" d="M589.219,870.428a3.277,3.277,0,0,1,.268-.232,1,1,0,0,1,1.61.607,2.351,2.351,0,0,1,.047.342c.005.478,0,.956,0,1.431,0,.1,0,.21-.13.231a.291.291,0,0,1-.3-.139.5.5,0,0,1-.056-.287v-1.088a1.313,1.313,0,0,0-.095-.531.508.508,0,0,0-.561-.312.5.5,0,0,0-.514.379,2.577,2.577,0,0,0-.056.537c-.008.4,0,.791,0,1.188,0,.1.011.208-.106.251a.294.294,0,0,1-.35-.2,1.684,1.684,0,0,1-.032-.342c0-.3,0-.594,0-.894a2.355,2.355,0,0,0-.055-.489.549.549,0,0,0-.58-.435.526.526,0,0,0-.536.424,1.711,1.711,0,0,0-.056.537c0,.412,0,.824-.007,1.237a.164.164,0,0,1-.241.147.367.367,0,0,1-.237-.392c0-.429-.01-.858.006-1.286a1.407,1.407,0,0,1,.112-.478,1.091,1.091,0,0,1,1.4-.586A1.711,1.711,0,0,1,589.219,870.428Z" transform="translate(-181.061 -336.964)" fill="#cbcbcb"/>
      <path id="Path_640" data-name="Path 640" d="M707.281,863.625c.024.089.106.114.168.16a.922.922,0,0,1-.046,1.455.983.983,0,0,1-.3.162,2.48,2.48,0,0,1-1.315.024.61.61,0,0,1-.473-.571,2.043,2.043,0,0,1-.009-.247v-2.176c0-.39,0-.393.4-.47a3.52,3.52,0,0,1,1.181-.022.888.888,0,0,1,.817,1,.715.715,0,0,1-.216.484C707.423,863.486,707.315,863.518,707.281,863.625Zm-1.5.715v.246a.912.912,0,0,0,0,.1c.021.2.1.318.284.352a1.609,1.609,0,0,0,.873-.046.542.542,0,0,0,.348-.633.458.458,0,0,0-.415-.471,3.39,3.39,0,0,0-.586-.054c-.527-.006-.506-.024-.5.51Zm.553-.894a4.854,4.854,0,0,0,.536-.056.453.453,0,0,0,.358-.468.47.47,0,0,0-.3-.508,1.52,1.52,0,0,0-.626-.08c-.488.015-.52.046-.519.537-.005.6-.047.558.553.573Z" transform="translate(-288.579 -329.615)" fill="#cbcbcb"/>
      <path id="Path_641" data-name="Path 641" d="M317.333,863.783a2.723,2.723,0,0,1-.127.678,1.547,1.547,0,0,1-2.955-.061,2.293,2.293,0,0,1,.034-1.454,1.481,1.481,0,0,1,1.6-1.042,1.463,1.463,0,0,1,1.369,1.149A2.332,2.332,0,0,1,317.333,863.783Zm-2.7-.123a1.838,1.838,0,0,0,.089.631,1.028,1.028,0,0,0,1.057.787,1.011,1.011,0,0,0,1.006-.783,2.139,2.139,0,0,0,0-1.163,1.01,1.01,0,0,0-1.041-.8,1,1,0,0,0-1.028.751A1.58,1.58,0,0,0,314.629,863.659Z" transform="translate(67.596 -329.616)" fill="#cbcbcb"/>
      <path id="Path_642" data-name="Path 642" d="M391.7,872.366a.418.418,0,0,1-.246.549,1.329,1.329,0,0,1-1.845-.706,1.649,1.649,0,0,1,.156-1.473,1.177,1.177,0,0,1,1.6-.418.934.934,0,0,1,.475.957.5.5,0,0,1-.3.42,1.378,1.378,0,0,1-.578.118c-.263,0-.527,0-.79.011a.131.131,0,0,0-.116.173.806.806,0,0,0,.76.6A1.664,1.664,0,0,0,391.7,872.366Zm-1.024-.943c.079-.005.277-.008.47-.037a.259.259,0,0,0,.217-.327.459.459,0,0,0-.316-.4.742.742,0,0,0-1.009.507c-.046.172,0,.254.174.261C390.33,871.428,390.443,871.424,390.678,871.424Z" transform="translate(-1.02 -337.139)" fill="#cbcbcb"/>
      <path id="Path_643" data-name="Path 643" d="M640.2,872.3a.513.513,0,0,1-.382.631,1.32,1.32,0,0,1-1.811-1.012,1.626,1.626,0,0,1,.212-1.189,1.189,1.189,0,0,1,1.456-.52.975.975,0,0,1,.639.759.6.6,0,0,1-.463.752,2.489,2.489,0,0,1-.389.058c-.2.011-.4,0-.593.01-.11,0-.255-.047-.317.066-.08.148.018.284.113.4a.9.9,0,0,0,.845.3,1.724,1.724,0,0,0,.69-.258Zm-1.7-.933a4.12,4.12,0,0,0,1.073-.005c.256-.032.345-.236.229-.472a.527.527,0,0,0-.324-.281.729.729,0,0,0-.974.759Z" transform="translate(-227.268 -337.107)" fill="#cbcbcb"/>
      <path id="Path_644" data-name="Path 644" d="M739.516,870.823a.416.416,0,0,1,.159-.471,1.3,1.3,0,0,1,1.52-.018.769.769,0,0,1,.3.552,13.236,13.236,0,0,1,0,1.332.731.731,0,0,1-.508.668,1.4,1.4,0,0,1-1.059-.007.762.762,0,0,1-.536-.749.785.785,0,0,1,.526-.762,1.882,1.882,0,0,1,.427-.109c.146-.022.3-.02.447-.03.2-.014.263-.1.224-.283a.434.434,0,0,0-.4-.373,1.284,1.284,0,0,0-.815.123C739.7,870.74,739.642,870.83,739.516,870.823Zm1.149.821a.96.96,0,0,0-.611.131.388.388,0,0,0-.057.6.713.713,0,0,0,.734.125c.247-.079.3-.281.3-.506v-.147c-.009-.147-.053-.189-.216-.2C740.763,871.642,740.714,871.644,740.665,871.644Z" transform="translate(-319.615 -337.078)" fill="#cbcbcb"/>
      <path id="Path_645" data-name="Path 645" d="M804.957,862c.179-.02.219-.118.284-.187.2-.215.4-.434.605-.649a.626.626,0,0,1,.7-.179c0,.114-.089.148-.141.2-.241.248-.489.488-.724.74-.3.324-.3.268-.012.64a3.822,3.822,0,0,0,.89.914c.069.045.04.169-.039.2a.451.451,0,0,1-.506-.072,4.179,4.179,0,0,1-.374-.392c-.172-.2-.334-.407-.5-.611a.1.1,0,0,0-.124-.042c-.064.022-.054.079-.055.123-.006.3-.005.592-.014.888a.15.15,0,0,1-.216.122.274.274,0,0,1-.2-.2,1.532,1.532,0,0,1-.031-.293V860.2c.005-.1.012-.206.145-.214a.256.256,0,0,1,.275.165.9.9,0,0,1,.036.291v1.086Z" transform="translate(-378.905 -327.87)" fill="#cbcbcb"/>
      <path id="Path_646" data-name="Path 646" d="M214.88,871.617a1.572,1.572,0,0,1-.1.6,1.124,1.124,0,0,1-1.008.82,1.209,1.209,0,0,1-1.235-.646,1.681,1.681,0,0,1,.058-1.655,1.122,1.122,0,0,1,1.083-.563,1.15,1.15,0,0,1,1.058.7A1.61,1.61,0,0,1,214.88,871.617Zm-.487.024a1.169,1.169,0,0,0-.139-.639.746.746,0,0,0-1.241-.072,1.29,1.29,0,0,0,.055,1.391.745.745,0,0,0,.7.268.661.661,0,0,0,.558-.491A1.346,1.346,0,0,0,214.393,871.641Z" transform="translate(160.297 -337.15)" fill="#cbcbcb"/>
      <path id="Path_647" data-name="Path 647" d="M554.49,871.565a1.72,1.72,0,0,1-.12.662,1.106,1.106,0,0,1-.984.783,1.2,1.2,0,0,1-1.19-.547,1.737,1.737,0,0,1,.075-1.865,1.242,1.242,0,0,1,2.042.19A1.761,1.761,0,0,1,554.49,871.565Zm-.486.062a1.291,1.291,0,0,0-.165-.684.745.745,0,0,0-1.214-.05,1.283,1.283,0,0,0,.039,1.392.722.722,0,0,0,1.265-.2,1.3,1.3,0,0,0,.074-.454Z" transform="translate(-148.948 -337.125)" fill="#cbcbcb"/>
      <path id="Path_648" data-name="Path 648" d="M247.651,871.738v-.691c0-.089.019-.17.114-.194a.273.273,0,0,1,.234.047.291.291,0,0,1,.118.207c.012.115.018.229.019.344,0,.263-.005.527,0,.79a2.056,2.056,0,0,0,.063.487.634.634,0,0,0,.812.447.51.51,0,0,0,.377-.358,1.8,1.8,0,0,0,.068-.536v-1.234c0-.082,0-.172.106-.194a.26.26,0,0,1,.233.048.392.392,0,0,1,.107.159.788.788,0,0,1,.038.242v1.185a1.458,1.458,0,0,1-.021.2,1.121,1.121,0,0,1-1.581.9,1.012,1.012,0,0,1-.626-.715,2.752,2.752,0,0,1-.074-.536c-.013-.2,0-.394,0-.592Z" transform="translate(128.161 -337.759)" fill="#cbcbcb"/>
      <path id="Path_649" data-name="Path 649" d="M437.134,862.584c-.106,0-.165-.095-.247-.14a1.231,1.231,0,0,0-1.827.792,1.628,1.628,0,0,0,.112,1.061,1.207,1.207,0,0,0,1.487.65,1.729,1.729,0,0,0,.394-.2.089.089,0,0,1,.082,0,.12.12,0,0,1,.027.089.578.578,0,0,1-.283.442,1.007,1.007,0,0,1-.365.144,1.6,1.6,0,0,1-1.671-.707,1.937,1.937,0,0,1-.048-2.065,1.609,1.609,0,0,1,1.724-.8.754.754,0,0,1,.631.491A.242.242,0,0,1,437.134,862.584Z" transform="translate(-42.011 -329.552)" fill="#cbcbcb"/>
      <path id="Path_650" data-name="Path 650" d="M773.23,872v.74c0,.1-.006.2-.143.215a.257.257,0,0,1-.285-.148.818.818,0,0,1-.047-.289c-.006-.329,0-.658-.005-.984a2.909,2.909,0,0,0-.042-.491.54.54,0,0,0-.52-.447.6.6,0,0,0-.671.3.99.99,0,0,0-.1.478v1.186a2.012,2.012,0,0,1-.016.3c-.013.073-.078.1-.148.1a.268.268,0,0,1-.268-.179.679.679,0,0,1-.041-.24q-.005-.617,0-1.234a1.213,1.213,0,0,1,1.715-1.065.923.923,0,0,1,.537.774c.037.325.037.656.053.984Z" transform="translate(-348.346 -337.103)" fill="#cbcbcb"/>
      <path id="Path_651" data-name="Path 651" d="M469.7,871.8v-.789c0-.109.1-.164.206-.142a.3.3,0,0,1,.25.268,3.192,3.192,0,0,1,.018.393c.006.345,0,.691.018,1.035a.647.647,0,0,0,.472.626.589.589,0,0,0,.776-.407,1.713,1.713,0,0,0,.046-.439c.006-.41,0-.822.005-1.233,0-.095-.013-.206.116-.238a.282.282,0,0,1,.323.163.382.382,0,0,1,.038.141c0,.494.026.984-.008,1.479a1.034,1.034,0,0,1-1.106,1.024,1.063,1.063,0,0,1-1.141-.994,7.714,7.714,0,0,1-.006-.887Z" transform="translate(-74.044 -337.782)" fill="#cbcbcb"/>
      <path id="Path_652" data-name="Path 652" d="M359.155,871.927c0,.3.005.593,0,.889,0,.1-.089.131-.179.12a.275.275,0,0,1-.275-.237,1.912,1.912,0,0,1-.017-.3v-.89a3.419,3.419,0,0,0-.009-.345.655.655,0,0,0-.984-.529.55.55,0,0,0-.3.427,3.054,3.054,0,0,0-.025.447V872.7c0,.1,0,.206-.124.235a.282.282,0,0,1-.321-.169.639.639,0,0,1-.034-.192c0-.447-.016-.894,0-1.334a1.162,1.162,0,0,1,1.661-1.039.97.97,0,0,1,.6.894c.024.277,0,.559,0,.839Z" transform="translate(28.687 -337.089)" fill="#cbcbcb"/>
      <path id="Path_653" data-name="Path 653" d="M502.252,872.277a2.618,2.618,0,0,0,.6.238.993.993,0,0,0,.581-.039.318.318,0,0,0,.217-.3.292.292,0,0,0-.179-.321c-.167-.065-.342-.114-.513-.168a3.012,3.012,0,0,1-.422-.133.6.6,0,0,1-.315-.787.835.835,0,0,1,.2-.336,1.239,1.239,0,0,1,1.376-.2.853.853,0,0,1,.221.192c.089.1.095.277.03.315-.089.053-.154-.02-.223-.052a1.3,1.3,0,0,0-.723-.1.559.559,0,0,0-.312.138.268.268,0,0,0,.043.447,2.207,2.207,0,0,0,.324.114c.187.061.38.107.562.179a.761.761,0,0,1,.165,1.27,1.356,1.356,0,0,1-1.4.1.581.581,0,0,1-.147-.13.47.47,0,0,1-.083-.179A1.38,1.38,0,0,1,502.252,872.277Z" transform="translate(-103.619 -337.087)" fill="#cbcbcb"/>
      <path id="Path_654" data-name="Path 654" d="M181.554,862.358a1.088,1.088,0,0,1-.157.4,8.272,8.272,0,0,1-.737,1.163.911.911,0,0,0-.2.637c.013.3,0,.592,0,.889,0,.1-.01.206-.142.219a.289.289,0,0,1-.318-.179,1.008,1.008,0,0,1-.028-.243c0-.247-.011-.494,0-.74a.852.852,0,0,0-.172-.548,8.147,8.147,0,0,1-.819-1.46,1.05,1.05,0,0,1-.083-.231.108.108,0,0,1,.11-.13.393.393,0,0,1,.413.208c.089.158.154.327.242.485.152.273.311.542.475.8.069.112.15.106.229-.006a8.3,8.3,0,0,0,.637-1.112,3.381,3.381,0,0,1,.156-.307c.063-.1.167-.089.268-.057A.192.192,0,0,1,181.554,862.358Z" transform="translate(190.755 -329.825)" fill="#cbcbcb"/>
      <path id="Path_655" data-name="Path 655" d="M532.271,864.834c.108.156-.059.4.134.494a1.328,1.328,0,0,0,.486.034h.148c.1,0,.211,0,.215.14a.243.243,0,0,1-.179.268,2.408,2.408,0,0,1-.34.048c-.081.008-.165,0-.247.011s-.159.055-.16.149c0,.447-.016.889.006,1.331a.419.419,0,0,0,.459.417,2.083,2.083,0,0,0,.244-.024c.14-.013.207.072.171.2a.332.332,0,0,1-.229.237.825.825,0,0,1-1.123-.64,1.318,1.318,0,0,1-.022-.245v-1.777a.752.752,0,0,1,.153-.508C532.059,864.881,532.141,864.8,532.271,864.834Z" transform="translate(-130.619 -332.278)" fill="#cbcbcb"/>
      <path id="Path_656" data-name="Path 656" d="M671.544,872.444c0-.214-.01-.427,0-.64a1.4,1.4,0,0,1,.163-.614.857.857,0,0,1,1.016-.4.352.352,0,0,1,.251.378c0,.064-.029.129-.122.109a1.961,1.961,0,0,0-.29-.054.4.4,0,0,0-.491.368,2.8,2.8,0,0,0-.042.489c-.005.411,0,.822,0,1.233,0,.082-.007.168-.1.2a.3.3,0,0,1-.308-.1.483.483,0,0,1-.082-.279v-.69Z" transform="translate(-257.834 -337.67)" fill="#cbcbcb"/>
      <path id="Path_657" data-name="Path 657" d="M281.7,872.424v-.64a1.23,1.23,0,0,1,.191-.655.839.839,0,0,1,.944-.363.358.358,0,0,1,.26.207.277.277,0,0,1,.021.238c-.051.1-.139.046-.214.029a1.028,1.028,0,0,0-.146-.028c-.353-.027-.52.1-.559.464-.021.2-.013.394-.014.591,0,.358,0,.722-.009,1.084,0,.128-.1.187-.248.148a.284.284,0,0,1-.226-.286c-.008-.263,0-.526,0-.789Z" transform="translate(97.144 -337.658)" fill="#cbcbcb"/>
      <path id="Path_658" data-name="Path 658" d="M509.216,176.355a6.1,6.1,0,1,1,6.1,6.1A6.158,6.158,0,0,1,509.216,176.355Z" transform="translate(-110.026 300.213)" fill="#3b3b3b"/>
    </g>
    <g id="Group_415" data-name="Group 415" transform="translate(16.414 105)">
      <path id="Path_659" data-name="Path 659" d="M49.873,361.087l.523-2.948H37.683a3.042,3.042,0,0,0-2.865,2.4l-4.909,27.83h0a1.975,1.975,0,0,0,1.983,2.448H45.779l.517-2.943H34.369l2.2-12.495h9.69l.507-2.9H37.083L39.1,361.091Z" transform="translate(342.938 162.589)" fill="#cbcbcb"/>
      <path id="Path_660" data-name="Path 660" d="M161.2,428.782c-5.6,0-8.846-5.033-7.4-13.3,1.483-8.409,6.474-13.252,12.174-13.252,3.132,0,4.669,1,5.354,1.709l-1.423,2.424a5.082,5.082,0,0,0-3.586-1.232c-4.657,0-7.207,4.222-8.261,10.208-1.084,6.127.358,10.357,4.5,10.357a7.5,7.5,0,0,0,4.115-1.232l.583,2.609a9.921,9.921,0,0,1-6.051,1.709" transform="translate(237.873 125.109)" fill="#cbcbcb"/>
      <path id="Path_661" data-name="Path 661" d="M281.184,404.894c-4.889,0-6.807,5.462-7.724,10.637s-.775,10.352,4.019,10.352c4.9,0,6.718-5.229,7.618-10.357s.977-10.633-3.913-10.633m-4.21,23.887c-6.986,0-9.012-5.748-7.69-13.252,1.349-7.646,5.432-13.3,12.322-13.3,7.028,0,9.024,5.652,7.672,13.3-1.319,7.505-5.367,13.252-12.3,13.252" transform="translate(139.738 125.109)" fill="#cbcbcb"/>
      <path id="Path_662" data-name="Path 662" d="M574.051,413.773c-6.6.8-10.691,2.18-11.6,7.361-.655,3.7,1.349,5.223,5.157,5.223a10.3,10.3,0,0,0,4.378-.852Zm-7.207,15.009c-6.646,0-9.225-2.9-8.4-7.552,1.2-6.8,7.91-8.786,15.991-9.6l.274-1.567c.7-3.943-1.477-5.081-4.759-5.081A16.177,16.177,0,0,0,563.5,406.6l-.567-2.472a19.067,19.067,0,0,1,8.172-1.9c4.753,0,8.576,2.043,7.468,8.309l-2.907,16.438a19.963,19.963,0,0,1-8.822,1.8" transform="translate(-106.269 125.109)" fill="#cbcbcb"/>
      <path id="Path_663" data-name="Path 663" d="M710.138,428.339l3.24-18.379c.423-2.376-.118-4.985-4.484-4.985a11.727,11.727,0,0,0-5,.9l-3.967,22.465H695.75l4.276-24.27a23.646,23.646,0,0,1,9.672-1.8c7.13,0,8.523,3.943,7.88,7.6l-3.258,18.469Z" transform="translate(-223.113 125.075)" fill="#cbcbcb"/>
      <path id="Path_664" data-name="Path 664" d="M161.5,610.64H20.38l.13-.84H161.62Z" transform="translate(351.003 -51.341)" fill="#535353"/>
      <path id="Path_665" data-name="Path 665" d="M429.253,351.95c-1.144,6.463-4.009,10.882-9.28,10.882a7.718,7.718,0,0,1-3.5-.619l3.462-19.619a8.66,8.66,0,0,1,4.348-.994c4.843,0,5.956,4.753,4.968,10.345m-3.486-12.817a11.563,11.563,0,0,0-5.432,1.186l2.2-12.483-4.6,2.661-5.861,33.24c1.349,1,3.859,1.8,7.331,1.8,7.6,0,12.609-5.51,14.055-13.729,1.364-7.742-1.8-12.681-7.694-12.681" transform="translate(18.037 188.355)" fill="#cbcbcb"/>
      <path id="Path_666" data-name="Path 666" d="M601.017,281.713h-4.366l-11.214,11.869h-.1l2.859-16.175c2.849-16.021-14.448-19.4-32.5-16.642a100.792,100.792,0,0,0-23.109,6.772s14.151-4.947,26.605-5.658c15.723-.9,28.046,1.489,24.448,18.148l-4.813,27.286h4.085l2.33-13.21h.094l7.457,13.21h4.753l-8.333-13.643Z" transform="translate(-84.414 246.103)" fill="#cbcbcb"/>
      <path id="Path_667" data-name="Path 667" d="M14.717,665.529l-1.793,10.157h-1.5l1.8-10.16H11l.178-1.006h5.938l-.178,1.006Z" transform="translate(358.977 -97.857)" fill="#cbcbcb"/>
      <path id="Path_668" data-name="Path 668" d="M54.491,666.744l1.09-6.2c.16-.9-.084-1.721-1.478-1.721a3.477,3.477,0,0,0-1.78.435L51,666.744H49.57L51.819,654h1.423l-.78,4.448a4.83,4.83,0,0,1,2.1-.535c2.228,0,2.669,1.34,2.454,2.573l-1.1,6.258Z" transform="translate(326.189 -88.914)" fill="#cbcbcb"/>
      <path id="Path_669" data-name="Path 669" d="M110.025,680.5c-1.268,0-2.388,1.024-2.775,3.394l4.3-.637c.345-1.982-.28-2.757-1.525-2.757m-2.859,4.157c-.19,1.977.567,2.954,2.138,2.954a4.863,4.863,0,0,0,2.249-.505l.208.94a5.957,5.957,0,0,1-2.751.6c-2.288,0-3.64-1.448-3.091-4.562.529-2.973,2.258-4.51,4.318-4.51,2.1,0,3.121,1.364,2.573,4.283Z" transform="translate(278.392 -110.651)" fill="#cbcbcb"/>
      <path id="Path_670" data-name="Path 670" d="M198.821,664.3a3.778,3.778,0,0,0-1.3.208l-.822,4.676.477.048c2.316.232,3.358-.847,3.651-2.466s-.3-2.466-2-2.466m-1.8,5.847-.495-.046-.807,4.631h-1.46l1.889-10.714a6.455,6.455,0,0,1,2.9-.621c2.633,0,3.568,1.418,3.222,3.378-.351,1.984-1.994,3.693-5.234,3.364" transform="translate(203.192 -96.905)" fill="#cbcbcb"/>
      <path id="Path_671" data-name="Path 671" d="M252.219,683.533c-2.249.28-3.651.75-3.961,2.514-.226,1.262.465,1.786,1.763,1.786a3.6,3.6,0,0,0,1.5-.291Zm-2.459,5.129c-2.27,0-3.148-1-2.871-2.586.411-2.316,2.7-3,5.462-3.274l.094-.537c.238-1.349-.507-1.733-1.625-1.733a5.458,5.458,0,0,0-2.2.549l-.2-.847a6.6,6.6,0,0,1,2.792-.643c1.625,0,2.929.7,2.549,2.841l-.986,5.616a6.721,6.721,0,0,1-3.013.621" transform="translate(158.495 -110.668)" fill="#cbcbcb"/>
      <path id="Path_672" data-name="Path 672" d="M303.786,688.489l1.108-6.283c.15-.81-.04-1.7-1.537-1.7a4,4,0,0,0-1.709.31l-1.349,7.676H298.87l1.465-8.289a7.989,7.989,0,0,1,3.306-.619c2.436,0,2.913,1.349,2.7,2.6l-1.123,6.312Z" transform="translate(114.265 -110.659)" fill="#cbcbcb"/>
      <path id="Path_673" data-name="Path 673" d="M389.419,667.214a7.239,7.239,0,0,1-.084-1.349H389.3a9.891,9.891,0,0,1-.577,1.349l-2.078,4.241h3.328Zm1.1,8.472-.463-3.343h-3.831l-1.675,3.343H383.19l5.747-11.166h1.334l1.8,11.166Z" transform="translate(42.587 -97.857)" fill="#cbcbcb"/>
      <path id="Path_674" data-name="Path 674" d="M456.757,658.882l-1.382,7.858H453.94l1.387-7.861h-1.012l.16-.888h1.008l.22-1.234A3.131,3.131,0,0,1,459.139,654l-.15.9a1.813,1.813,0,0,0-1.829,1.691l-.244,1.394h1.525l-.15.888Z" transform="translate(-17.556 -88.911)" fill="#cbcbcb"/>
      <path id="Path_675" data-name="Path 675" d="M489.068,680.727a2.643,2.643,0,0,0-2.019.162l-1.349,7.646H484.27l1.459-8.279a7.659,7.659,0,0,1,3.871-.619Z" transform="translate(-43.339 -110.703)" fill="#cbcbcb"/>
      <path id="Path_676" data-name="Path 676" d="M522.359,660.47a.665.665,0,0,1-.709-.78,1.013,1.013,0,0,1,.982-.8.664.664,0,0,1,.691.8,1.015,1.015,0,0,1-.964.78M519.81,670.9l1.543-8.748h1.43l-1.55,8.745Z" transform="translate(-73.551 -93.073)" fill="#cbcbcb"/>
      <path id="Path_677" data-name="Path 677" d="M548.744,688.662c-1.917,0-3.025-1.721-2.525-4.544.5-2.877,2.208-4.528,4.156-4.528a2.422,2.422,0,0,1,1.829.585l-.489.826a1.735,1.735,0,0,0-1.22-.417c-1.6,0-2.466,1.447-2.829,3.49-.363,2.09.124,3.537,1.537,3.537a2.637,2.637,0,0,0,1.411-.417l.2.888a3.457,3.457,0,0,1-2.066.583" transform="translate(-95.898 -110.668)" fill="#cbcbcb"/>
      <path id="Path_678" data-name="Path 678" d="M592.255,683.533c-2.249.28-3.651.75-3.961,2.514-.226,1.262.459,1.786,1.757,1.786a3.585,3.585,0,0,0,1.5-.291Zm-2.46,5.129c-2.268,0-3.156-1-2.87-2.586.4-2.316,2.7-3,5.462-3.274l.094-.537c.238-1.349-.507-1.733-1.625-1.733a5.48,5.48,0,0,0-2.2.549l-.2-.847a6.578,6.578,0,0,1,2.793-.643c1.625,0,2.93.7,2.549,2.841l-.988,5.616a6.723,6.723,0,0,1-3.015.621" transform="translate(-130.559 -110.668)" fill="#cbcbcb"/>
      <path id="Path_679" data-name="Path 679" d="M643.876,688.489l1.1-6.283c.142-.81-.04-1.7-1.531-1.7a4.014,4.014,0,0,0-1.715.31l-1.349,7.676H638.96l1.459-8.289a8.009,8.009,0,0,1,3.306-.619c2.436,0,2.913,1.349,2.7,2.6l-1.123,6.312Z" transform="translate(-174.837 -110.659)" fill="#cbcbcb"/>
      <path id="Path_680" data-name="Path 680" d="M734.722,664.3a4.489,4.489,0,0,0-1.514.243l-.7,3.973h.726c2.306,0,3.217-.709,3.466-2.168.25-1.37-.45-2.048-1.97-2.048m-1.6,4.967h-.75l-.786,4.45a3.521,3.521,0,0,0,1.525.256c1.459,0,2.7-.583,2.989-2.21.3-1.733-.571-2.495-2.983-2.495m-.114,5.664a5.857,5.857,0,0,1-2.936-.619l1.8-10.256a6.858,6.858,0,0,1,3.013-.619c2.453,0,3.555,1.172,3.27,2.793a3.246,3.246,0,0,1-2.627,2.6v.03a2.537,2.537,0,0,1,2.09,2.889c-.4,2.238-2.3,3.18-4.609,3.18" transform="translate(-252.287 -96.939)" fill="#cbcbcb"/>
      <path id="Path_681" data-name="Path 681" d="M793.32,683.533c-2.249.28-3.651.75-3.967,2.514-.22,1.262.465,1.786,1.763,1.786a3.625,3.625,0,0,0,1.5-.291Zm-2.46,5.129c-2.274,0-3.156-1-2.876-2.586.417-2.316,2.7-3,5.468-3.274l.089-.537c.238-1.349-.5-1.733-1.619-1.733a5.456,5.456,0,0,0-2.21.549l-.19-.847a6.573,6.573,0,0,1,2.787-.643c1.625,0,2.936.7,2.549,2.841l-.982,5.616a6.723,6.723,0,0,1-3.015.621" transform="translate(-301.477 -110.668)" fill="#cbcbcb"/>
      <path id="Path_682" data-name="Path 682" d="M846.083,688.505l1.108-6.283c.138-.81-.04-1.7-1.537-1.7a4.034,4.034,0,0,0-1.715.31l-1.349,7.676h-1.43l1.475-8.286a7.981,7.981,0,0,1,3.3-.619c2.43,0,2.907,1.349,2.7,2.6l-1.126,6.309Z" transform="translate(-346.722 -110.676)" fill="#cbcbcb"/>
      <path id="Path_683" data-name="Path 683" d="M901.776,666.744l-2.549-4.508h-.041l-.789,4.508H897L899.249,654h1.394l-1.418,8.052h.03l3.843-4.061h1.483l-4.026,4.1,2.849,4.657Z" transform="translate(-394.191 -88.914)" fill="#cbcbcb"/>
    </g>
    <g id="Group_414" data-name="Group 414" transform="translate(-327.586 138)">
      <path id="Path_708" data-name="Path 708" d="M84.074,324.59a24.619,24.619,0,0,0-5.758.535c-.165-.176-.019-.307.049-.418C83,317.125,89.4,311.96,98.263,310.185a28.688,28.688,0,0,1,9.487-.329,12.607,12.607,0,0,0,3.627-.473c1.152-.17,1.379,0,.8,1.007-1.135,1.975-.45,3.905-.131,5.866q.84,5.118,1.758,10.227a1.518,1.518,0,0,1-.473,1.527c-.87.793-1.618,1.8-3.077,1.313-.946-.31-1.673-.693-1.7-1.822a1.2,1.2,0,0,0-.267-.691,30.06,30.06,0,0,0-4.091-4.178c-.918-.713-1.446-.615-2.1.363a17.873,17.873,0,0,0-1.631,3.6,36.606,36.606,0,0,1-4.1,8.367,1.357,1.357,0,0,1-1.394.668,50.422,50.422,0,0,0-7.618-.212c.053.35.282.341.505.369,2.5.307,5,.628,7.495.929a2.97,2.97,0,0,1,2.414,4.1,103.767,103.767,0,0,1-5.317,10.1,2.755,2.755,0,0,1-1.052,1.052q-1.567.87-3.116,1.775c-.412.24-.683.189-.891-.269a6.093,6.093,0,0,1-.52-3.315c.093-.74,1.311-1.324,2.212-1.126,1.118.252,1.629-.167,1.582-1.324a2.423,2.423,0,0,1,.5-1.395c.9-1.442,1.822-2.868,2.723-4.31.189-.308.545-.641.3-1.018s-.691-.263-1.056-.231a13.56,13.56,0,0,0-4.919,1.043,28.73,28.73,0,0,1-8.645,2.248c-3.856.532-7.775.482-11.659,1.268a22.461,22.461,0,0,0-.011-5.334,2.422,2.422,0,0,0-.539,1.47c-.653,5.621-3.76,9.691-8.187,12.912a25.23,25.23,0,0,1-8.967,4.081,7.377,7.377,0,0,0-4.986,3.835c-1.27,2.322-2.255,4.789-3.57,7.076a8.516,8.516,0,0,1-6.28,4.363c-1.423.221-1.65-.068-1.232-1.449.174-.568.4-1.135.6-1.692.454-1.283,1.035-2.365,2.715-2.157.634.079.976-.378,1.2-.982,1.289-3.481,2.628-6.942,3.905-10.427a1.966,1.966,0,0,1,1.241-1.29c1.514-.568,3.027-1.1,4.492-1.726,2.532-1.08,3.254-2.271,3.078-4.988a24.913,24.913,0,0,1,.055-6.866c.974-4.581,3.973-7.529,7.875-9.731a45.585,45.585,0,0,1,11.163-3.973q6.306-1.62,12.605-3.264c.356-.093.7-.216,1.052-.324Z" transform="translate(872.488 163.675)" fill="#535353"/>
      <path id="Path_709" data-name="Path 709" d="M468.369,609.08a7.676,7.676,0,0,1,7.848,7.714,7.768,7.768,0,0,1-7.97,7.725,7.721,7.721,0,1,1,.121-15.44Zm-4.528,7.635a4.528,4.528,0,0,0,4.46,4.829,4.474,4.474,0,0,0,4.564-4.713,4.607,4.607,0,0,0-4.541-4.785A4.4,4.4,0,0,0,463.841,616.714Z" transform="translate(526.677 -79.363)" fill="#cbcbcb"/>
      <path id="Path_710" data-name="Path 710" d="M331.028,611.487a5.744,5.744,0,0,1,3.631-2.409,4.97,4.97,0,0,1,6.123,4.679c.15,2.95.07,5.913.047,8.87a1.483,1.483,0,0,1-1.656,1.54,1.577,1.577,0,0,1-1.686-1.64c-.045-1.256-.013-2.516-.015-3.784,0-1.1.021-2.2-.015-3.3-.068-2.161-1.209-3.389-3.112-3.391a3.236,3.236,0,0,0-3.355,3.434c-.051,2.3,0,4.594-.025,6.891a1.574,1.574,0,0,1-1.631,1.781,1.521,1.521,0,0,1-1.72-1.58q-.04-5.9,0-11.8a1.591,1.591,0,0,1,1.523-1.622,1.7,1.7,0,0,1,1.813,1.442C330.992,610.836,330.994,611.067,331.028,611.487Z" transform="translate(634.402 -79.284)" fill="#cbcbcb"/>
      <path id="Path_711" data-name="Path 711" d="M566.955,611.517a5.458,5.458,0,0,1,5.794-2.3,4.679,4.679,0,0,1,3.9,4.48c.085,3.018.045,6.04.03,9.059a1.517,1.517,0,0,1-1.557,1.553,1.62,1.62,0,0,1-1.7-1.538c-.064-1.192-.023-2.39-.034-3.595-.013-1.383.04-2.772-.072-4.148a2.873,2.873,0,0,0-2.9-2.893,3.154,3.154,0,0,0-3.406,2.511,13.475,13.475,0,0,0-.14,3.194c-.026,1.514,0,3.027-.009,4.53a1.7,1.7,0,1,1-3.372.021c-.013-3.68,0-7.362,0-11.042,0-1.338.583-2.081,1.621-2.121s1.663.66,1.762,1.989A1.812,1.812,0,0,0,566.955,611.517Z" transform="translate(443.15 -79.368)" fill="#cbcbcb"/>
      <path id="Path_712" data-name="Path 712" d="M243.478,622.749c-.3.049-.39.276-.524.435a5.45,5.45,0,0,1-6.123,1.474c-1.964-.632-3.133-2.545-3.15-4.919-.019-2.708-.011-5.417,0-8.125a1.575,1.575,0,0,1,1.614-1.794,1.645,1.645,0,0,1,1.727,1.813c.021,2.015,0,4.03,0,6.055,0,.378,0,.757.026,1.135.132,2.011,1.279,3.143,3.162,3.133a3.131,3.131,0,0,0,3.279-3.19c.072-2.329.034-4.66.03-7a1.733,1.733,0,0,1,1.239-1.892,1.636,1.636,0,0,1,2.129,1.7q.023,5.716,0,11.432a1.682,1.682,0,0,1-1.582,1.871,1.732,1.732,0,0,1-1.78-1.7C243.512,623.044,243.5,622.9,243.478,622.749Z" transform="translate(710.556 -79.942)" fill="#cbcbcb"/>
      <path id="Path_713" data-name="Path 713" d="M4.149,474.451a5.192,5.192,0,0,1,.159-2.868c1.616-5.059,5.349-7.633,10.3-8.783a21.533,21.533,0,0,1,5.442-.407,13.916,13.916,0,0,0,6.709-1.166c.2-.1.441-.229.615-.055.214.214-.051.4-.159.568a11.506,11.506,0,0,0-1.377,2.674c-.18.528-.636.672-1.041.882a55.154,55.154,0,0,1-12.965,4.494,17.99,17.99,0,0,0-4.52,1.589,7.515,7.515,0,0,0-3.16,3.073Z" transform="translate(896.755 40.628)" fill="#535353"/>
      <path id="Path_714" data-name="Path 714" d="M372.835,437.1a11.427,11.427,0,0,0-1.968.189,2.927,2.927,0,0,1-2.838-.969c-.237-.2-.2-.335-.076-.545.246-.4.49-.806.721-1.217,1.114-1.975,1.114-1.981,3.389-1.7,1.374.167,2.745.35,4.117.528A2.654,2.654,0,0,1,378.2,436.8a64.354,64.354,0,0,1-5,9.413c-.853,1.311-2.5,1.729-3.841,2.46-.286.157-.439-.163-.541-.388a5.3,5.3,0,0,1-.462-2.851c.087-.687,1.1-1.226,1.939-1.079,1.116.189,1.446-.074,1.459-1.23a2.286,2.286,0,0,1,.462-1.215c.8-1.281,1.625-2.545,2.418-3.83.511-.825.4-1-.579-1.018-.219,0-.439.009-.66.019-.189,0-.378.025-.568.038Z" transform="translate(601.761 63.625)" fill="#535353"/>
      <path id="Path_715" data-name="Path 715" d="M662.824,597.223a6.822,6.822,0,0,1,5.7-3.2,6.641,6.641,0,0,1,4.689,1.913,7.985,7.985,0,0,1,.473,10.586,6.42,6.42,0,0,1-3.542,2.212,7.113,7.113,0,0,1-4.087-.233,11.432,11.432,0,0,1-3.451-2.539v1.658c0,.511.047,1.109-.694,1.08-.641-.025-.653-.556-.651-1.054V591.579c0-.252,0-.5.009-.757a.634.634,0,0,1,.647-.672c.462,0,.651.282.653.738,0,1.731.021,3.463.032,5.194v1.01Zm11.152,4.252c-.023-3.595-2.386-6.166-5.646-6.145a6.18,6.18,0,0,0,.081,12.34C671.706,607.665,674,605.117,673.976,601.474Z" transform="translate(363.87 -64.015)" fill="#cbcbcb"/>
      <path id="Path_716" data-name="Path 716" d="M763,623.4a7,7,0,0,1-8.038,2.138,4.1,4.1,0,0,1-2.929-4.163A4.177,4.177,0,0,1,755.1,617.4a12.56,12.56,0,0,1,7.076-.085c.71.155.855.026.834-.666a4.026,4.026,0,0,0-4.042-4.129,9.209,9.209,0,0,0-4.418.776c-.447.189-.946.441-1.192-.189s.278-.81.725-.993a10.428,10.428,0,0,1,5.907-.746,4.9,4.9,0,0,1,4.308,4.867c.078,2.893.025,5.792.032,8.687,0,.452-.095.861-.621.885-.585.028-.719-.39-.711-.887Zm-3.784-5.285a8.275,8.275,0,0,0-3.854.5,2.956,2.956,0,0,0-1.881,2.7,2.9,2.9,0,0,0,1.741,2.885,5.818,5.818,0,0,0,5.761-.361c1.729-1.008,2.191-2.632,2.066-4.528a.686.686,0,0,0-.632-.757,19.818,19.818,0,0,0-3.217-.445Z" transform="translate(290.271 -81.099)" fill="#cbcbcb"/>
      <path id="Path_717" data-name="Path 717" d="M939.784,601.751c-1.1,1.082-2.153,2.123-3.217,3.145a1.155,1.155,0,0,0-.32.946v2.172c0,.45-.189.729-.67.719s-.664-.291-.67-.734V591.463a4.261,4.261,0,0,1,.019-.66.621.621,0,0,1,.636-.583.6.6,0,0,1,.649.653c.013.535.034,1.069.034,1.6v10.853c.45-.051.594-.363.8-.568q3.656-3.76,7.292-7.536c.176-.189.356-.358.528-.541.314-.339.694-.517,1.069-.178.407.369.164.736-.148,1.054-.973.988-1.949,1.972-2.916,2.963-.7.721-1.877,1.4-1.962,2.191-.095.876,1.109,1.637,1.745,2.448,1.109,1.411,2.25,2.8,3.385,4.187.314.378.649.852.214,1.236-.477.422-.908.055-1.258-.378C943.264,606.038,941.517,603.891,939.784,601.751Z" transform="translate(142.003 -64.07)" fill="#cbcbcb"/>
      <path id="Path_718" data-name="Path 718" d="M843.9,613.178a6.276,6.276,0,0,1,5.922-2.528,5.154,5.154,0,0,1,4.868,5.008c.115,2.923.043,5.854.055,8.781,0,.458-.1.829-.664.819-.609-.011-.685-.429-.685-.912v-7.273a9,9,0,0,0-.072-1.412,4.262,4.262,0,0,0-4.692-3.818,4.818,4.818,0,0,0-4.7,4.645c-.081,2.39-.025,4.783-.028,7.177v.757c0,.45-.108.825-.662.838s-.7-.322-.708-.793V611.622c.025-.416.163-.757.651-.757.532,0,.694.358.708.812C843.907,612.173,843.9,612.674,843.9,613.178Z" transform="translate(216.898 -80.6)" fill="#cbcbcb"/>
      <path id="Path_719" data-name="Path 719" d="M425.164,617.442V623.1c0,1.175-.541,1.775-1.574,1.816a1.58,1.58,0,0,1-1.779-1.737q-.042-5.752,0-11.508a1.681,1.681,0,1,1,3.349.11C425.173,613.669,425.164,615.556,425.164,617.442Z" transform="translate(558.03 -80.036)" fill="#cbcbcb"/>
      <path id="Path_720" data-name="Path 720" d="M100.228,573.253c-.378.051-.6-.269-.378-.923.208-.624.448-1.239.655-1.866.331-1.012.87-1.7,2.081-1.642a1.077,1.077,0,0,0,1.173-.991,4.421,4.421,0,0,1,3.466-3.809,9.9,9.9,0,0,0,1.777-.861c.163-.081.331-.24.515-.095s.055.342-.026.5a41.866,41.866,0,0,1-3.595,6.611A7.425,7.425,0,0,1,100.228,573.253Z" transform="translate(819.126 -42.008)" fill="#535353"/>
    </g>
    <g id="Group_412-2" data-name="Group 412" transform="translate(452.414 147.078)">
      <path id="Path_629-2" data-name="Path 629" d="M308.367,118.307a20.869,20.869,0,1,1-20.83-20.888A20.844,20.844,0,0,1,308.367,118.307Zm-20.044-8.242a6.1,6.1,0,1,0,6.125-6.135A6.108,6.108,0,0,0,288.323,110.065Z" transform="translate(110.867 366.503)" fill="#535353"/>
      <path id="Path_630-2" data-name="Path 630" d="M859.915,679.357c-.069-.023-.089-.008-.111.028a3.222,3.222,0,0,1-2.267,1.527,5.636,5.636,0,0,1-4.633-1.02,4.917,4.917,0,0,1-1.967-3.419,7.144,7.144,0,0,1,.637-4.14,6.107,6.107,0,0,1,4.434-3.447,7.155,7.155,0,0,1,2.5-.125,5.045,5.045,0,0,1,4.273,3.357,5.517,5.517,0,0,1,.411,2.073c-.015,2.093.074,4.184.111,6.277a6.474,6.474,0,0,1-.415,2.421,5.741,5.741,0,0,1-3.7,3.582,7.593,7.593,0,0,1-4.478.116,4.647,4.647,0,0,1-1.514-.707,2.514,2.514,0,0,1-1.162-2.266c.016-.345,0-.692,0-1.038,0-.068.015-.139.085-.162a.179.179,0,0,1,.179.065,3.96,3.96,0,0,0,1.061.716,6.535,6.535,0,0,0,1.694.521,8.191,8.191,0,0,0,1.808.1,4.32,4.32,0,0,0,1.444-.3,2.5,2.5,0,0,0,1.59-1.935,4.542,4.542,0,0,0,.07-1.431C859.941,679.885,859.933,679.613,859.915,679.357Zm-.064-4.471a4.109,4.109,0,0,0-.312-1.808,2.265,2.265,0,0,0-2.337-1.393,2.782,2.782,0,0,0-2.393,1.51,3.838,3.838,0,0,0-.252,3.286,2.547,2.547,0,0,0,3.091,1.647,2.611,2.611,0,0,0,1.961-1.768,4.022,4.022,0,0,0,.242-1.472Z" transform="translate(-421.122 -153.696)" fill="#cbcbcb"/>
      <path id="Path_631-2" data-name="Path 631" d="M21.519,633.045c-.123-.011-.179-.1-.248-.168a5.561,5.561,0,0,0-3.2-1.4,8.757,8.757,0,0,0-2.169,0,4.207,4.207,0,0,0-1.421.394,1.818,1.818,0,0,0-1.064,1.8,1.317,1.317,0,0,0,.473.994,2.928,2.928,0,0,0,.757.461,11.118,11.118,0,0,0,1.926.614c.56.134,1.125.25,1.68.4a6.428,6.428,0,0,1,2.092.984A3.781,3.781,0,0,1,22,639.781a5.177,5.177,0,0,1-3.41,5.851,8.922,8.922,0,0,1-3.8.453,7.927,7.927,0,0,1-1.891-.34,4.771,4.771,0,0,1-1.2-.567,2.844,2.844,0,0,1-1.317-2.414c-.01-.461,0-.923,0-1.384,0-.1.084-.147.164-.089.106.079.2.166.309.247a7.043,7.043,0,0,0,5.332,1.468,4.473,4.473,0,0,0,1.246-.3,1.8,1.8,0,0,0,1-.909,2.474,2.474,0,0,0,.114-1.644,1.216,1.216,0,0,0-.5-.66,3.339,3.339,0,0,0-.83-.434,16.038,16.038,0,0,0-2.325-.649,12.349,12.349,0,0,1-1.759-.488,5.944,5.944,0,0,1-1.755-.991,3.7,3.7,0,0,1-1.356-3.29,5.384,5.384,0,0,1,3.538-4.714,6.342,6.342,0,0,1,2.3-.511,10.3,10.3,0,0,1,2.849.208,5.142,5.142,0,0,1,1.466.575,2.884,2.884,0,0,1,1.121,1.154,1.989,1.989,0,0,1,.251.847c.015.576.02,1.153.024,1.729A.265.265,0,0,1,21.519,633.045Z" transform="translate(344.541 -116.998)" fill="#cbcbcb"/>
      <path id="Path_632-2" data-name="Path 632" d="M273.266,677.18h-1.829c-.186,0-.235.064-.2.244a2.827,2.827,0,0,0,.6,1.23,3.616,3.616,0,0,0,2.057,1.189,6.609,6.609,0,0,0,2.017.068,6.719,6.719,0,0,0,1.5-.3,4.68,4.68,0,0,0,1.6-.863c.1-.089.2-.041.2.085a8.7,8.7,0,0,1-.05,1.431,2.435,2.435,0,0,1-1.047,1.665,4.087,4.087,0,0,1-1.592.645,9.387,9.387,0,0,1-3.046.145,6.617,6.617,0,0,1-5.515-4.81,7.542,7.542,0,0,1-.229-2.593,9.2,9.2,0,0,1,.439-2.272,6.289,6.289,0,0,1,2.593-3.385,6.484,6.484,0,0,1,2.783-.936,5.791,5.791,0,0,1,3.04.434,4.94,4.94,0,0,1,3,3.621,4.56,4.56,0,0,1,.06,1.815,2.451,2.451,0,0,1-1.1,1.687,4.528,4.528,0,0,1-1.46.584,12.239,12.239,0,0,1-2.4.293c-.478.014-.955,0-1.431,0Zm-.4-2.377a15.987,15.987,0,0,0,2.109-.1,3.832,3.832,0,0,0,1-.255.922.922,0,0,0,.591-.889,1.794,1.794,0,0,0-1.073-1.789,3.316,3.316,0,0,0-2.219-.179,2.7,2.7,0,0,0-1.833,1.658,3.91,3.91,0,0,0-.262,1.252c-.023.258,0,.3.251.3C271.888,674.807,272.349,674.8,272.865,674.8Z" transform="translate(109.881 -153.674)" fill="#cbcbcb"/>
      <path id="Path_633-2" data-name="Path 633" d="M706.743,677.932v4.053c-.008.373-.014.381-.394.385a5.073,5.073,0,0,1-1.18-.078,2.146,2.146,0,0,1-1.705-1.539,2.732,2.732,0,0,1-.066-.786v-4.994a6.339,6.339,0,0,0-.166-1.52,2.969,2.969,0,0,0-.309-.778,2.072,2.072,0,0,0-1.108-.94,2.973,2.973,0,0,0-1.8-.1,2.107,2.107,0,0,0-1.258.894,3.006,3.006,0,0,0-.478,1.285,7.966,7.966,0,0,0-.075,1.084q.006,3.463,0,6.923c0,.6.039.554-.567.554a4.788,4.788,0,0,1-.984-.064,2.085,2.085,0,0,1-1.768-1.919,5.252,5.252,0,0,1-.025-.543v-5.291a6.648,6.648,0,0,1,.291-2.1,5.239,5.239,0,0,1,3.507-3.543,6.777,6.777,0,0,1,4.04-.1A5.268,5.268,0,0,1,706.583,673a7.759,7.759,0,0,1,.159,1.674C706.748,675.756,706.743,676.844,706.743,677.932Z" transform="translate(-279.069 -153.554)" fill="#cbcbcb"/>
      <path id="Path_634-2" data-name="Path 634" d="M169.864,645.535v-4.105a5.155,5.155,0,0,1,.043-.789,3.709,3.709,0,0,1,1.7-2.5,2.092,2.092,0,0,1,1.431-.254.159.159,0,0,1,.149.167c.006.115.006.231.006.346v2.324a.168.168,0,0,0,.179.19c.132,0,.264.005.4.005h3.759c.321.007.328.012.334.339v.841a1.69,1.69,0,0,1-1.527,1.762,5.517,5.517,0,0,1-.74.046c-.61.006-1.22,0-1.83,0h-.346c-.16.009-.212.056-.222.2-.007.1-.005.2-.005.3v4.7a4.1,4.1,0,0,0,.119,1.127,1.667,1.667,0,0,0,1.589,1.331,5.186,5.186,0,0,0,2.71-.377c.183-.089.246-.047.249.145,0,.358.013.726,0,1.087a2,2,0,0,1-1.263,1.85,3.019,3.019,0,0,1-.951.256,6.992,6.992,0,0,1-2.742-.22,3.966,3.966,0,0,1-2.836-2.959,6.429,6.429,0,0,1-.207-1.663v-4.154Z" transform="translate(198.985 -125.617)" fill="#cbcbcb"/>
      <path id="Path_635-2" data-name="Path 635" d="M526.109,629.247v-6.92c0-.474-.015-.455.461-.453.248,0,.494,0,.741.005a2.481,2.481,0,0,1,.82.163,1.9,1.9,0,0,1,1.252,1.417,3.651,3.651,0,0,1,.084.883v10.774c0,.231,0,.462.015.691a1.351,1.351,0,0,0,1.083,1.306,3.345,3.345,0,0,0,.879.114c.33,0,.659,0,.989.005.11,0,.2.043.2.166a4.414,4.414,0,0,1-.089,1.325,1.521,1.521,0,0,1-.99,1.085,2.767,2.767,0,0,1-.715.162,5.705,5.705,0,0,1-2.2-.228A3.4,3.4,0,0,1,526.227,637a6.144,6.144,0,0,1-.109-1.278Q526.11,632.485,526.109,629.247Z" transform="translate(-125.409 -111.053)" fill="#cbcbcb"/>
      <path id="Path_636-2" data-name="Path 636" d="M426.992,679.991v3.859c0,.447-.005.447-.43.447a5.6,5.6,0,0,1-1.28-.089,1.936,1.936,0,0,1-1.568-1.341,2.609,2.609,0,0,1-.114-.78c0-2.077-.01-4.155.006-6.232a6.061,6.061,0,0,1,.537-2.545,4.314,4.314,0,0,1,3.4-2.56,5.277,5.277,0,0,1,1.967.008,2.686,2.686,0,0,1,.872.334,2,2,0,0,1,1,1.715c.013.329.006.659,0,.989,0,.24-.064.277-.309.2-.11-.034-.217-.078-.327-.113a4.506,4.506,0,0,0-1.954-.172,1.824,1.824,0,0,0-1.551,1.212,2.929,2.929,0,0,0-.216.96c-.016.378-.03.757-.03,1.137C426.989,678.01,426.992,679,426.992,679.991Z" transform="translate(-32.064 -155.476)" fill="#cbcbcb"/>
      <path id="Path_637-2" data-name="Path 637" d="M613.567,680.275v-4.551c0-.439,0-.44.427-.447a5.825,5.825,0,0,1,1.182.071,1.972,1.972,0,0,1,1.645,1.573,4.1,4.1,0,0,1,.1.984q-.006,2.968,0,5.936c0,.214-.005.429.015.642a1.309,1.309,0,0,0,1.138,1.3,5.5,5.5,0,0,0,1.082.07c.441,0,.439,0,.436.435a4.992,4.992,0,0,1-.08,1.082,1.415,1.415,0,0,1-1.137,1.162,3.167,3.167,0,0,1-.635.082,5.412,5.412,0,0,1-1.566-.179,3.27,3.27,0,0,1-2.4-2.391,5.482,5.482,0,0,1-.209-1.563v-4.2Z" transform="translate(-205.045 -159.676)" fill="#cbcbcb"/>
      <path id="Path_638-2" data-name="Path 638" d="M610.257,619.555a1.95,1.95,0,0,1,1.944-1.945,1.964,1.964,0,1,1,.019,3.927,1.949,1.949,0,0,1-1.963-1.982Z" transform="translate(-202.032 -107.17)" fill="#cbcbcb"/>
      <path id="Path_639-2" data-name="Path 639" d="M589.219,870.428a3.277,3.277,0,0,1,.268-.232,1,1,0,0,1,1.61.607,2.351,2.351,0,0,1,.047.342c.005.478,0,.956,0,1.431,0,.1,0,.21-.13.231a.291.291,0,0,1-.3-.139.5.5,0,0,1-.056-.287v-1.088a1.313,1.313,0,0,0-.095-.531.508.508,0,0,0-.561-.312.5.5,0,0,0-.514.379,2.577,2.577,0,0,0-.056.537c-.008.4,0,.791,0,1.188,0,.1.011.208-.106.251a.294.294,0,0,1-.35-.2,1.684,1.684,0,0,1-.032-.342c0-.3,0-.594,0-.894a2.355,2.355,0,0,0-.055-.489.549.549,0,0,0-.58-.435.526.526,0,0,0-.536.424,1.711,1.711,0,0,0-.056.537c0,.412,0,.824-.007,1.237a.164.164,0,0,1-.241.147.367.367,0,0,1-.237-.392c0-.429-.01-.858.006-1.286a1.407,1.407,0,0,1,.112-.478,1.091,1.091,0,0,1,1.4-.586A1.711,1.711,0,0,1,589.219,870.428Z" transform="translate(-181.061 -336.964)" fill="#cbcbcb"/>
      <path id="Path_640-2" data-name="Path 640" d="M707.281,863.625c.024.089.106.114.168.16a.922.922,0,0,1-.046,1.455.983.983,0,0,1-.3.162,2.48,2.48,0,0,1-1.315.024.61.61,0,0,1-.473-.571,2.043,2.043,0,0,1-.009-.247v-2.176c0-.39,0-.393.4-.47a3.52,3.52,0,0,1,1.181-.022.888.888,0,0,1,.817,1,.715.715,0,0,1-.216.484C707.423,863.486,707.315,863.518,707.281,863.625Zm-1.5.715v.246a.912.912,0,0,0,0,.1c.021.2.1.318.284.352a1.609,1.609,0,0,0,.873-.046.542.542,0,0,0,.348-.633.458.458,0,0,0-.415-.471,3.39,3.39,0,0,0-.586-.054c-.527-.006-.506-.024-.5.51Zm.553-.894a4.854,4.854,0,0,0,.536-.056.453.453,0,0,0,.358-.468.47.47,0,0,0-.3-.508,1.52,1.52,0,0,0-.626-.08c-.488.015-.52.046-.519.537-.005.6-.047.558.553.573Z" transform="translate(-288.579 -329.615)" fill="#cbcbcb"/>
      <path id="Path_641-2" data-name="Path 641" d="M317.333,863.783a2.723,2.723,0,0,1-.127.678,1.547,1.547,0,0,1-2.955-.061,2.293,2.293,0,0,1,.034-1.454,1.481,1.481,0,0,1,1.6-1.042,1.463,1.463,0,0,1,1.369,1.149A2.332,2.332,0,0,1,317.333,863.783Zm-2.7-.123a1.838,1.838,0,0,0,.089.631,1.028,1.028,0,0,0,1.057.787,1.011,1.011,0,0,0,1.006-.783,2.139,2.139,0,0,0,0-1.163,1.01,1.01,0,0,0-1.041-.8,1,1,0,0,0-1.028.751A1.58,1.58,0,0,0,314.629,863.659Z" transform="translate(67.596 -329.616)" fill="#cbcbcb"/>
      <path id="Path_642-2" data-name="Path 642" d="M391.7,872.366a.418.418,0,0,1-.246.549,1.329,1.329,0,0,1-1.845-.706,1.649,1.649,0,0,1,.156-1.473,1.177,1.177,0,0,1,1.6-.418.934.934,0,0,1,.475.957.5.5,0,0,1-.3.42,1.378,1.378,0,0,1-.578.118c-.263,0-.527,0-.79.011a.131.131,0,0,0-.116.173.806.806,0,0,0,.76.6A1.664,1.664,0,0,0,391.7,872.366Zm-1.024-.943c.079-.005.277-.008.47-.037a.259.259,0,0,0,.217-.327.459.459,0,0,0-.316-.4.742.742,0,0,0-1.009.507c-.046.172,0,.254.174.261C390.33,871.428,390.443,871.424,390.678,871.424Z" transform="translate(-1.02 -337.139)" fill="#cbcbcb"/>
      <path id="Path_643-2" data-name="Path 643" d="M640.2,872.3a.513.513,0,0,1-.382.631,1.32,1.32,0,0,1-1.811-1.012,1.626,1.626,0,0,1,.212-1.189,1.189,1.189,0,0,1,1.456-.52.975.975,0,0,1,.639.759.6.6,0,0,1-.463.752,2.489,2.489,0,0,1-.389.058c-.2.011-.4,0-.593.01-.11,0-.255-.047-.317.066-.08.148.018.284.113.4a.9.9,0,0,0,.845.3,1.724,1.724,0,0,0,.69-.258Zm-1.7-.933a4.12,4.12,0,0,0,1.073-.005c.256-.032.345-.236.229-.472a.527.527,0,0,0-.324-.281.729.729,0,0,0-.974.759Z" transform="translate(-227.268 -337.107)" fill="#cbcbcb"/>
      <path id="Path_644-2" data-name="Path 644" d="M739.516,870.823a.416.416,0,0,1,.159-.471,1.3,1.3,0,0,1,1.52-.018.769.769,0,0,1,.3.552,13.236,13.236,0,0,1,0,1.332.731.731,0,0,1-.508.668,1.4,1.4,0,0,1-1.059-.007.762.762,0,0,1-.536-.749.785.785,0,0,1,.526-.762,1.882,1.882,0,0,1,.427-.109c.146-.022.3-.02.447-.03.2-.014.263-.1.224-.283a.434.434,0,0,0-.4-.373,1.284,1.284,0,0,0-.815.123C739.7,870.74,739.642,870.83,739.516,870.823Zm1.149.821a.96.96,0,0,0-.611.131.388.388,0,0,0-.057.6.713.713,0,0,0,.734.125c.247-.079.3-.281.3-.506v-.147c-.009-.147-.053-.189-.216-.2C740.763,871.642,740.714,871.644,740.665,871.644Z" transform="translate(-319.615 -337.078)" fill="#cbcbcb"/>
      <path id="Path_645-2" data-name="Path 645" d="M804.957,862c.179-.02.219-.118.284-.187.2-.215.4-.434.605-.649a.626.626,0,0,1,.7-.179c0,.114-.089.148-.141.2-.241.248-.489.488-.724.74-.3.324-.3.268-.012.64a3.822,3.822,0,0,0,.89.914c.069.045.04.169-.039.2a.451.451,0,0,1-.506-.072,4.179,4.179,0,0,1-.374-.392c-.172-.2-.334-.407-.5-.611a.1.1,0,0,0-.124-.042c-.064.022-.054.079-.055.123-.006.3-.005.592-.014.888a.15.15,0,0,1-.216.122.274.274,0,0,1-.2-.2,1.532,1.532,0,0,1-.031-.293V860.2c.005-.1.012-.206.145-.214a.256.256,0,0,1,.275.165.9.9,0,0,1,.036.291v1.086Z" transform="translate(-378.905 -327.87)" fill="#cbcbcb"/>
      <path id="Path_646-2" data-name="Path 646" d="M214.88,871.617a1.572,1.572,0,0,1-.1.6,1.124,1.124,0,0,1-1.008.82,1.209,1.209,0,0,1-1.235-.646,1.681,1.681,0,0,1,.058-1.655,1.122,1.122,0,0,1,1.083-.563,1.15,1.15,0,0,1,1.058.7A1.61,1.61,0,0,1,214.88,871.617Zm-.487.024a1.169,1.169,0,0,0-.139-.639.746.746,0,0,0-1.241-.072,1.29,1.29,0,0,0,.055,1.391.745.745,0,0,0,.7.268.661.661,0,0,0,.558-.491A1.346,1.346,0,0,0,214.393,871.641Z" transform="translate(160.297 -337.15)" fill="#cbcbcb"/>
      <path id="Path_647-2" data-name="Path 647" d="M554.49,871.565a1.72,1.72,0,0,1-.12.662,1.106,1.106,0,0,1-.984.783,1.2,1.2,0,0,1-1.19-.547,1.737,1.737,0,0,1,.075-1.865,1.242,1.242,0,0,1,2.042.19A1.761,1.761,0,0,1,554.49,871.565Zm-.486.062a1.291,1.291,0,0,0-.165-.684.745.745,0,0,0-1.214-.05,1.283,1.283,0,0,0,.039,1.392.722.722,0,0,0,1.265-.2,1.3,1.3,0,0,0,.074-.454Z" transform="translate(-148.948 -337.125)" fill="#cbcbcb"/>
      <path id="Path_648-2" data-name="Path 648" d="M247.651,871.738v-.691c0-.089.019-.17.114-.194a.273.273,0,0,1,.234.047.291.291,0,0,1,.118.207c.012.115.018.229.019.344,0,.263-.005.527,0,.79a2.056,2.056,0,0,0,.063.487.634.634,0,0,0,.812.447.51.51,0,0,0,.377-.358,1.8,1.8,0,0,0,.068-.536v-1.234c0-.082,0-.172.106-.194a.26.26,0,0,1,.233.048.392.392,0,0,1,.107.159.788.788,0,0,1,.038.242v1.185a1.458,1.458,0,0,1-.021.2,1.121,1.121,0,0,1-1.581.9,1.012,1.012,0,0,1-.626-.715,2.752,2.752,0,0,1-.074-.536c-.013-.2,0-.394,0-.592Z" transform="translate(128.161 -337.759)" fill="#cbcbcb"/>
      <path id="Path_649-2" data-name="Path 649" d="M437.134,862.584c-.106,0-.165-.095-.247-.14a1.231,1.231,0,0,0-1.827.792,1.628,1.628,0,0,0,.112,1.061,1.207,1.207,0,0,0,1.487.65,1.729,1.729,0,0,0,.394-.2.089.089,0,0,1,.082,0,.12.12,0,0,1,.027.089.578.578,0,0,1-.283.442,1.007,1.007,0,0,1-.365.144,1.6,1.6,0,0,1-1.671-.707,1.937,1.937,0,0,1-.048-2.065,1.609,1.609,0,0,1,1.724-.8.754.754,0,0,1,.631.491A.242.242,0,0,1,437.134,862.584Z" transform="translate(-42.011 -329.552)" fill="#cbcbcb"/>
      <path id="Path_650-2" data-name="Path 650" d="M773.23,872v.74c0,.1-.006.2-.143.215a.257.257,0,0,1-.285-.148.818.818,0,0,1-.047-.289c-.006-.329,0-.658-.005-.984a2.909,2.909,0,0,0-.042-.491.54.54,0,0,0-.52-.447.6.6,0,0,0-.671.3.99.99,0,0,0-.1.478v1.186a2.012,2.012,0,0,1-.016.3c-.013.073-.078.1-.148.1a.268.268,0,0,1-.268-.179.679.679,0,0,1-.041-.24q-.005-.617,0-1.234a1.213,1.213,0,0,1,1.715-1.065.923.923,0,0,1,.537.774c.037.325.037.656.053.984Z" transform="translate(-348.346 -337.103)" fill="#cbcbcb"/>
      <path id="Path_651-2" data-name="Path 651" d="M469.7,871.8v-.789c0-.109.1-.164.206-.142a.3.3,0,0,1,.25.268,3.192,3.192,0,0,1,.018.393c.006.345,0,.691.018,1.035a.647.647,0,0,0,.472.626.589.589,0,0,0,.776-.407,1.713,1.713,0,0,0,.046-.439c.006-.41,0-.822.005-1.233,0-.095-.013-.206.116-.238a.282.282,0,0,1,.323.163.382.382,0,0,1,.038.141c0,.494.026.984-.008,1.479a1.034,1.034,0,0,1-1.106,1.024,1.063,1.063,0,0,1-1.141-.994,7.714,7.714,0,0,1-.006-.887Z" transform="translate(-74.044 -337.782)" fill="#cbcbcb"/>
      <path id="Path_652-2" data-name="Path 652" d="M359.155,871.927c0,.3.005.593,0,.889,0,.1-.089.131-.179.12a.275.275,0,0,1-.275-.237,1.912,1.912,0,0,1-.017-.3v-.89a3.419,3.419,0,0,0-.009-.345.655.655,0,0,0-.984-.529.55.55,0,0,0-.3.427,3.054,3.054,0,0,0-.025.447V872.7c0,.1,0,.206-.124.235a.282.282,0,0,1-.321-.169.639.639,0,0,1-.034-.192c0-.447-.016-.894,0-1.334a1.162,1.162,0,0,1,1.661-1.039.97.97,0,0,1,.6.894c.024.277,0,.559,0,.839Z" transform="translate(28.687 -337.089)" fill="#cbcbcb"/>
      <path id="Path_653-2" data-name="Path 653" d="M502.252,872.277a2.618,2.618,0,0,0,.6.238.993.993,0,0,0,.581-.039.318.318,0,0,0,.217-.3.292.292,0,0,0-.179-.321c-.167-.065-.342-.114-.513-.168a3.012,3.012,0,0,1-.422-.133.6.6,0,0,1-.315-.787.835.835,0,0,1,.2-.336,1.239,1.239,0,0,1,1.376-.2.853.853,0,0,1,.221.192c.089.1.095.277.03.315-.089.053-.154-.02-.223-.052a1.3,1.3,0,0,0-.723-.1.559.559,0,0,0-.312.138.268.268,0,0,0,.043.447,2.207,2.207,0,0,0,.324.114c.187.061.38.107.562.179a.761.761,0,0,1,.165,1.27,1.356,1.356,0,0,1-1.4.1.581.581,0,0,1-.147-.13.47.47,0,0,1-.083-.179A1.38,1.38,0,0,1,502.252,872.277Z" transform="translate(-103.619 -337.087)" fill="#cbcbcb"/>
      <path id="Path_654-2" data-name="Path 654" d="M181.554,862.358a1.088,1.088,0,0,1-.157.4,8.272,8.272,0,0,1-.737,1.163.911.911,0,0,0-.2.637c.013.3,0,.592,0,.889,0,.1-.01.206-.142.219a.289.289,0,0,1-.318-.179,1.008,1.008,0,0,1-.028-.243c0-.247-.011-.494,0-.74a.852.852,0,0,0-.172-.548,8.147,8.147,0,0,1-.819-1.46,1.05,1.05,0,0,1-.083-.231.108.108,0,0,1,.11-.13.393.393,0,0,1,.413.208c.089.158.154.327.242.485.152.273.311.542.475.8.069.112.15.106.229-.006a8.3,8.3,0,0,0,.637-1.112,3.381,3.381,0,0,1,.156-.307c.063-.1.167-.089.268-.057A.192.192,0,0,1,181.554,862.358Z" transform="translate(190.755 -329.825)" fill="#cbcbcb"/>
      <path id="Path_655-2" data-name="Path 655" d="M532.271,864.834c.108.156-.059.4.134.494a1.328,1.328,0,0,0,.486.034h.148c.1,0,.211,0,.215.14a.243.243,0,0,1-.179.268,2.408,2.408,0,0,1-.34.048c-.081.008-.165,0-.247.011s-.159.055-.16.149c0,.447-.016.889.006,1.331a.419.419,0,0,0,.459.417,2.083,2.083,0,0,0,.244-.024c.14-.013.207.072.171.2a.332.332,0,0,1-.229.237.825.825,0,0,1-1.123-.64,1.318,1.318,0,0,1-.022-.245v-1.777a.752.752,0,0,1,.153-.508C532.059,864.881,532.141,864.8,532.271,864.834Z" transform="translate(-130.619 -332.278)" fill="#cbcbcb"/>
      <path id="Path_656-2" data-name="Path 656" d="M671.544,872.444c0-.214-.01-.427,0-.64a1.4,1.4,0,0,1,.163-.614.857.857,0,0,1,1.016-.4.352.352,0,0,1,.251.378c0,.064-.029.129-.122.109a1.961,1.961,0,0,0-.29-.054.4.4,0,0,0-.491.368,2.8,2.8,0,0,0-.042.489c-.005.411,0,.822,0,1.233,0,.082-.007.168-.1.2a.3.3,0,0,1-.308-.1.483.483,0,0,1-.082-.279v-.69Z" transform="translate(-257.834 -337.67)" fill="#cbcbcb"/>
      <path id="Path_657-2" data-name="Path 657" d="M281.7,872.424v-.64a1.23,1.23,0,0,1,.191-.655.839.839,0,0,1,.944-.363.358.358,0,0,1,.26.207.277.277,0,0,1,.021.238c-.051.1-.139.046-.214.029a1.028,1.028,0,0,0-.146-.028c-.353-.027-.52.1-.559.464-.021.2-.013.394-.014.591,0,.358,0,.722-.009,1.084,0,.128-.1.187-.248.148a.284.284,0,0,1-.226-.286c-.008-.263,0-.526,0-.789Z" transform="translate(97.144 -337.658)" fill="#cbcbcb"/>
      <path id="Path_658-2" data-name="Path 658" d="M509.216,176.355a6.1,6.1,0,1,1,6.1,6.1A6.158,6.158,0,0,1,509.216,176.355Z" transform="translate(-110.026 300.213)" fill="#3b3b3b"/>
    </g>
    <g id="Group_2110" data-name="Group 2110" transform="translate(780.414 147.078)">
      <path id="Path_629-3" data-name="Path 629" d="M308.367,118.307a20.869,20.869,0,1,1-20.83-20.888A20.844,20.844,0,0,1,308.367,118.307Zm-20.044-8.242a6.1,6.1,0,1,0,6.125-6.135A6.108,6.108,0,0,0,288.323,110.065Z" transform="translate(110.867 366.503)" fill="#535353"/>
      <path id="Path_630-3" data-name="Path 630" d="M859.915,679.357c-.069-.023-.089-.008-.111.028a3.222,3.222,0,0,1-2.267,1.527,5.636,5.636,0,0,1-4.633-1.02,4.917,4.917,0,0,1-1.967-3.419,7.144,7.144,0,0,1,.637-4.14,6.107,6.107,0,0,1,4.434-3.447,7.155,7.155,0,0,1,2.5-.125,5.045,5.045,0,0,1,4.273,3.357,5.517,5.517,0,0,1,.411,2.073c-.015,2.093.074,4.184.111,6.277a6.474,6.474,0,0,1-.415,2.421,5.741,5.741,0,0,1-3.7,3.582,7.593,7.593,0,0,1-4.478.116,4.647,4.647,0,0,1-1.514-.707,2.514,2.514,0,0,1-1.162-2.266c.016-.345,0-.692,0-1.038,0-.068.015-.139.085-.162a.179.179,0,0,1,.179.065,3.96,3.96,0,0,0,1.061.716,6.535,6.535,0,0,0,1.694.521,8.191,8.191,0,0,0,1.808.1,4.32,4.32,0,0,0,1.444-.3,2.5,2.5,0,0,0,1.59-1.935,4.542,4.542,0,0,0,.07-1.431C859.941,679.885,859.933,679.613,859.915,679.357Zm-.064-4.471a4.109,4.109,0,0,0-.312-1.808,2.265,2.265,0,0,0-2.337-1.393,2.782,2.782,0,0,0-2.393,1.51,3.838,3.838,0,0,0-.252,3.286,2.547,2.547,0,0,0,3.091,1.647,2.611,2.611,0,0,0,1.961-1.768,4.022,4.022,0,0,0,.242-1.472Z" transform="translate(-421.122 -153.696)" fill="#cbcbcb"/>
      <path id="Path_631-3" data-name="Path 631" d="M21.519,633.045c-.123-.011-.179-.1-.248-.168a5.561,5.561,0,0,0-3.2-1.4,8.757,8.757,0,0,0-2.169,0,4.207,4.207,0,0,0-1.421.394,1.818,1.818,0,0,0-1.064,1.8,1.317,1.317,0,0,0,.473.994,2.928,2.928,0,0,0,.757.461,11.118,11.118,0,0,0,1.926.614c.56.134,1.125.25,1.68.4a6.428,6.428,0,0,1,2.092.984A3.781,3.781,0,0,1,22,639.781a5.177,5.177,0,0,1-3.41,5.851,8.922,8.922,0,0,1-3.8.453,7.927,7.927,0,0,1-1.891-.34,4.771,4.771,0,0,1-1.2-.567,2.844,2.844,0,0,1-1.317-2.414c-.01-.461,0-.923,0-1.384,0-.1.084-.147.164-.089.106.079.2.166.309.247a7.043,7.043,0,0,0,5.332,1.468,4.473,4.473,0,0,0,1.246-.3,1.8,1.8,0,0,0,1-.909,2.474,2.474,0,0,0,.114-1.644,1.216,1.216,0,0,0-.5-.66,3.339,3.339,0,0,0-.83-.434,16.038,16.038,0,0,0-2.325-.649,12.349,12.349,0,0,1-1.759-.488,5.944,5.944,0,0,1-1.755-.991,3.7,3.7,0,0,1-1.356-3.29,5.384,5.384,0,0,1,3.538-4.714,6.342,6.342,0,0,1,2.3-.511,10.3,10.3,0,0,1,2.849.208,5.142,5.142,0,0,1,1.466.575,2.884,2.884,0,0,1,1.121,1.154,1.989,1.989,0,0,1,.251.847c.015.576.02,1.153.024,1.729A.265.265,0,0,1,21.519,633.045Z" transform="translate(344.541 -116.998)" fill="#cbcbcb"/>
      <path id="Path_632-3" data-name="Path 632" d="M273.266,677.18h-1.829c-.186,0-.235.064-.2.244a2.827,2.827,0,0,0,.6,1.23,3.616,3.616,0,0,0,2.057,1.189,6.609,6.609,0,0,0,2.017.068,6.719,6.719,0,0,0,1.5-.3,4.68,4.68,0,0,0,1.6-.863c.1-.089.2-.041.2.085a8.7,8.7,0,0,1-.05,1.431,2.435,2.435,0,0,1-1.047,1.665,4.087,4.087,0,0,1-1.592.645,9.387,9.387,0,0,1-3.046.145,6.617,6.617,0,0,1-5.515-4.81,7.542,7.542,0,0,1-.229-2.593,9.2,9.2,0,0,1,.439-2.272,6.289,6.289,0,0,1,2.593-3.385,6.484,6.484,0,0,1,2.783-.936,5.791,5.791,0,0,1,3.04.434,4.94,4.94,0,0,1,3,3.621,4.56,4.56,0,0,1,.06,1.815,2.451,2.451,0,0,1-1.1,1.687,4.528,4.528,0,0,1-1.46.584,12.239,12.239,0,0,1-2.4.293c-.478.014-.955,0-1.431,0Zm-.4-2.377a15.987,15.987,0,0,0,2.109-.1,3.832,3.832,0,0,0,1-.255.922.922,0,0,0,.591-.889,1.794,1.794,0,0,0-1.073-1.789,3.316,3.316,0,0,0-2.219-.179,2.7,2.7,0,0,0-1.833,1.658,3.91,3.91,0,0,0-.262,1.252c-.023.258,0,.3.251.3C271.888,674.807,272.349,674.8,272.865,674.8Z" transform="translate(109.881 -153.674)" fill="#cbcbcb"/>
      <path id="Path_633-3" data-name="Path 633" d="M706.743,677.932v4.053c-.008.373-.014.381-.394.385a5.073,5.073,0,0,1-1.18-.078,2.146,2.146,0,0,1-1.705-1.539,2.732,2.732,0,0,1-.066-.786v-4.994a6.339,6.339,0,0,0-.166-1.52,2.969,2.969,0,0,0-.309-.778,2.072,2.072,0,0,0-1.108-.94,2.973,2.973,0,0,0-1.8-.1,2.107,2.107,0,0,0-1.258.894,3.006,3.006,0,0,0-.478,1.285,7.966,7.966,0,0,0-.075,1.084q.006,3.463,0,6.923c0,.6.039.554-.567.554a4.788,4.788,0,0,1-.984-.064,2.085,2.085,0,0,1-1.768-1.919,5.252,5.252,0,0,1-.025-.543v-5.291a6.648,6.648,0,0,1,.291-2.1,5.239,5.239,0,0,1,3.507-3.543,6.777,6.777,0,0,1,4.04-.1A5.268,5.268,0,0,1,706.583,673a7.759,7.759,0,0,1,.159,1.674C706.748,675.756,706.743,676.844,706.743,677.932Z" transform="translate(-279.069 -153.554)" fill="#cbcbcb"/>
      <path id="Path_634-3" data-name="Path 634" d="M169.864,645.535v-4.105a5.155,5.155,0,0,1,.043-.789,3.709,3.709,0,0,1,1.7-2.5,2.092,2.092,0,0,1,1.431-.254.159.159,0,0,1,.149.167c.006.115.006.231.006.346v2.324a.168.168,0,0,0,.179.19c.132,0,.264.005.4.005h3.759c.321.007.328.012.334.339v.841a1.69,1.69,0,0,1-1.527,1.762,5.517,5.517,0,0,1-.74.046c-.61.006-1.22,0-1.83,0h-.346c-.16.009-.212.056-.222.2-.007.1-.005.2-.005.3v4.7a4.1,4.1,0,0,0,.119,1.127,1.667,1.667,0,0,0,1.589,1.331,5.186,5.186,0,0,0,2.71-.377c.183-.089.246-.047.249.145,0,.358.013.726,0,1.087a2,2,0,0,1-1.263,1.85,3.019,3.019,0,0,1-.951.256,6.992,6.992,0,0,1-2.742-.22,3.966,3.966,0,0,1-2.836-2.959,6.429,6.429,0,0,1-.207-1.663v-4.154Z" transform="translate(198.985 -125.617)" fill="#cbcbcb"/>
      <path id="Path_635-3" data-name="Path 635" d="M526.109,629.247v-6.92c0-.474-.015-.455.461-.453.248,0,.494,0,.741.005a2.481,2.481,0,0,1,.82.163,1.9,1.9,0,0,1,1.252,1.417,3.651,3.651,0,0,1,.084.883v10.774c0,.231,0,.462.015.691a1.351,1.351,0,0,0,1.083,1.306,3.345,3.345,0,0,0,.879.114c.33,0,.659,0,.989.005.11,0,.2.043.2.166a4.414,4.414,0,0,1-.089,1.325,1.521,1.521,0,0,1-.99,1.085,2.767,2.767,0,0,1-.715.162,5.705,5.705,0,0,1-2.2-.228A3.4,3.4,0,0,1,526.227,637a6.144,6.144,0,0,1-.109-1.278Q526.11,632.485,526.109,629.247Z" transform="translate(-125.409 -111.053)" fill="#cbcbcb"/>
      <path id="Path_636-3" data-name="Path 636" d="M426.992,679.991v3.859c0,.447-.005.447-.43.447a5.6,5.6,0,0,1-1.28-.089,1.936,1.936,0,0,1-1.568-1.341,2.609,2.609,0,0,1-.114-.78c0-2.077-.01-4.155.006-6.232a6.061,6.061,0,0,1,.537-2.545,4.314,4.314,0,0,1,3.4-2.56,5.277,5.277,0,0,1,1.967.008,2.686,2.686,0,0,1,.872.334,2,2,0,0,1,1,1.715c.013.329.006.659,0,.989,0,.24-.064.277-.309.2-.11-.034-.217-.078-.327-.113a4.506,4.506,0,0,0-1.954-.172,1.824,1.824,0,0,0-1.551,1.212,2.929,2.929,0,0,0-.216.96c-.016.378-.03.757-.03,1.137C426.989,678.01,426.992,679,426.992,679.991Z" transform="translate(-32.064 -155.476)" fill="#cbcbcb"/>
      <path id="Path_637-3" data-name="Path 637" d="M613.567,680.275v-4.551c0-.439,0-.44.427-.447a5.825,5.825,0,0,1,1.182.071,1.972,1.972,0,0,1,1.645,1.573,4.1,4.1,0,0,1,.1.984q-.006,2.968,0,5.936c0,.214-.005.429.015.642a1.309,1.309,0,0,0,1.138,1.3,5.5,5.5,0,0,0,1.082.07c.441,0,.439,0,.436.435a4.992,4.992,0,0,1-.08,1.082,1.415,1.415,0,0,1-1.137,1.162,3.167,3.167,0,0,1-.635.082,5.412,5.412,0,0,1-1.566-.179,3.27,3.27,0,0,1-2.4-2.391,5.482,5.482,0,0,1-.209-1.563v-4.2Z" transform="translate(-205.045 -159.676)" fill="#cbcbcb"/>
      <path id="Path_638-3" data-name="Path 638" d="M610.257,619.555a1.95,1.95,0,0,1,1.944-1.945,1.964,1.964,0,1,1,.019,3.927,1.949,1.949,0,0,1-1.963-1.982Z" transform="translate(-202.032 -107.17)" fill="#cbcbcb"/>
      <path id="Path_639-3" data-name="Path 639" d="M589.219,870.428a3.277,3.277,0,0,1,.268-.232,1,1,0,0,1,1.61.607,2.351,2.351,0,0,1,.047.342c.005.478,0,.956,0,1.431,0,.1,0,.21-.13.231a.291.291,0,0,1-.3-.139.5.5,0,0,1-.056-.287v-1.088a1.313,1.313,0,0,0-.095-.531.508.508,0,0,0-.561-.312.5.5,0,0,0-.514.379,2.577,2.577,0,0,0-.056.537c-.008.4,0,.791,0,1.188,0,.1.011.208-.106.251a.294.294,0,0,1-.35-.2,1.684,1.684,0,0,1-.032-.342c0-.3,0-.594,0-.894a2.355,2.355,0,0,0-.055-.489.549.549,0,0,0-.58-.435.526.526,0,0,0-.536.424,1.711,1.711,0,0,0-.056.537c0,.412,0,.824-.007,1.237a.164.164,0,0,1-.241.147.367.367,0,0,1-.237-.392c0-.429-.01-.858.006-1.286a1.407,1.407,0,0,1,.112-.478,1.091,1.091,0,0,1,1.4-.586A1.711,1.711,0,0,1,589.219,870.428Z" transform="translate(-181.061 -336.964)" fill="#cbcbcb"/>
      <path id="Path_640-3" data-name="Path 640" d="M707.281,863.625c.024.089.106.114.168.16a.922.922,0,0,1-.046,1.455.983.983,0,0,1-.3.162,2.48,2.48,0,0,1-1.315.024.61.61,0,0,1-.473-.571,2.043,2.043,0,0,1-.009-.247v-2.176c0-.39,0-.393.4-.47a3.52,3.52,0,0,1,1.181-.022.888.888,0,0,1,.817,1,.715.715,0,0,1-.216.484C707.423,863.486,707.315,863.518,707.281,863.625Zm-1.5.715v.246a.912.912,0,0,0,0,.1c.021.2.1.318.284.352a1.609,1.609,0,0,0,.873-.046.542.542,0,0,0,.348-.633.458.458,0,0,0-.415-.471,3.39,3.39,0,0,0-.586-.054c-.527-.006-.506-.024-.5.51Zm.553-.894a4.854,4.854,0,0,0,.536-.056.453.453,0,0,0,.358-.468.47.47,0,0,0-.3-.508,1.52,1.52,0,0,0-.626-.08c-.488.015-.52.046-.519.537-.005.6-.047.558.553.573Z" transform="translate(-288.579 -329.615)" fill="#cbcbcb"/>
      <path id="Path_641-3" data-name="Path 641" d="M317.333,863.783a2.723,2.723,0,0,1-.127.678,1.547,1.547,0,0,1-2.955-.061,2.293,2.293,0,0,1,.034-1.454,1.481,1.481,0,0,1,1.6-1.042,1.463,1.463,0,0,1,1.369,1.149A2.332,2.332,0,0,1,317.333,863.783Zm-2.7-.123a1.838,1.838,0,0,0,.089.631,1.028,1.028,0,0,0,1.057.787,1.011,1.011,0,0,0,1.006-.783,2.139,2.139,0,0,0,0-1.163,1.01,1.01,0,0,0-1.041-.8,1,1,0,0,0-1.028.751A1.58,1.58,0,0,0,314.629,863.659Z" transform="translate(67.596 -329.616)" fill="#cbcbcb"/>
      <path id="Path_642-3" data-name="Path 642" d="M391.7,872.366a.418.418,0,0,1-.246.549,1.329,1.329,0,0,1-1.845-.706,1.649,1.649,0,0,1,.156-1.473,1.177,1.177,0,0,1,1.6-.418.934.934,0,0,1,.475.957.5.5,0,0,1-.3.42,1.378,1.378,0,0,1-.578.118c-.263,0-.527,0-.79.011a.131.131,0,0,0-.116.173.806.806,0,0,0,.76.6A1.664,1.664,0,0,0,391.7,872.366Zm-1.024-.943c.079-.005.277-.008.47-.037a.259.259,0,0,0,.217-.327.459.459,0,0,0-.316-.4.742.742,0,0,0-1.009.507c-.046.172,0,.254.174.261C390.33,871.428,390.443,871.424,390.678,871.424Z" transform="translate(-1.02 -337.139)" fill="#cbcbcb"/>
      <path id="Path_643-3" data-name="Path 643" d="M640.2,872.3a.513.513,0,0,1-.382.631,1.32,1.32,0,0,1-1.811-1.012,1.626,1.626,0,0,1,.212-1.189,1.189,1.189,0,0,1,1.456-.52.975.975,0,0,1,.639.759.6.6,0,0,1-.463.752,2.489,2.489,0,0,1-.389.058c-.2.011-.4,0-.593.01-.11,0-.255-.047-.317.066-.08.148.018.284.113.4a.9.9,0,0,0,.845.3,1.724,1.724,0,0,0,.69-.258Zm-1.7-.933a4.12,4.12,0,0,0,1.073-.005c.256-.032.345-.236.229-.472a.527.527,0,0,0-.324-.281.729.729,0,0,0-.974.759Z" transform="translate(-227.268 -337.107)" fill="#cbcbcb"/>
      <path id="Path_644-3" data-name="Path 644" d="M739.516,870.823a.416.416,0,0,1,.159-.471,1.3,1.3,0,0,1,1.52-.018.769.769,0,0,1,.3.552,13.236,13.236,0,0,1,0,1.332.731.731,0,0,1-.508.668,1.4,1.4,0,0,1-1.059-.007.762.762,0,0,1-.536-.749.785.785,0,0,1,.526-.762,1.882,1.882,0,0,1,.427-.109c.146-.022.3-.02.447-.03.2-.014.263-.1.224-.283a.434.434,0,0,0-.4-.373,1.284,1.284,0,0,0-.815.123C739.7,870.74,739.642,870.83,739.516,870.823Zm1.149.821a.96.96,0,0,0-.611.131.388.388,0,0,0-.057.6.713.713,0,0,0,.734.125c.247-.079.3-.281.3-.506v-.147c-.009-.147-.053-.189-.216-.2C740.763,871.642,740.714,871.644,740.665,871.644Z" transform="translate(-319.615 -337.078)" fill="#cbcbcb"/>
      <path id="Path_645-3" data-name="Path 645" d="M804.957,862c.179-.02.219-.118.284-.187.2-.215.4-.434.605-.649a.626.626,0,0,1,.7-.179c0,.114-.089.148-.141.2-.241.248-.489.488-.724.74-.3.324-.3.268-.012.64a3.822,3.822,0,0,0,.89.914c.069.045.04.169-.039.2a.451.451,0,0,1-.506-.072,4.179,4.179,0,0,1-.374-.392c-.172-.2-.334-.407-.5-.611a.1.1,0,0,0-.124-.042c-.064.022-.054.079-.055.123-.006.3-.005.592-.014.888a.15.15,0,0,1-.216.122.274.274,0,0,1-.2-.2,1.532,1.532,0,0,1-.031-.293V860.2c.005-.1.012-.206.145-.214a.256.256,0,0,1,.275.165.9.9,0,0,1,.036.291v1.086Z" transform="translate(-378.905 -327.87)" fill="#cbcbcb"/>
      <path id="Path_646-3" data-name="Path 646" d="M214.88,871.617a1.572,1.572,0,0,1-.1.6,1.124,1.124,0,0,1-1.008.82,1.209,1.209,0,0,1-1.235-.646,1.681,1.681,0,0,1,.058-1.655,1.122,1.122,0,0,1,1.083-.563,1.15,1.15,0,0,1,1.058.7A1.61,1.61,0,0,1,214.88,871.617Zm-.487.024a1.169,1.169,0,0,0-.139-.639.746.746,0,0,0-1.241-.072,1.29,1.29,0,0,0,.055,1.391.745.745,0,0,0,.7.268.661.661,0,0,0,.558-.491A1.346,1.346,0,0,0,214.393,871.641Z" transform="translate(160.297 -337.15)" fill="#cbcbcb"/>
      <path id="Path_647-3" data-name="Path 647" d="M554.49,871.565a1.72,1.72,0,0,1-.12.662,1.106,1.106,0,0,1-.984.783,1.2,1.2,0,0,1-1.19-.547,1.737,1.737,0,0,1,.075-1.865,1.242,1.242,0,0,1,2.042.19A1.761,1.761,0,0,1,554.49,871.565Zm-.486.062a1.291,1.291,0,0,0-.165-.684.745.745,0,0,0-1.214-.05,1.283,1.283,0,0,0,.039,1.392.722.722,0,0,0,1.265-.2,1.3,1.3,0,0,0,.074-.454Z" transform="translate(-148.948 -337.125)" fill="#cbcbcb"/>
      <path id="Path_648-3" data-name="Path 648" d="M247.651,871.738v-.691c0-.089.019-.17.114-.194a.273.273,0,0,1,.234.047.291.291,0,0,1,.118.207c.012.115.018.229.019.344,0,.263-.005.527,0,.79a2.056,2.056,0,0,0,.063.487.634.634,0,0,0,.812.447.51.51,0,0,0,.377-.358,1.8,1.8,0,0,0,.068-.536v-1.234c0-.082,0-.172.106-.194a.26.26,0,0,1,.233.048.392.392,0,0,1,.107.159.788.788,0,0,1,.038.242v1.185a1.458,1.458,0,0,1-.021.2,1.121,1.121,0,0,1-1.581.9,1.012,1.012,0,0,1-.626-.715,2.752,2.752,0,0,1-.074-.536c-.013-.2,0-.394,0-.592Z" transform="translate(128.161 -337.759)" fill="#cbcbcb"/>
      <path id="Path_649-3" data-name="Path 649" d="M437.134,862.584c-.106,0-.165-.095-.247-.14a1.231,1.231,0,0,0-1.827.792,1.628,1.628,0,0,0,.112,1.061,1.207,1.207,0,0,0,1.487.65,1.729,1.729,0,0,0,.394-.2.089.089,0,0,1,.082,0,.12.12,0,0,1,.027.089.578.578,0,0,1-.283.442,1.007,1.007,0,0,1-.365.144,1.6,1.6,0,0,1-1.671-.707,1.937,1.937,0,0,1-.048-2.065,1.609,1.609,0,0,1,1.724-.8.754.754,0,0,1,.631.491A.242.242,0,0,1,437.134,862.584Z" transform="translate(-42.011 -329.552)" fill="#cbcbcb"/>
      <path id="Path_650-3" data-name="Path 650" d="M773.23,872v.74c0,.1-.006.2-.143.215a.257.257,0,0,1-.285-.148.818.818,0,0,1-.047-.289c-.006-.329,0-.658-.005-.984a2.909,2.909,0,0,0-.042-.491.54.54,0,0,0-.52-.447.6.6,0,0,0-.671.3.99.99,0,0,0-.1.478v1.186a2.012,2.012,0,0,1-.016.3c-.013.073-.078.1-.148.1a.268.268,0,0,1-.268-.179.679.679,0,0,1-.041-.24q-.005-.617,0-1.234a1.213,1.213,0,0,1,1.715-1.065.923.923,0,0,1,.537.774c.037.325.037.656.053.984Z" transform="translate(-348.346 -337.103)" fill="#cbcbcb"/>
      <path id="Path_651-3" data-name="Path 651" d="M469.7,871.8v-.789c0-.109.1-.164.206-.142a.3.3,0,0,1,.25.268,3.192,3.192,0,0,1,.018.393c.006.345,0,.691.018,1.035a.647.647,0,0,0,.472.626.589.589,0,0,0,.776-.407,1.713,1.713,0,0,0,.046-.439c.006-.41,0-.822.005-1.233,0-.095-.013-.206.116-.238a.282.282,0,0,1,.323.163.382.382,0,0,1,.038.141c0,.494.026.984-.008,1.479a1.034,1.034,0,0,1-1.106,1.024,1.063,1.063,0,0,1-1.141-.994,7.714,7.714,0,0,1-.006-.887Z" transform="translate(-74.044 -337.782)" fill="#cbcbcb"/>
      <path id="Path_652-3" data-name="Path 652" d="M359.155,871.927c0,.3.005.593,0,.889,0,.1-.089.131-.179.12a.275.275,0,0,1-.275-.237,1.912,1.912,0,0,1-.017-.3v-.89a3.419,3.419,0,0,0-.009-.345.655.655,0,0,0-.984-.529.55.55,0,0,0-.3.427,3.054,3.054,0,0,0-.025.447V872.7c0,.1,0,.206-.124.235a.282.282,0,0,1-.321-.169.639.639,0,0,1-.034-.192c0-.447-.016-.894,0-1.334a1.162,1.162,0,0,1,1.661-1.039.97.97,0,0,1,.6.894c.024.277,0,.559,0,.839Z" transform="translate(28.687 -337.089)" fill="#cbcbcb"/>
      <path id="Path_653-3" data-name="Path 653" d="M502.252,872.277a2.618,2.618,0,0,0,.6.238.993.993,0,0,0,.581-.039.318.318,0,0,0,.217-.3.292.292,0,0,0-.179-.321c-.167-.065-.342-.114-.513-.168a3.012,3.012,0,0,1-.422-.133.6.6,0,0,1-.315-.787.835.835,0,0,1,.2-.336,1.239,1.239,0,0,1,1.376-.2.853.853,0,0,1,.221.192c.089.1.095.277.03.315-.089.053-.154-.02-.223-.052a1.3,1.3,0,0,0-.723-.1.559.559,0,0,0-.312.138.268.268,0,0,0,.043.447,2.207,2.207,0,0,0,.324.114c.187.061.38.107.562.179a.761.761,0,0,1,.165,1.27,1.356,1.356,0,0,1-1.4.1.581.581,0,0,1-.147-.13.47.47,0,0,1-.083-.179A1.38,1.38,0,0,1,502.252,872.277Z" transform="translate(-103.619 -337.087)" fill="#cbcbcb"/>
      <path id="Path_654-3" data-name="Path 654" d="M181.554,862.358a1.088,1.088,0,0,1-.157.4,8.272,8.272,0,0,1-.737,1.163.911.911,0,0,0-.2.637c.013.3,0,.592,0,.889,0,.1-.01.206-.142.219a.289.289,0,0,1-.318-.179,1.008,1.008,0,0,1-.028-.243c0-.247-.011-.494,0-.74a.852.852,0,0,0-.172-.548,8.147,8.147,0,0,1-.819-1.46,1.05,1.05,0,0,1-.083-.231.108.108,0,0,1,.11-.13.393.393,0,0,1,.413.208c.089.158.154.327.242.485.152.273.311.542.475.8.069.112.15.106.229-.006a8.3,8.3,0,0,0,.637-1.112,3.381,3.381,0,0,1,.156-.307c.063-.1.167-.089.268-.057A.192.192,0,0,1,181.554,862.358Z" transform="translate(190.755 -329.825)" fill="#cbcbcb"/>
      <path id="Path_655-3" data-name="Path 655" d="M532.271,864.834c.108.156-.059.4.134.494a1.328,1.328,0,0,0,.486.034h.148c.1,0,.211,0,.215.14a.243.243,0,0,1-.179.268,2.408,2.408,0,0,1-.34.048c-.081.008-.165,0-.247.011s-.159.055-.16.149c0,.447-.016.889.006,1.331a.419.419,0,0,0,.459.417,2.083,2.083,0,0,0,.244-.024c.14-.013.207.072.171.2a.332.332,0,0,1-.229.237.825.825,0,0,1-1.123-.64,1.318,1.318,0,0,1-.022-.245v-1.777a.752.752,0,0,1,.153-.508C532.059,864.881,532.141,864.8,532.271,864.834Z" transform="translate(-130.619 -332.278)" fill="#cbcbcb"/>
      <path id="Path_656-3" data-name="Path 656" d="M671.544,872.444c0-.214-.01-.427,0-.64a1.4,1.4,0,0,1,.163-.614.857.857,0,0,1,1.016-.4.352.352,0,0,1,.251.378c0,.064-.029.129-.122.109a1.961,1.961,0,0,0-.29-.054.4.4,0,0,0-.491.368,2.8,2.8,0,0,0-.042.489c-.005.411,0,.822,0,1.233,0,.082-.007.168-.1.2a.3.3,0,0,1-.308-.1.483.483,0,0,1-.082-.279v-.69Z" transform="translate(-257.834 -337.67)" fill="#cbcbcb"/>
      <path id="Path_657-3" data-name="Path 657" d="M281.7,872.424v-.64a1.23,1.23,0,0,1,.191-.655.839.839,0,0,1,.944-.363.358.358,0,0,1,.26.207.277.277,0,0,1,.021.238c-.051.1-.139.046-.214.029a1.028,1.028,0,0,0-.146-.028c-.353-.027-.52.1-.559.464-.021.2-.013.394-.014.591,0,.358,0,.722-.009,1.084,0,.128-.1.187-.248.148a.284.284,0,0,1-.226-.286c-.008-.263,0-.526,0-.789Z" transform="translate(97.144 -337.658)" fill="#cbcbcb"/>
      <path id="Path_658-3" data-name="Path 658" d="M509.216,176.355a6.1,6.1,0,1,1,6.1,6.1A6.158,6.158,0,0,1,509.216,176.355Z" transform="translate(-110.026 300.213)" fill="#3b3b3b"/>
    </g>
    <g id="Group_415-2" data-name="Group 415" transform="translate(571.414 105)">
      <path id="Path_659-2" data-name="Path 659" d="M49.873,361.087l.523-2.948H37.683a3.042,3.042,0,0,0-2.865,2.4l-4.909,27.83h0a1.975,1.975,0,0,0,1.983,2.448H45.779l.517-2.943H34.369l2.2-12.495h9.69l.507-2.9H37.083L39.1,361.091Z" transform="translate(342.938 162.589)" fill="#cbcbcb"/>
      <path id="Path_660-2" data-name="Path 660" d="M161.2,428.782c-5.6,0-8.846-5.033-7.4-13.3,1.483-8.409,6.474-13.252,12.174-13.252,3.132,0,4.669,1,5.354,1.709l-1.423,2.424a5.082,5.082,0,0,0-3.586-1.232c-4.657,0-7.207,4.222-8.261,10.208-1.084,6.127.358,10.357,4.5,10.357a7.5,7.5,0,0,0,4.115-1.232l.583,2.609a9.921,9.921,0,0,1-6.051,1.709" transform="translate(237.873 125.109)" fill="#cbcbcb"/>
      <path id="Path_661-2" data-name="Path 661" d="M281.184,404.894c-4.889,0-6.807,5.462-7.724,10.637s-.775,10.352,4.019,10.352c4.9,0,6.718-5.229,7.618-10.357s.977-10.633-3.913-10.633m-4.21,23.887c-6.986,0-9.012-5.748-7.69-13.252,1.349-7.646,5.432-13.3,12.322-13.3,7.028,0,9.024,5.652,7.672,13.3-1.319,7.505-5.367,13.252-12.3,13.252" transform="translate(139.738 125.109)" fill="#cbcbcb"/>
      <path id="Path_662-2" data-name="Path 662" d="M574.051,413.773c-6.6.8-10.691,2.18-11.6,7.361-.655,3.7,1.349,5.223,5.157,5.223a10.3,10.3,0,0,0,4.378-.852Zm-7.207,15.009c-6.646,0-9.225-2.9-8.4-7.552,1.2-6.8,7.91-8.786,15.991-9.6l.274-1.567c.7-3.943-1.477-5.081-4.759-5.081A16.177,16.177,0,0,0,563.5,406.6l-.567-2.472a19.067,19.067,0,0,1,8.172-1.9c4.753,0,8.576,2.043,7.468,8.309l-2.907,16.438a19.963,19.963,0,0,1-8.822,1.8" transform="translate(-106.269 125.109)" fill="#cbcbcb"/>
      <path id="Path_663-2" data-name="Path 663" d="M710.138,428.339l3.24-18.379c.423-2.376-.118-4.985-4.484-4.985a11.727,11.727,0,0,0-5,.9l-3.967,22.465H695.75l4.276-24.27a23.646,23.646,0,0,1,9.672-1.8c7.13,0,8.523,3.943,7.88,7.6l-3.258,18.469Z" transform="translate(-223.113 125.075)" fill="#cbcbcb"/>
      <path id="Path_664-2" data-name="Path 664" d="M161.5,610.64H20.38l.13-.84H161.62Z" transform="translate(351.003 -51.341)" fill="#535353"/>
      <path id="Path_665-2" data-name="Path 665" d="M429.253,351.95c-1.144,6.463-4.009,10.882-9.28,10.882a7.718,7.718,0,0,1-3.5-.619l3.462-19.619a8.66,8.66,0,0,1,4.348-.994c4.843,0,5.956,4.753,4.968,10.345m-3.486-12.817a11.563,11.563,0,0,0-5.432,1.186l2.2-12.483-4.6,2.661-5.861,33.24c1.349,1,3.859,1.8,7.331,1.8,7.6,0,12.609-5.51,14.055-13.729,1.364-7.742-1.8-12.681-7.694-12.681" transform="translate(18.037 188.355)" fill="#cbcbcb"/>
      <path id="Path_666-2" data-name="Path 666" d="M601.017,281.713h-4.366l-11.214,11.869h-.1l2.859-16.175c2.849-16.021-14.448-19.4-32.5-16.642a100.792,100.792,0,0,0-23.109,6.772s14.151-4.947,26.605-5.658c15.723-.9,28.046,1.489,24.448,18.148l-4.813,27.286h4.085l2.33-13.21h.094l7.457,13.21h4.753l-8.333-13.643Z" transform="translate(-84.414 246.103)" fill="#cbcbcb"/>
      <path id="Path_667-2" data-name="Path 667" d="M14.717,665.529l-1.793,10.157h-1.5l1.8-10.16H11l.178-1.006h5.938l-.178,1.006Z" transform="translate(358.977 -97.857)" fill="#cbcbcb"/>
      <path id="Path_668-2" data-name="Path 668" d="M54.491,666.744l1.09-6.2c.16-.9-.084-1.721-1.478-1.721a3.477,3.477,0,0,0-1.78.435L51,666.744H49.57L51.819,654h1.423l-.78,4.448a4.83,4.83,0,0,1,2.1-.535c2.228,0,2.669,1.34,2.454,2.573l-1.1,6.258Z" transform="translate(326.189 -88.914)" fill="#cbcbcb"/>
      <path id="Path_669-2" data-name="Path 669" d="M110.025,680.5c-1.268,0-2.388,1.024-2.775,3.394l4.3-.637c.345-1.982-.28-2.757-1.525-2.757m-2.859,4.157c-.19,1.977.567,2.954,2.138,2.954a4.863,4.863,0,0,0,2.249-.505l.208.94a5.957,5.957,0,0,1-2.751.6c-2.288,0-3.64-1.448-3.091-4.562.529-2.973,2.258-4.51,4.318-4.51,2.1,0,3.121,1.364,2.573,4.283Z" transform="translate(278.392 -110.651)" fill="#cbcbcb"/>
      <path id="Path_670-2" data-name="Path 670" d="M198.821,664.3a3.778,3.778,0,0,0-1.3.208l-.822,4.676.477.048c2.316.232,3.358-.847,3.651-2.466s-.3-2.466-2-2.466m-1.8,5.847-.495-.046-.807,4.631h-1.46l1.889-10.714a6.455,6.455,0,0,1,2.9-.621c2.633,0,3.568,1.418,3.222,3.378-.351,1.984-1.994,3.693-5.234,3.364" transform="translate(203.192 -96.905)" fill="#cbcbcb"/>
      <path id="Path_671-2" data-name="Path 671" d="M252.219,683.533c-2.249.28-3.651.75-3.961,2.514-.226,1.262.465,1.786,1.763,1.786a3.6,3.6,0,0,0,1.5-.291Zm-2.459,5.129c-2.27,0-3.148-1-2.871-2.586.411-2.316,2.7-3,5.462-3.274l.094-.537c.238-1.349-.507-1.733-1.625-1.733a5.458,5.458,0,0,0-2.2.549l-.2-.847a6.6,6.6,0,0,1,2.792-.643c1.625,0,2.929.7,2.549,2.841l-.986,5.616a6.721,6.721,0,0,1-3.013.621" transform="translate(158.495 -110.668)" fill="#cbcbcb"/>
      <path id="Path_672-2" data-name="Path 672" d="M303.786,688.489l1.108-6.283c.15-.81-.04-1.7-1.537-1.7a4,4,0,0,0-1.709.31l-1.349,7.676H298.87l1.465-8.289a7.989,7.989,0,0,1,3.306-.619c2.436,0,2.913,1.349,2.7,2.6l-1.123,6.312Z" transform="translate(114.265 -110.659)" fill="#cbcbcb"/>
      <path id="Path_673-2" data-name="Path 673" d="M389.419,667.214a7.239,7.239,0,0,1-.084-1.349H389.3a9.891,9.891,0,0,1-.577,1.349l-2.078,4.241h3.328Zm1.1,8.472-.463-3.343h-3.831l-1.675,3.343H383.19l5.747-11.166h1.334l1.8,11.166Z" transform="translate(42.587 -97.857)" fill="#cbcbcb"/>
      <path id="Path_674-2" data-name="Path 674" d="M456.757,658.882l-1.382,7.858H453.94l1.387-7.861h-1.012l.16-.888h1.008l.22-1.234A3.131,3.131,0,0,1,459.139,654l-.15.9a1.813,1.813,0,0,0-1.829,1.691l-.244,1.394h1.525l-.15.888Z" transform="translate(-17.556 -88.911)" fill="#cbcbcb"/>
      <path id="Path_675-2" data-name="Path 675" d="M489.068,680.727a2.643,2.643,0,0,0-2.019.162l-1.349,7.646H484.27l1.459-8.279a7.659,7.659,0,0,1,3.871-.619Z" transform="translate(-43.339 -110.703)" fill="#cbcbcb"/>
      <path id="Path_676-2" data-name="Path 676" d="M522.359,660.47a.665.665,0,0,1-.709-.78,1.013,1.013,0,0,1,.982-.8.664.664,0,0,1,.691.8,1.015,1.015,0,0,1-.964.78M519.81,670.9l1.543-8.748h1.43l-1.55,8.745Z" transform="translate(-73.551 -93.073)" fill="#cbcbcb"/>
      <path id="Path_677-2" data-name="Path 677" d="M548.744,688.662c-1.917,0-3.025-1.721-2.525-4.544.5-2.877,2.208-4.528,4.156-4.528a2.422,2.422,0,0,1,1.829.585l-.489.826a1.735,1.735,0,0,0-1.22-.417c-1.6,0-2.466,1.447-2.829,3.49-.363,2.09.124,3.537,1.537,3.537a2.637,2.637,0,0,0,1.411-.417l.2.888a3.457,3.457,0,0,1-2.066.583" transform="translate(-95.898 -110.668)" fill="#cbcbcb"/>
      <path id="Path_678-2" data-name="Path 678" d="M592.255,683.533c-2.249.28-3.651.75-3.961,2.514-.226,1.262.459,1.786,1.757,1.786a3.585,3.585,0,0,0,1.5-.291Zm-2.46,5.129c-2.268,0-3.156-1-2.87-2.586.4-2.316,2.7-3,5.462-3.274l.094-.537c.238-1.349-.507-1.733-1.625-1.733a5.48,5.48,0,0,0-2.2.549l-.2-.847a6.578,6.578,0,0,1,2.793-.643c1.625,0,2.93.7,2.549,2.841l-.988,5.616a6.723,6.723,0,0,1-3.015.621" transform="translate(-130.559 -110.668)" fill="#cbcbcb"/>
      <path id="Path_679-2" data-name="Path 679" d="M643.876,688.489l1.1-6.283c.142-.81-.04-1.7-1.531-1.7a4.014,4.014,0,0,0-1.715.31l-1.349,7.676H638.96l1.459-8.289a8.009,8.009,0,0,1,3.306-.619c2.436,0,2.913,1.349,2.7,2.6l-1.123,6.312Z" transform="translate(-174.837 -110.659)" fill="#cbcbcb"/>
      <path id="Path_680-2" data-name="Path 680" d="M734.722,664.3a4.489,4.489,0,0,0-1.514.243l-.7,3.973h.726c2.306,0,3.217-.709,3.466-2.168.25-1.37-.45-2.048-1.97-2.048m-1.6,4.967h-.75l-.786,4.45a3.521,3.521,0,0,0,1.525.256c1.459,0,2.7-.583,2.989-2.21.3-1.733-.571-2.495-2.983-2.495m-.114,5.664a5.857,5.857,0,0,1-2.936-.619l1.8-10.256a6.858,6.858,0,0,1,3.013-.619c2.453,0,3.555,1.172,3.27,2.793a3.246,3.246,0,0,1-2.627,2.6v.03a2.537,2.537,0,0,1,2.09,2.889c-.4,2.238-2.3,3.18-4.609,3.18" transform="translate(-252.287 -96.939)" fill="#cbcbcb"/>
      <path id="Path_681-2" data-name="Path 681" d="M793.32,683.533c-2.249.28-3.651.75-3.967,2.514-.22,1.262.465,1.786,1.763,1.786a3.625,3.625,0,0,0,1.5-.291Zm-2.46,5.129c-2.274,0-3.156-1-2.876-2.586.417-2.316,2.7-3,5.468-3.274l.089-.537c.238-1.349-.5-1.733-1.619-1.733a5.456,5.456,0,0,0-2.21.549l-.19-.847a6.573,6.573,0,0,1,2.787-.643c1.625,0,2.936.7,2.549,2.841l-.982,5.616a6.723,6.723,0,0,1-3.015.621" transform="translate(-301.477 -110.668)" fill="#cbcbcb"/>
      <path id="Path_682-2" data-name="Path 682" d="M846.083,688.505l1.108-6.283c.138-.81-.04-1.7-1.537-1.7a4.034,4.034,0,0,0-1.715.31l-1.349,7.676h-1.43l1.475-8.286a7.981,7.981,0,0,1,3.3-.619c2.43,0,2.907,1.349,2.7,2.6l-1.126,6.309Z" transform="translate(-346.722 -110.676)" fill="#cbcbcb"/>
      <path id="Path_683-2" data-name="Path 683" d="M901.776,666.744l-2.549-4.508h-.041l-.789,4.508H897L899.249,654h1.394l-1.418,8.052h.03l3.843-4.061h1.483l-4.026,4.1,2.849,4.657Z" transform="translate(-394.191 -88.914)" fill="#cbcbcb"/>
    </g>
  </g>
</svg>
