<svg xmlns="http://www.w3.org/2000/svg" xmlns:xlink="http://www.w3.org/1999/xlink" width="528.645" height="357.542" viewBox="0 0 528.645 357.542">
  <defs>
    <linearGradient id="linear-gradient" x1="0.481" y1="-0.588" x2="0.501" y2="0.605" gradientUnits="objectBoundingBox">
      <stop offset="0" stop-color="#010101" stop-opacity="0"/>
      <stop offset="0.95" stop-color="#010101"/>
    </linearGradient>
    <linearGradient id="linear-gradient-2" x1="0.465" y1="-1.639" x2="0.612" y2="7.488" xlink:href="#linear-gradient"/>
    <linearGradient id="linear-gradient-3" x1="0.49" y1="-0.679" x2="0.522" y2="3.715" xlink:href="#linear-gradient"/>
    <linearGradient id="linear-gradient-4" x1="0.494" y1="-1.035" x2="0.515" y2="4.222" xlink:href="#linear-gradient"/>
    <linearGradient id="linear-gradient-5" x1="0.532" y1="-2.23" x2="0.414" y2="6.861" xlink:href="#linear-gradient"/>
    <linearGradient id="linear-gradient-6" x1="-0.077" y1="0.771" x2="2.435" y2="-0.18" xlink:href="#linear-gradient"/>
    <linearGradient id="linear-gradient-7" x1="0.976" y1="-0.496" x2="-0.744" y2="3.121" xlink:href="#linear-gradient"/>
    <linearGradient id="linear-gradient-8" x1="0.075" y1="1.477" x2="1.546" y2="-1.953" xlink:href="#linear-gradient"/>
    <linearGradient id="linear-gradient-9" x1="0.855" y1="0.5" x2="0.243" y2="0.5" xlink:href="#linear-gradient"/>
    <linearGradient id="linear-gradient-10" x1="1.497" y1="0.457" x2="-5.908" y2="0.772" xlink:href="#linear-gradient"/>
    <linearGradient id="linear-gradient-11" x1="0.428" y1="0.845" x2="1.001" y2="-1.552" xlink:href="#linear-gradient"/>
    <linearGradient id="linear-gradient-12" x1="0" y1="0.5" x2="1" y2="0.5" xlink:href="#linear-gradient"/>
    <linearGradient id="linear-gradient-13" x1="1.465" y1="0.313" x2="-1.731" y2="0.969" xlink:href="#linear-gradient"/>
    <linearGradient id="linear-gradient-14" x1="-0.094" y1="0.176" x2="3.741" y2="2.142" xlink:href="#linear-gradient"/>
    <linearGradient id="linear-gradient-15" x1="-0.001" y1="0.5" x2="1.001" y2="0.5" xlink:href="#linear-gradient"/>
    <linearGradient id="linear-gradient-16" x1="0.741" y1="0.552" x2="-0.756" y2="0.226" xlink:href="#linear-gradient"/>
    <linearGradient id="linear-gradient-17" x1="0.828" y1="-0.45" x2="0.144" y2="1.7" gradientUnits="objectBoundingBox">
      <stop offset="0" stop-color="#e4c5d5"/>
      <stop offset="0.42" stop-color="#e9d3cf"/>
      <stop offset="1" stop-color="#efe8ca"/>
    </linearGradient>
    <linearGradient id="linear-gradient-18" x1="0.308" y1="0.777" x2="1.345" y2="-0.752" xlink:href="#linear-gradient"/>
  </defs>
  <g id="Group_422" data-name="Group 422" transform="translate(-921.526 -488.91)">
    <path id="Path_799" data-name="Path 799" d="M445.691,303.264a36.187,36.187,0,0,1,7.1,2.175c5.923,2.261,11.845,4.657,18.063,5.824s12.89,1.057,18.653-1.573a23.027,23.027,0,0,0,10.825-10.346.885.885,0,0,0,.135-.688.909.909,0,0,0-.541-.43l-14-5.8a65.492,65.492,0,0,0-10.555-3.686,63.7,63.7,0,0,0-14.106-1.094,74.054,74.054,0,0,0-14.745,1.032,25.988,25.988,0,0,0-13.111,6.463,9.167,9.167,0,0,0-2.458,3.809c-1.081,3.834,1.364,4.153,4.35,4.116C438.724,303.031,442.239,302.662,445.691,303.264Z" transform="translate(939.975 449.088)" fill="#606161"/>
    <path id="Path_800" data-name="Path 800" d="M445.691,303.264a36.187,36.187,0,0,1,7.1,2.175c5.923,2.261,11.845,4.657,18.063,5.824s12.89,1.057,18.653-1.573a23.027,23.027,0,0,0,10.825-10.346.885.885,0,0,0,.135-.688.909.909,0,0,0-.541-.43l-14-5.8a65.492,65.492,0,0,0-10.555-3.686,63.7,63.7,0,0,0-14.106-1.094,74.054,74.054,0,0,0-14.745,1.032,25.988,25.988,0,0,0-13.111,6.463,9.167,9.167,0,0,0-2.458,3.809c-1.081,3.834,1.364,4.153,4.35,4.116C438.724,303.031,442.239,302.662,445.691,303.264Z" transform="translate(939.975 449.088)" opacity="0.37" fill="url(#linear-gradient)"/>
    <path id="Path_801" data-name="Path 801" d="M463.438,356.488c-12.189,0-25.042,1.647-34.8,8.958a3.428,3.428,0,0,0-1.229,1.29c-.848,1.929,1.782,3.465,3.834,3.883,9.99,2.027,20.262,2.138,30.449,2.249,6.254.061,46.521.885,43.756-11.378C503.508,352.752,469.606,356.488,463.438,356.488Z" transform="translate(939.186 464.663)" opacity="0.37" fill="url(#linear-gradient-2)"/>
    <path id="Path_802" data-name="Path 802" d="M333.481,360.02c-13.848.872-29.036-.283-40.181,7.987-1.659,1.229-3.293,2.9-3.33,4.915-.061,3.993,5.235,5.382,9.228,5.5,32.267.983,65.038,1.9,96.3-6.144,2.593-.664,5.542-1.733,6.365-4.276.737-2.236-.553-4.62-1.991-6.476C382.484,339.156,356.1,358.607,333.481,360.02Z" transform="translate(907.782 463.551)" opacity="0.37" fill="url(#linear-gradient-3)"/>
    <path id="Path_803" data-name="Path 803" d="M187.933,365.729c-17.424-1.45-35.634-4.178-51.891,2.286-.332,4.6,5.775,6.426,10.371,6.684l73.6,4.153c22.744,1.229,45.857,2.531,68.049-2.642,2.458-.577,5.616-2.371,4.755-4.78a4.288,4.288,0,0,0-1.954-1.978c-14.229-8.749-30.191-5.3-45.612-3.907a331.985,331.985,0,0,1-57.322.184Z" transform="translate(872.566 466.493)" opacity="0.37" fill="url(#linear-gradient-4)"/>
    <path id="Path_804" data-name="Path 804" d="M151.773,353.957c-9.093,3.858-20.889,2.458-30.559,3.17-13.418.958-26.59,4.092-40.033,4.62a8.3,8.3,0,0,1-2.716-.147q-6.82-7.164-13.3-14.635c5.812-2.9,12.681-2.752,19.218-2.457,20.668.885,41.483,2.519,61.917,1.069C153.641,345.147,162.537,349.411,151.773,353.957Z" transform="translate(856.356 462.07)" opacity="0.37" fill="url(#linear-gradient-5)"/>
    <path id="Path_805" data-name="Path 805" d="M167.623,361.7c3.563-1.782,7.643-1.438,11.55-1.069a2.519,2.519,0,0,1,1.622.553,3.379,3.379,0,0,1,.774,1.634q.848,3.072,1.511,6.144a4.006,4.006,0,0,1-.086,2.765,2.691,2.691,0,0,1-1.229.958c-2.74,1.364-5.837,1.438-8.847,1.487l-15.753.27a10.039,10.039,0,0,1-4.534-.639,4.571,4.571,0,0,1-2.642-4.03c0-2.187,1.868-3.686,3.625-4.411a24.023,24.023,0,0,1,7.839-1.425C163.8,363.854,165.546,362.749,167.623,361.7Z" transform="translate(875.76 465.725)" fill="#535353"/>
    <path id="Path_806" data-name="Path 806" d="M175.528,362.524a3.686,3.686,0,0,1-1.032,1.966,4.707,4.707,0,0,1-3.183.737,3.329,3.329,0,0,1-1.7-.332,2.458,2.458,0,0,1-.909-1.069,10.826,10.826,0,0,1-.577-5.849,1.081,1.081,0,0,1,.2-.627.848.848,0,0,1,.467-.233c1.438-.418,4.731-.885,6.021.2S175.848,361.123,175.528,362.524Z" transform="translate(879.871 464.881)" fill="#be7c5e"/>
    <path id="Path_807" data-name="Path 807" d="M246.834,352.233a29.491,29.491,0,0,1,3.367,2.544,3.687,3.687,0,0,1,1.032,1.229,3.207,3.207,0,0,1,.2,1.45,10.371,10.371,0,0,1-2.7,5.787c-1.389,1.659-3.01,3.121-4.3,4.915s-2.212,3.686-3.907,4.915a12.288,12.288,0,0,1-4.313,1.7c-2.924.725-6.144,1.376-8.884.184a1.451,1.451,0,0,1-.6-.405,1.487,1.487,0,0,1-.209-.836,7.028,7.028,0,0,1,2.458-5.431c1.978-1.659,4.841-2.175,6.463-4.19a7.8,7.8,0,0,0,1.45-4.166,6.685,6.685,0,0,1,.75-3.158,7.46,7.46,0,0,1,2.458-1.855,12.287,12.287,0,0,0,2.949-2.8C244.18,350.906,245.679,351.471,246.834,352.233Z" transform="translate(893.264 463.683)" fill="#535353"/>
    <path id="Path_808" data-name="Path 808" d="M239.594,357.622a5.824,5.824,0,0,1-2.458.332,3.756,3.756,0,0,1-.909-.111,3,3,0,0,1-1.61-1.794,14.046,14.046,0,0,1-.983-2.888c-.7-3.109,3.514-6.218,6.267-4.313S243.182,356.086,239.594,357.622Z" transform="translate(894.877 462.963)" fill="#be7c5e"/>
    <path id="Path_809" data-name="Path 809" d="M182.393,314.449a26.959,26.959,0,0,0-3.4,6.807,29.342,29.342,0,0,0-.725,8.5l.5,45.857a8.208,8.208,0,0,1-.909,4.731c-1.708,2.458-7.52,3.686-9.375,1.29s-7-37.182-8.6-56.929c-.479-5.837-.934-11.8.295-17.5,1.61-7.446,28.262-51.362,33.312-50.65s22.4,2.617,24.882,7.471c3.232,6.328-8.233,12.669-12.1,17.35a314.008,314.008,0,0,0-23.875,33.066Z" transform="translate(877.909 441.983)" fill="#606161"/>
    <path id="Path_810" data-name="Path 810" d="M182.393,314.449a26.959,26.959,0,0,0-3.4,6.807,29.342,29.342,0,0,0-.725,8.5l.5,45.857a8.208,8.208,0,0,1-.909,4.731c-1.708,2.458-7.52,3.686-9.375,1.29s-7-37.182-8.6-56.929c-.479-5.837-.934-11.8.295-17.5,1.61-7.446,28.262-51.362,33.312-50.65s22.4,2.617,24.882,7.471c3.232,6.328-8.233,12.669-12.1,17.35a314.008,314.008,0,0,0-23.875,33.066Z" transform="translate(877.909 441.983)" fill="#606060" opacity="0.37"/>
    <path id="Path_811" data-name="Path 811" d="M174.095,213.346a6.919,6.919,0,0,1,3.281,2.7,7.287,7.287,0,0,1,.172,4.829,5.21,5.21,0,0,1-1.315,2.949,4.915,4.915,0,0,1-3.613.86,24.575,24.575,0,0,1-13.357-4.915c-4.915-3.748-8.294-9.216-12.9-13.381-1.389-1.229-3.035-2.752-2.777-4.608a17.67,17.67,0,0,1,1.29-2.986,7.778,7.778,0,0,0-.442-4.669L143.13,190c2.458.836,3.207,4.215,5.48,5.566a2.1,2.1,0,0,0,2.335.061c.774-.627.836-2.052,1.806-2.273,1.389,1.327.135,3.809,1,5.517.332.664.958,1.155,1.229,1.855a5.7,5.7,0,0,1,0,2.371c-.172,3.441,5.566,4.915,8.061,5.874C166.759,210.422,170.544,211.614,174.095,213.346Z" transform="translate(874.19 426.758)" fill="#be7c5e"/>
    <path id="Path_812" data-name="Path 812" d="M232.945,226.4c-5.468,12.411-1.413,26.775-2.458,40.377a1.646,1.646,0,0,1,0,.418,41.787,41.787,0,0,1-.8,5.382c-.774,3.477-2.261,7.188-5.468,8.749a7.765,7.765,0,0,1-4.276.725c-2.458-.184-7.643-5-9.892-6.144-6.611-3.4-10.4-3.944-17.731-5.284-2.285-.418-4.768-.6-6.611-2.052-2.593-2.027-2.937-5.923-2.015-9.13s2.789-6,3.932-9.093a22.362,22.362,0,0,0,1.106-4.325,21.153,21.153,0,0,0,.381-2.826,49.149,49.149,0,0,0-.147-7.827c-.16-1.9-.381-3.821-.577-5.726a74.194,74.194,0,0,1-.455-8.22,7.51,7.51,0,0,1,0-.909,12.793,12.793,0,0,1,1.106-5.05c2.3-4.51,8.061-5.8,13.062-6s9.056-.381,13.713-2.027a17.94,17.94,0,0,1,13.185.307c3.821,1.61,7.029,5.234,7.065,9.363C236.152,220.387,234.248,223.336,232.945,226.4Z" transform="translate(883.364 430.494)" fill="#ff5a1a"/>
    <path id="Path_813" data-name="Path 813" d="M192.178,202.283c.713,2.384,1.647,5.013,3.871,6.144,1.708.836,4.043.688,5.149,2.236.442.6.639,5.419,1.229,5.886a3,3,0,0,0,1.7.479c2.912.209,5.824-4.018,8.675-4.62a3.035,3.035,0,0,0,1.892-.934,3.2,3.2,0,0,0,.467-1.622l1.45-14.745c.319-3.183.578-6.623-1.044-9.375a12.018,12.018,0,0,0-5.271-4.374,15.63,15.63,0,0,0-5.5-1.671c-5.05-.418-10.223,3-10.531,8.171A9.2,9.2,0,0,1,192.141,194C189.9,196.815,191.182,199.015,192.178,202.283Z" transform="translate(885.118 424.391)" fill="#be7c5e"/>
    <path id="Path_814" data-name="Path 814" d="M196.277,178.421a5.173,5.173,0,0,1,5.689-2.064c.406.147.848.344,1.229.135a2.382,2.382,0,0,0,.5-.491,3.232,3.232,0,0,1,3.035-.455,18.714,18.714,0,0,1,10.113,5.321,10.887,10.887,0,0,1,2.458,10.776c-.836,2.224-2.58,4.165-2.716,6.537,0,.971.172,1.954.147,2.924a2.851,2.851,0,0,1-1.229,2.519,2.544,2.544,0,0,1-3.1-.971,7.372,7.372,0,0,1-1.057-3.342,1.118,1.118,0,0,1,.074-.774,1.352,1.352,0,0,1,.676-.406,3.453,3.453,0,0,0,1.511-4.915,1.782,1.782,0,0,0-2.285-.737c-.725.491-.627,1.229-.946,1.843s-1.4.958-1.622.295a1.118,1.118,0,0,1,0-.6,11.858,11.858,0,0,0,.516-3.133,3.048,3.048,0,0,0-1.462-2.654,5.69,5.69,0,0,0-2.187-.356,9.548,9.548,0,0,1-7.459-4.743c-.1-.184-2.457,2.458-3.047,0a6.463,6.463,0,0,1,1.155-4.706Z" transform="translate(886.069 423.408)" fill="#535353"/>
    <path id="Path_815" data-name="Path 815" d="M229.611,261.412a1.643,1.643,0,0,1,0,.418,41.78,41.78,0,0,1-.8,5.382c-.774,3.477-2.261,7.188-5.468,8.749a7.765,7.765,0,0,1-4.276.725,2.568,2.568,0,0,1-1.143-2.212c-.086-2.1,1.327-4.78,1.757-6.844a52.605,52.605,0,0,0,1.106-9.511,58.4,58.4,0,0,0-.676-10.862,2.236,2.236,0,0,0-.307-1c-.491-.725-1.561-.725-2.457-.639a64.436,64.436,0,0,1-27.537-3.9,5.149,5.149,0,0,1-1.954-1.118,1.745,1.745,0,0,1-.578-1.376,1.954,1.954,0,0,1,.958-1.45,1.6,1.6,0,0,1,.418-.258,7.632,7.632,0,0,1,2.3-.307l17.3-.123a11.586,11.586,0,0,0,5.579-.946,25.8,25.8,0,0,0,3.06-2.335c2.863-2.249,6.562-3.17,10.125-3.969a.418.418,0,0,1,.491,0,.405.405,0,0,1,.147.344A180.218,180.218,0,0,1,229.611,261.412Z" transform="translate(884.29 435.855)" opacity="0.37" fill="url(#linear-gradient-6)"/>
    <path id="Path_816" data-name="Path 816" d="M196.423,223.359a3.957,3.957,0,0,0-.774,1.339c-1.229,2.6-2.826,7.717-3.133,6.574a9.253,9.253,0,0,0-.836-2.175c-1.413-2.568-3.686-2.716-5.419-2.949a99.9,99.9,0,0,1-12.423-2.7,11.059,11.059,0,0,1-3.1-1.3A4.669,4.669,0,0,1,169.636,221a6.746,6.746,0,0,1-.725-3.367,38.094,38.094,0,0,1,.418-6.267,2.532,2.532,0,0,1,.541-1.376,2.63,2.63,0,0,1,1.6-.565c7.373-.848,12.46-1.229,33.963-.5C212.655,209.192,200.2,219.808,196.423,223.359Z" transform="translate(880.086 430.999)" fill="#ff5a1a"/>
    <path id="Path_817" data-name="Path 817" d="M196.465,231.028c0,1.29-.233,2.863-1.413,3.391a2.519,2.519,0,0,1-2.912-1.106,1.5,1.5,0,0,1-.221-.418c-.16-1.9-.381-3.821-.577-5.726-1.413-2.568-3.686-2.716-5.419-2.949a99.9,99.9,0,0,1-12.423-2.7,11.06,11.06,0,0,1-3.1-1.3,2.161,2.161,0,0,1,0-.5c.074-1.794,1.155-2.4,2.789-2.593,4.743-.528,10.162.455,14.942.614a9.978,9.978,0,0,1,2.826.307,2.042,2.042,0,0,1,.455.111,7.127,7.127,0,0,1,3.932,4.62,15.173,15.173,0,0,1,.848,3.4A42.182,42.182,0,0,1,196.465,231.028Z" transform="translate(880.426 432.926)" opacity="0.37" fill="url(#linear-gradient-7)"/>
    <path id="Path_818" data-name="Path 818" d="M231,220.948a50.058,50.058,0,0,1-.258,5.259,22.56,22.56,0,0,1-6.451,13.516,18.775,18.775,0,0,1-13.762,5.419,4.375,4.375,0,0,1-1.438-.258,4.005,4.005,0,0,1-1.708-1.733c-1.634-2.814-1.831-6.218-1.991-9.474a7.189,7.189,0,0,1,.16-2.458A7.545,7.545,0,0,1,208.3,228a49.8,49.8,0,0,0,6.709-6.66,40.548,40.548,0,0,1,5.763-6.365c1.855-1.45,5.714-3.33,8.036-1.868S231.032,218.65,231,220.948Z" transform="translate(888.423 431.923)" fill="#ff5a1a"/>
    <path id="Path_819" data-name="Path 819" d="M185.5,229.371a26.7,26.7,0,0,1-5.431-.405,19.218,19.218,0,0,1-4.374-1.585,32.936,32.936,0,0,1-4.78-2.851c-.492.5-.147,1.352.344,1.843s1.143.872,1.376,1.524a.577.577,0,0,1,0,.455c-.123.233-.467.246-.75.209l-10.53-1.106a2.556,2.556,0,0,0,1.72,1.782,7.667,7.667,0,0,1,2.322,1.118c1.143,1.032,1.118,2.777,1.511,4.264a7.8,7.8,0,0,0,4.387,4.915,9.99,9.99,0,0,0,6.709.381c1-.283,1.954-.7,2.961-.946a18.162,18.162,0,0,1,7.446.283c8.306,1.511,16.662,3.195,25.116,3.072,1.929,0,4.018-.221,5.456-1.5,2.814-2.458,3.4-10.2-1.118-11.133-2.949-.6-6.3-.2-9.3-.209l-10.862-.074Z" transform="translate(878.358 434.657)" fill="#be7c5e"/>
    <path id="Path_820" data-name="Path 820" d="M213.927,316.034a11.132,11.132,0,0,0-.258,4.448c.492,2.3,2.347,4.006,4.067,5.6a159.885,159.885,0,0,1,31.727,40.733,5.554,5.554,0,0,1,.946,3.109,5.714,5.714,0,0,1-2.04,3.207l-3.219,3.158a3.17,3.17,0,0,1-2.458,1.229,3.109,3.109,0,0,1-1.376-.786A325.219,325.219,0,0,1,201.8,337.5c-3.072-3.625-6.144-7.434-7.606-11.944a39.554,39.554,0,0,1-1.438-11.354L192.3,298.7c-.258-8.909-.492-17.94,1.561-26.627.577-2.458,1.339-4.841,2.1-7.25.27-.823.565-3.5,1.229-3.993a3.8,3.8,0,0,1,1.954-.455c7.852-.246,23.58,5.149,22.572,15.212C220.452,289.051,216.544,302.752,213.927,316.034Z" transform="translate(885.401 442.855)" fill="#606161"/>
    <path id="Path_821" data-name="Path 821" d="M213.927,316.034a11.132,11.132,0,0,0-.258,4.448c.492,2.3,2.347,4.006,4.067,5.6a159.885,159.885,0,0,1,31.727,40.733,5.554,5.554,0,0,1,.946,3.109,5.714,5.714,0,0,1-2.04,3.207l-3.219,3.158a3.17,3.17,0,0,1-2.458,1.229,3.109,3.109,0,0,1-1.376-.786A325.219,325.219,0,0,1,201.8,337.5c-3.072-3.625-6.144-7.434-7.606-11.944a39.554,39.554,0,0,1-1.438-11.354L192.3,298.7c-.258-8.909-.492-17.94,1.561-26.627.577-2.458,1.339-4.841,2.1-7.25.27-.823.565-3.5,1.229-3.993a3.8,3.8,0,0,1,1.954-.455c7.852-.246,23.58,5.149,22.572,15.212C220.452,289.051,216.544,302.752,213.927,316.034Z" transform="translate(885.401 442.855)" fill="#606060"/>
    <path id="Path_822" data-name="Path 822" d="M211.433,204.27a3.453,3.453,0,0,1,3.183-.442,2.384,2.384,0,0,1,.774,2.789,8.528,8.528,0,0,1-1.733,2.568c-2.937,3.5-5.112,7.962-9.24,9.916-.086,0-.86-4.5-.946-4.915-.27-1.3-1.941-3.305-1.561-4.534s2.765-1.966,3.772-2.458Z" transform="translate(887.624 429.875)" fill="#f4f4f6"/>
    <path id="Path_823" data-name="Path 823" d="M437.332,313.3c1.7,4.436,4.915,8.061,8.159,11.575l29.6,32.538a2.1,2.1,0,0,0,.9.676,1.647,1.647,0,0,0,1.548-.578c1.843-1.929.725-5.1-.553-7.459a183.437,183.437,0,0,0-24.575-35.106,23.605,23.605,0,0,1-4.313-5.923,11.181,11.181,0,0,1-.246-8.245c.811-2.236,2.249-5.062.479-6.672a4.166,4.166,0,0,0-1.954-.836c-3.785-.786-8.675-.467-10.027,3.613C434.874,301.617,435.575,308.769,437.332,313.3Z" transform="translate(941.085 450.305)" fill="#be7c5e"/>
    <path id="Path_824" data-name="Path 824" d="M451.246,317.974a103.772,103.772,0,0,0-2.949,15.47,100.756,100.756,0,0,0,.209,15.409l.922,14.463c.332,5.21,1.118,11.206,5.529,13.983a2.937,2.937,0,0,0,2.286.553c1.585-.455,1.72-2.642,1.425-4.264-.577-3.232-1.536-6.39-1.966-9.646-.9-6.832.541-13.725,1.966-20.471l8.515-40.144c1.3-6.144-6.046-11.513-10.2-5.726C453.261,302.8,452.733,311.928,451.246,317.974Z" transform="translate(943.956 450.807)" fill="#be7c5e"/>
    <path id="Path_825" data-name="Path 825" d="M425.064,293.309a29.11,29.11,0,0,0-2.679,7.434,12.976,12.976,0,0,0,2.531,10.15,10.7,10.7,0,0,0,9.511,3.957c2.458-.32,4.62-1.548,6.893-2.458a27.537,27.537,0,0,1,15.544-1.4c4.288.86,8.306,2.74,12.472,4.079A52.639,52.639,0,0,0,483.8,317.6c5.419.172,11.059-.541,15.728-3.207s8.4-7.545,8.6-12.951c.123-3.527-1.229-6.93-2.458-10.223l-14.34-36.47a36.135,36.135,0,0,0-4.8-9.4c-3.686-4.645-9.461-7.213-15.3-8.171-4.608-.762-11.243-1.462-15.777,0-3.576,1.13-4.915,5.443-6.549,8.491-5.456,10.1-10.641,20.336-15.679,30.719Q429.07,284.781,425.064,293.309Z" transform="translate(938.03 437.356)" fill="#606161"/>
    <path id="Path_826" data-name="Path 826" d="M425.064,293.309a29.11,29.11,0,0,0-2.679,7.434,12.976,12.976,0,0,0,2.531,10.15,10.7,10.7,0,0,0,9.511,3.957c2.458-.32,4.62-1.548,6.893-2.458a27.537,27.537,0,0,1,15.544-1.4c4.288.86,8.306,2.74,12.472,4.079A52.639,52.639,0,0,0,483.8,317.6c5.419.172,11.059-.541,15.728-3.207s8.4-7.545,8.6-12.951c.123-3.527-1.229-6.93-2.458-10.223l-14.34-36.47a36.135,36.135,0,0,0-4.8-9.4c-3.686-4.645-9.461-7.213-15.3-8.171-4.608-.762-11.243-1.462-15.777,0-3.576,1.13-4.915,5.443-6.549,8.491-5.456,10.1-10.641,20.336-15.679,30.719Q429.07,284.781,425.064,293.309Z" transform="translate(938.03 437.356)" fill="#606060"/>
    <path id="Path_827" data-name="Path 827" d="M440.277,184.881a8.036,8.036,0,0,1,4.571-5.972,4.092,4.092,0,0,0,1.769-1.044,5.729,5.729,0,0,0,.578-1.229c.9-2.052,3.133-3.146,5.284-3.748,4.743-1.352,10.469-.86,13.713,2.851a11.735,11.735,0,0,1,2.642,6.5c.27,2.359,0,4.792.578,7.1.934,3.785,3.993,6.758,5,10.53.491,1.843.467,3.785.946,5.628a38.417,38.417,0,0,1,1.376,4.583,11.9,11.9,0,0,1-1.032,5.726,8.847,8.847,0,0,1-2.175,3.6c-2.138,1.88-5.529,1.5-7.987.061s-4.288-3.686-6.353-5.677-4.632-3.686-7.471-3.686c-1.573,0-3.183.639-4.669.111A4.657,4.657,0,0,1,444.369,206a21.035,21.035,0,0,1,.762-5.222,8.121,8.121,0,0,0-.319-5.185C443.017,192.155,439.589,189.218,440.277,184.881Z" transform="translate(942.146 422.686)" fill="#606161"/>
    <path id="Path_828" data-name="Path 828" d="M440.277,184.881a8.036,8.036,0,0,1,4.571-5.972,4.092,4.092,0,0,0,1.769-1.044,5.729,5.729,0,0,0,.578-1.229c.9-2.052,3.133-3.146,5.284-3.748,4.743-1.352,10.469-.86,13.713,2.851a11.735,11.735,0,0,1,2.642,6.5c.27,2.359,0,4.792.578,7.1.934,3.785,3.993,6.758,5,10.53.491,1.843.467,3.785.946,5.628a38.417,38.417,0,0,1,1.376,4.583,11.9,11.9,0,0,1-1.032,5.726,8.847,8.847,0,0,1-2.175,3.6c-2.138,1.88-5.529,1.5-7.987.061s-4.288-3.686-6.353-5.677-4.632-3.686-7.471-3.686c-1.573,0-3.183.639-4.669.111A4.657,4.657,0,0,1,444.369,206a21.035,21.035,0,0,1,.762-5.222,8.121,8.121,0,0,0-.319-5.185C443.017,192.155,439.589,189.218,440.277,184.881Z" transform="translate(942.146 422.686)" fill="#535353" opacity="0.37"/>
    <path id="Path_829" data-name="Path 829" d="M496.666,206.018a7.483,7.483,0,0,1,1.77,1.45c1.7,2.15.676,5.284-.418,7.8a3.1,3.1,0,0,1-4.2,2.249q-8.22-1.3-16.379-3.035l3.121,20.176a24.427,24.427,0,0,1,.381,7.5c-.393,2.458,2.838,7.569.627,8.749-1.769.946-8.392-1.647-10.4-1.659-6.328,0-15.544,2.752-21.872,2.74a4.239,4.239,0,0,1-2.814-.688c-1.573-1.352-.7-6.217-.59-8.282.135-2.937,1.094-5.787-.676-8.134a33.411,33.411,0,0,1-6.279-14.745c-.111-.664-.283-1.45-.909-1.7a6.145,6.145,0,0,0-1.229-.074,2.261,2.261,0,0,1-1.634-1.892,7.188,7.188,0,0,1,2.826-6.893,21.023,21.023,0,0,1,7.078-3.318c8.6-2.814,17.522-7.2,26.652-7.373a44.69,44.69,0,0,1,24.944,7.127Z" transform="translate(940.977 428.791)" fill="#f4f4f6"/>
    <path id="Path_830" data-name="Path 830" d="M452.3,205.043a3.527,3.527,0,0,0,1.13,2.347c.934.688,7.962,1.13,8.024-5.935a42.046,42.046,0,0,0-1.032-7.569c-.442-.885-1.806,1.548-2.777,1.339-1.708-.356-7.25.418-6.5,2.15C452.212,199.981,451.942,203,452.3,205.043Z" transform="translate(944.636 427.603)" fill="#be7c5e"/>
    <path id="Path_831" data-name="Path 831" d="M452.494,201.254a3.207,3.207,0,0,0,1.106,1.229,2.666,2.666,0,0,0,1.45.27,5.652,5.652,0,0,0,4.411-3.121,9.732,9.732,0,0,0,.836-5.542c0,.467-2.15,1.487-2.458,1.659-.971.467-1.978.823-2.961,1.229a12.9,12.9,0,0,0-2.851,1.425C451.081,199.1,451.978,200.381,452.494,201.254Z" transform="translate(944.76 427.694)" opacity="0.37" fill="url(#linear-gradient-8)"/>
    <path id="Path_832" data-name="Path 832" d="M447.029,196.064a10.85,10.85,0,0,0,7.5,6.709,6.143,6.143,0,0,0,2.986-.074,6.561,6.561,0,0,0,2.6-1.659,15.555,15.555,0,0,0,3.981-9.081,16.194,16.194,0,0,0-.344-7.041,8.773,8.773,0,0,0-4.338-5.382,13.8,13.8,0,0,0-7.016-.737,8.929,8.929,0,0,0-2.347.393c-2.458.9-3.686,4.4-3.994,6.758A19.931,19.931,0,0,0,447.029,196.064Z" transform="translate(943.429 424.159)" fill="#be7c5e"/>
    <path id="Path_833" data-name="Path 833" d="M484.225,215.7c0,3.441,1.9,7.127,5.2,8.159a6.353,6.353,0,0,0,6.93-2.384,11.994,11.994,0,0,0,1.573-6.254q.344-6.267.295-12.558c-.061-5.91-.418-11.907-2.335-17.5s-5.579-10.789-10.862-13.516a1.954,1.954,0,0,0-1.094-.295c-1.229.184-1.044,2.1-.442,3.244l2.912,5.566c-1.585.209-3.686,1.155-3.182,2.666.332,1.032,1.646,1.229,2.63,1.733,2.912,1.376,3.355,5.284,3.1,8.491a77.244,77.244,0,0,1-2.347,12.386C485.736,208.864,484.151,212.17,484.225,215.7Z" transform="translate(951.944 422.491)" fill="#be7c5e"/>
    <path id="Path_834" data-name="Path 834" d="M427.854,215.153a19.943,19.943,0,0,0-4.706,3.883,8.429,8.429,0,0,0-2.138,5.591,5.444,5.444,0,0,0,3.158,4.915c2.458.958,5.075-.283,7.373-1.5l10.346-5.554a9.56,9.56,0,0,0,3.858-3.01c1.585-2.556.418-5.935-1.229-8.429a6.686,6.686,0,0,0-1.991-2.113c-2.077-1.229-5.038,1.094-6.967,2a66.812,66.812,0,0,0-7.7,4.215Z" transform="translate(937.759 431.01)" fill="#f4f4f6"/>
    <path id="Path_835" data-name="Path 835" d="M427.066,218.6a140.914,140.914,0,0,1,20.569-2.322A55.6,55.6,0,0,1,464.69,217.7a8.047,8.047,0,0,1,2.605,1.118,1.45,1.45,0,0,1,.737,1.229c-.086.578-.688.9-1.229,1.069-2.458.774-5.112.246-7.655.5a.781.781,0,0,0-.7.332c-.221.467.467.836.639,1.327s-.565,1.229-1.229,1.155a5.714,5.714,0,0,1-1.843-.811c-1.794-.872-3.932-.369-5.849.2q-6.8,1.978-13.43,4.46a15.7,15.7,0,0,1-5.91,1.4,11.992,11.992,0,0,1-5.1-1.61,8.442,8.442,0,0,1-3.5-2.937C420.086,221.462,423.969,219.188,427.066,218.6Z" transform="translate(937.896 432.737)" fill="#be7c5e"/>
    <path id="Path_836" data-name="Path 836" d="M447.416,356.609a5.039,5.039,0,0,0,.283,2.347,2.089,2.089,0,0,0,1.831,1.3,19.771,19.771,0,0,0,4.288,7.3,7.8,7.8,0,0,0,2.961,2.163,3.514,3.514,0,0,0,3.49-.528c1.229-1.155,1.155-3.146.8-4.817a56.375,56.375,0,0,0-4.6-12.128,20.509,20.509,0,0,1,.651,6.291,2.605,2.605,0,0,1-.872,2.175c-1.02.676-2.347-.209-3.158-1.118a19.39,19.39,0,0,1-4.043-6.992,4.3,4.3,0,0,1-.246-2.113A39.458,39.458,0,0,0,447.416,356.609Z" transform="translate(943.792 463.472)" fill="#535353"/>
    <path id="Path_837" data-name="Path 837" d="M467.116,335.971a3.9,3.9,0,0,0,.418,3.035,18.517,18.517,0,0,1,1.229,4.915,2.986,2.986,0,0,1-.6,2.531,3.108,3.108,0,0,0-.614.59,1.548,1.548,0,0,0,0,1.081l1.229,5.972a2.458,2.458,0,0,0,.934,1.794c.983.565,2.15-.393,2.74-1.364a10.409,10.409,0,0,0,1.536-5.874,20.89,20.89,0,0,0-2.8-8.319c.258.541,1.229.369,1.425-.2a1.634,1.634,0,0,0-.467-1.659C471.638,338,467.767,334.583,467.116,335.971Z" transform="translate(948.275 460.076)" fill="#535353"/>
    <path id="Path_838" data-name="Path 838" d="M93.971,336.991c-1.081,3.453-2.458,6.943-2.187,10.555a16.8,16.8,0,0,1,.209,4.694,9.252,9.252,0,0,1-2.544,4.1,64.853,64.853,0,0,1-8,7.25,4.707,4.707,0,0,1-2.261,1.131A1.708,1.708,0,0,1,77.26,363.5a2.63,2.63,0,0,1,.467-1.548,41.558,41.558,0,0,0,3.785-8.478,56.168,56.168,0,0,0,1.7-13.381c.553-12.288,1.106-24.575.7-36.863-.246-7.631-.848-15.261-.295-22.88a3.982,3.982,0,0,1,.492-1.929c1.806-2.691,9.117-3.195,11.661-1.364s2.458,5.542,2.458,8.343c0,11.059.123,22.179-.823,33.177A87.414,87.414,0,0,1,93.971,336.991Z" transform="translate(859.122 446.424)" fill="#be7c5e"/>
    <path id="Path_839" data-name="Path 839" d="M93.189,341.3a69.313,69.313,0,0,1-1.561,10.9,4.608,4.608,0,0,1-1.819-4.313c-2.875.811-4.1,4.252-6.586,5.923a12.288,12.288,0,0,1-6.426,1.45,3.784,3.784,0,0,1-1.659-.172,2.568,2.568,0,0,1-1.229-2.974,7.373,7.373,0,0,1,1.769-3,3.612,3.612,0,0,1,1.7-1.376,4.705,4.705,0,0,1,1.659,0,10.776,10.776,0,0,0,8.048-3.256c1.819-1.708,2.74-4.043,4.387-5.812.872-.934.836-1.475,1.585,0a5.419,5.419,0,0,1,.135,2.63Z" transform="translate(858.331 460.559)" fill="#535353"/>
    <path id="Path_840" data-name="Path 840" d="M124.108,278.5a43.105,43.105,0,0,1,23.26-6.8,6.341,6.341,0,0,0,3.92-.8,10.692,10.692,0,0,0,1.511-1.733c2.593-3.035,7.213-2.961,11.182-2.642,2.458.2,5.284.676,6.328,2.875-2.458,2.458-6.046,3.453-9.351,4.62A65.751,65.751,0,0,0,136.384,289.6c-1.929,1.954-3.686,4.03-5.824,5.824a29.1,29.1,0,0,1-6.992,4.448,6.426,6.426,0,0,1-7.938-1.3,30.166,30.166,0,0,1-11.206-19.464,5.529,5.529,0,0,1,.283-3.256,6.033,6.033,0,0,1,2.249-2.089c2.838-1.843,8.306-5.714,11.944-4.264C120.324,270.079,124.44,278.287,124.108,278.5Z" transform="translate(865.307 444.231)" fill="#be7c5e"/>
    <path id="Path_841" data-name="Path 841" d="M161.95,273.835a7.828,7.828,0,0,0,3.084.43,2.679,2.679,0,0,0,2.335-1.819,3.416,3.416,0,0,0-1.008-2.838,12.067,12.067,0,0,0-9.584-4.313,11.7,11.7,0,0,1-3.342-.061,1.609,1.609,0,0,1-.737-.369,1.782,1.782,0,0,1-.123-2.027,7.887,7.887,0,0,0,.872-1.978.811.811,0,0,0,0-.418.774.774,0,0,0-.6-.418,2.2,2.2,0,0,0-1.843.639,15.57,15.57,0,0,0-1.327,1.511c-1.044,1.229-2.458,1.991-3.539,3.084a4.546,4.546,0,0,0-1.585,4.2,1.228,1.228,0,0,0,.319.565,1.327,1.327,0,0,0,1.069.135c3.195-.455,6.574-1.081,9.732-.135a5.149,5.149,0,0,1,2.961,2.261C159.418,273.392,160.684,273.515,161.95,273.835Z" transform="translate(874.503 442.773)" fill="#535353"/>
    <path id="Path_842" data-name="Path 842" d="M143.669,196.085a16.478,16.478,0,0,1-2.912,4.276c-.295.344-.639.688-.946,1.032-1.88,1.991-4.325,3.981-7.029,3.563-3.9-.614-6.144-5.886-10.088-5.542-1.339.111-2.458.872-3.785,1.106a7.815,7.815,0,0,1-5.615-1.868,21.515,21.515,0,0,0-5.075-3.293,18.875,18.875,0,0,0-6.611-.492c-2.9.074-5.775,0-7.827-2.224-2.789-3.01-3.023-9.928-3.563-13.787a19.254,19.254,0,0,1,0-6.869,11.882,11.882,0,0,1,10.088-8.528,15.261,15.261,0,0,1,12.607,4.915,38.82,38.82,0,0,0,4.239,4.51c2.679,2.027,6.144,2.458,9.437,3.207s6.758,2.335,7.987,5.431a20.015,20.015,0,0,0,1.229,3.441c1.069,1.708,3.293,2.322,5.271,2.63a4.251,4.251,0,0,1,2.064.688,2.973,2.973,0,0,1,.958,1.413,8.38,8.38,0,0,1-.43,6.39Z" transform="translate(862.015 420.674)" fill="#535353"/>
    <path id="Path_843" data-name="Path 843" d="M138.981,197.506c-.295.344-.639.688-.946,1.032-1.88,1.991-4.325,3.981-7.029,3.563-3.9-.614-6.144-5.886-10.088-5.542-1.339.111-2.458.872-3.785,1.106a7.815,7.815,0,0,1-5.615-1.868,21.516,21.516,0,0,0-5.075-3.293,18.874,18.874,0,0,0-6.611-.491,10.594,10.594,0,0,1-1.339-2.175c-1.72-3.858-.725-8.982,2.752-11.428,2.064-1.45,5.419-3.133,7.987-2.212a20.791,20.791,0,0,1,7.79,4.62c2.138,2.371,2.679,5.96,5.075,8.024,2.187,1.868,5.308,2.027,8.1,2.752a17.928,17.928,0,0,1,5.431,2.359,8.478,8.478,0,0,1,3.281,3.367C138.944,197.4,138.981,197.432,138.981,197.506Z" transform="translate(863.79 423.541)" opacity="0.37" fill="url(#linear-gradient-9)"/>
    <path id="Path_844" data-name="Path 844" d="M96.586,197.726a22.609,22.609,0,0,1-7.913,5.615,4.669,4.669,0,0,1-6.34-1.978c-.307-.43-.614-.848-.872-1.229a50,50,0,0,1-4.915-10.506c-1.032-2.789-2.027-5.542-3.06-8.294a3.576,3.576,0,0,1-.344-1.757,3.416,3.416,0,0,1,1.032-1.868,5.133,5.133,0,0,1,.651-.614,15.053,15.053,0,0,1,5.2-3.391c1.487-.614,3.355-.922,4.62.147a6.144,6.144,0,0,1,1.45,2.826c2.064,6.23,6.07,10.7,11.059,14.6C100.518,193.721,99.142,195.085,96.586,197.726Z" transform="translate(858.178 422.902)" fill="#f4f4f6"/>
    <path id="Path_845" data-name="Path 845" d="M81.46,199.369a50,50,0,0,1-4.915-10.506c-1.032-2.789-2.027-5.542-3.06-8.294a3.576,3.576,0,0,1-.344-1.757,3.416,3.416,0,0,1,1.032-1.868,5.137,5.137,0,0,1,.651-.614,13.024,13.024,0,0,1,2.789.922,2.986,2.986,0,0,1,1.941,1.757,3.871,3.871,0,0,1,0,1.757c-.528,4.276,2.335,7.029,3.686,10.776C84.028,193.754,84.028,199.136,81.46,199.369Z" transform="translate(858.178 423.631)" opacity="0.37" fill="url(#linear-gradient-10)"/>
    <path id="Path_846" data-name="Path 846" d="M84.209,175.226a2.851,2.851,0,0,1-.688,1l-1.229,1.3-.233.221a6.55,6.55,0,0,1-1.45,1.118,8.307,8.307,0,0,1-1.647.528,20.532,20.532,0,0,1-4.006.614,9.476,9.476,0,0,1-1.45-.074.6.6,0,0,1-.381-.2.443.443,0,0,1,0-.307,2.187,2.187,0,0,1,.725-1.229c.184-.2.381-.344.6-.541.614-.455,1.118-1.032,1.72-1.487a17.327,17.327,0,0,1,4.178-2.359,7.374,7.374,0,0,1,1.487-.455,2.679,2.679,0,0,1,.946,0,1.659,1.659,0,0,1,1.425,1.868Z" transform="translate(858.169 422.941)" fill="#606161"/>
    <path id="Path_847" data-name="Path 847" d="M136.268,213.742a53.547,53.547,0,0,1-1.941,8.442c-.147.528-1.72,3.551-2.175,3.551-5.468-.455-10.7-4.51-15.089-7.79-1.106-.811-2.568-1.757-3.686-1.155-.111,0-.184.086-.307.16a3.293,3.293,0,0,0-.909,1.229c-.848,1.683-1.683,3.4-2.531,5.087a22,22,0,0,0-2.458,6.611,27.229,27.229,0,0,0,.307,7.065,54.6,54.6,0,0,1,.27,6.144,2.961,2.961,0,0,1-.836,2.458,3.109,3.109,0,0,1-1.3.5c-.614.111-1.229.184-1.831.295a59.347,59.347,0,0,1-14.831.307c-3.686-.381-7.373-1.229-10.039-3.686a6.832,6.832,0,0,1-1.954-3.133,10.9,10.9,0,0,1,0-3.1c.233-2.458.455-4.854.688-7.3.5-5.456.958-11.059-.528-16.343-.848-2.986-2.3-5.812-2.752-8.872a5.7,5.7,0,0,1,.074-2.138,4.915,4.915,0,0,1,1.524-2.015c1.954-1.647,4.4-2.752,5.96-4.78,1.229-1.524,1.843-3.514,3.4-4.657s3.821-1.032,5.812-.848c4.079.43,8.171,1,12.288,1.72.578.123,1.229.2,1.843.27a23.716,23.716,0,0,1,7.52,1.868A23.74,23.74,0,0,1,117.7,197.5c2.716,2.519,5.542,4.915,8.478,7.151s5.886,4.424,8.982,6.451a2.826,2.826,0,0,1,1.229,1.229,2.457,2.457,0,0,1-.123,1.413Z" transform="translate(858.443 426.682)" fill="#f4f4f6"/>
    <path id="Path_848" data-name="Path 848" d="M120.591,204.223c-1.941.688-4.166-.2-6.07-1.032a36.216,36.216,0,0,1-4.4-2.261c-2.1-1.376-3.809-3.244-6.033-4.424-1.561-.848-4.51-.958-5.652-2.458s-.233-2.224,1.229-2.679a23.715,23.715,0,0,1,7.52,1.868A23.739,23.739,0,0,1,112.1,197.1C114.828,199.59,117.678,201.974,120.591,204.223Z" transform="translate(863.848 427.072)" opacity="0.37" fill="url(#linear-gradient-11)"/>
    <path id="Path_849" data-name="Path 849" d="M120.6,218.26c0,.467-.16,1,.283,1.143s.848-.221,1.143-.565.455-.541.676-.811a3.5,3.5,0,0,0,.639-1.094,3.44,3.44,0,0,0,.061-1.327,3.93,3.93,0,0,0-.172-1.008,1.29,1.29,0,0,0-.664-.75C120.169,212.841,120.55,217.129,120.6,218.26Z" transform="translate(869.024 432.179)" fill="#606161"/>
    <path id="Path_850" data-name="Path 850" d="M104.564,194.1a1.548,1.548,0,0,1-.074.75,1.438,1.438,0,0,1-.713.565,34.752,34.752,0,0,0-5.923,2.777c-1.745,1.229-3.109,3.158-5.173,3.76a3.539,3.539,0,0,1-.516-2.752A20.4,20.4,0,0,1,93,196.432a24,24,0,0,0,.786-7.84,9.72,9.72,0,0,1,.319-3.625,3.035,3.035,0,0,1,2.679-2.138c1.352,0,2.322,1.229,3.318,2.138,1.229,1.118,3.355,1.425,3.871,2.838C104.626,189.514,104.38,192.169,104.564,194.1Z" transform="translate(862.512 425.118)" fill="#be7c5e"/>
    <path id="Path_851" data-name="Path 851" d="M108.012,188.9a7.741,7.741,0,0,1-3.133,4.19,6.144,6.144,0,0,1-5.382,0,10.531,10.531,0,0,1-4.915-4.915,17.338,17.338,0,0,1-1.683-6.857,13.2,13.2,0,0,1,.332-4.165,9.29,9.29,0,0,1,6.992-6.512,14.4,14.4,0,0,1,3.563-.172,7.263,7.263,0,0,1,1.991.332,6.291,6.291,0,0,1,2.04,1.352,7.373,7.373,0,0,1,1.757,2.286,13.147,13.147,0,0,1,.491,6.34A36.163,36.163,0,0,1,108.012,188.9Z" transform="translate(862.689 422.28)" fill="#be7c5e"/>
    <path id="Path_852" data-name="Path 852" d="M146.818,201.792c-1.02-3.686,1.057-7.594.541-11.378-.111-.8-.184-1.88.59-2.138a1.364,1.364,0,0,1,1.29.43,4.546,4.546,0,0,1,1.425,3.944c1.094-.332,2.187-.639,3.293-.922a1.978,1.978,0,0,1,1.069-.061c.614.2.86.909,1.032,1.536.848,3.109,1.659,6.574.135,9.412a12.178,12.178,0,0,1-2.556,3,125.342,125.342,0,0,1-12.091,9.978,43.487,43.487,0,0,1-9.683,5.652,19.23,19.23,0,0,1-11.059,1.155c-1.044-.246,1.61-6.6,1.966-7.164,1.6-2.544,4.067-3.367,6.672-4.682Z" transform="translate(869.028 426.357)" fill="#be7c5e"/>
    <path id="Path_853" data-name="Path 853" d="M83.7,184.432l-.233.221a6.553,6.553,0,0,1-1.45,1.118,8.309,8.309,0,0,1-1.647.528,20.539,20.539,0,0,1-4.006.614,18.055,18.055,0,0,1-1.106-1.794c-.958-1.61-1.72-3.244-2.187-4.129a29.723,29.723,0,0,1-2.052-7.065,123.636,123.636,0,0,1-2.568-15.359,10.69,10.69,0,0,0-.8-4.006,8.921,8.921,0,0,1-.762-1.536,3.686,3.686,0,0,1-.16-1.72,7.287,7.287,0,0,1,3.06-5.222A11.648,11.648,0,0,0,71.2,145c.541-.6.848-1.561,1.647-1.831a1.757,1.757,0,0,1,1.831.651,4.8,4.8,0,0,1,.836,1.917c.344,1.229.688,2.4,1.032,3.625a5.185,5.185,0,0,1,3.4-2.458c-1.757,3.318-3.551,6.918-3.318,10.69a21.749,21.749,0,0,0,1.72,6.144c.836,2.138,1.6,4.276,2.4,6.451a67.223,67.223,0,0,1,2.6,10.014A33.369,33.369,0,0,1,83.7,184.432Z" transform="translate(856.703 416.033)" fill="#be7c5e"/>
    <path id="Path_854" data-name="Path 854" d="M134.131,271.011a3.686,3.686,0,0,1-1.229,2.826c-2.027,2.285-4.006,4.583-6,6.869a29.42,29.42,0,0,1-4.092,4.2,11.73,11.73,0,0,1-1.6,1.229,23.554,23.554,0,0,1-7.532,2.556A133.194,133.194,0,0,1,73,290.9a77.313,77.313,0,0,0,3.367-15.335,91.852,91.852,0,0,0-.725-15.47q-.983-10.727-.958-21.5c0-3.219.2-6.734,2.372-9.056,7.373,4.387,17.338,1.413,24.747,5.652.393.221.811.491,1.229.725a5.837,5.837,0,0,0,2.666.958c2.224,0,2.261-2.027,4.743-1.376,1.9.528,3.785,2.63,4.915,4.2a43.572,43.572,0,0,1,4.092,8.061,85.4,85.4,0,0,0,13.713,21.5,3.92,3.92,0,0,1,.971,1.745Z" transform="translate(858.147 435.803)" fill="#ff5a1a"/>
    <path id="Path_855" data-name="Path 855" d="M334.841,327.076a1.389,1.389,0,0,0-.1.737,1.511,1.511,0,0,0,.614.749,11.894,11.894,0,0,0,3.047,1.831,3.945,3.945,0,0,0,3.428-.27,5.654,5.654,0,0,0,1.585-1.892l7.618-12.349c-.516-1.352-2.3-1.6-3.748-1.622a15.864,15.864,0,0,0-4.915,1.094c-1.094.295-2.212-.381-3.1.332-1.143.922-1.819,4.264-2.335,5.628Q335.8,324.176,334.841,327.076Z" transform="translate(918.021 455.184)" fill="#be7c5e"/>
    <path id="Path_856" data-name="Path 856" d="M319.644,281.087c6.279,4.522,13.873,6.734,21.307,8.859l15.8,4.534a139.123,139.123,0,0,0-14.745,37.809l11.526,1.45a3.429,3.429,0,0,0,2.052-.172,3.331,3.331,0,0,0,1.118-1.229l21.27-32.452c2.015-3.06,4.116-6.525,3.49-10.15-.713-4.1-4.62-6.758-8.2-8.921L348.188,265.6c-6.144-3.686-12.361-7.459-19.341-8.982-5.161-1.13-17.756-1.3-19.722,5.173C307.036,268.652,314.741,277.561,319.644,281.087Z" transform="translate(912.083 441.86)" fill="#606161"/>
    <path id="Path_857" data-name="Path 857" d="M319.644,281.087c6.279,4.522,13.873,6.734,21.307,8.859l15.8,4.534a139.123,139.123,0,0,0-14.745,37.809l11.526,1.45a3.429,3.429,0,0,0,2.052-.172,3.331,3.331,0,0,0,1.118-1.229l21.27-32.452c2.015-3.06,4.116-6.525,3.49-10.15-.713-4.1-4.62-6.758-8.2-8.921L348.188,265.6c-6.144-3.686-12.361-7.459-19.341-8.982-5.161-1.13-17.756-1.3-19.722,5.173C307.036,268.652,314.741,277.561,319.644,281.087Z" transform="translate(912.083 441.86)" fill="#606060" opacity="0.37"/>
    <path id="Path_858" data-name="Path 858" d="M297.857,276.3c-.283,33.041-.418,66.943,11.059,97.932a4.546,4.546,0,0,0,1.229,2.04,3.146,3.146,0,0,0,2.335.59,6.611,6.611,0,0,0,5.05-4.178,19.478,19.478,0,0,0,1.229-6.734c1.044-18.567,1.917-37.195.762-55.749a35,35,0,0,1,0-6.807c.516-3.809,2.359-7.287,4.1-10.715,4.571-8.995,8.7-18.431,9.83-28.458a12.5,12.5,0,0,0-.823-7.176,9.634,9.634,0,0,0-6.328-4.51,28.754,28.754,0,0,0-7.962-.442c-6.783.246-12.017,0-17.362,4.632C296.211,260.715,297.906,270.692,297.857,276.3Z" transform="translate(909.528 440.939)" fill="#606161"/>
    <path id="Path_859" data-name="Path 859" d="M317.62,276.42c6.279,4.522,13.873,6.734,21.307,8.859l15.8,4.534" transform="translate(914.107 446.528)" opacity="0.37" fill="url(#linear-gradient-12)"/>
    <path id="Path_860" data-name="Path 860" d="M297.857,276.3c-.283,33.041-.418,66.943,11.059,97.932a4.546,4.546,0,0,0,1.229,2.04,3.146,3.146,0,0,0,2.335.59,6.611,6.611,0,0,0,5.05-4.178,19.478,19.478,0,0,0,1.229-6.734c1.044-18.567,1.917-37.195.762-55.749a35,35,0,0,1,0-6.807c.516-3.809,2.359-7.287,4.1-10.715,4.571-8.995,8.7-18.431,9.83-28.458a12.5,12.5,0,0,0-.823-7.176,9.634,9.634,0,0,0-6.328-4.51,28.754,28.754,0,0,0-7.962-.442c-6.783.246-12.017,0-17.362,4.632C296.211,260.715,297.906,270.692,297.857,276.3Z" transform="translate(909.528 440.939)" fill="#606060"/>
    <path id="Path_861" data-name="Path 861" d="M330.111,200.015c11.821-1.352,28.262-6.426,33.484-11.182a9.142,9.142,0,0,1,2.789-2.077c2.7-1,5.357,1.229,7.95,2.458a11.907,11.907,0,0,0,10.469-.135c2.175,3.355.111,7.889-2.666,10.776-8.184,8.6-21.061,10.174-31.628,15.507a47.763,47.763,0,0,0-11.4,8.048c-.8.762-2.777,3.539-4.166,2.359-.823-.688.1-4.362.233-5.284C336.316,212.757,322.062,200.924,330.111,200.015Z" transform="translate(916.398 425.959)" fill="#ff5a1a"/>
    <path id="Path_862" data-name="Path 862" d="M316.515,227.45a3.134,3.134,0,0,1-.958,0c-3.588-.295-7.065-5-10.346-6.451-.307-.147-.614-.27-.958-.455-7.79-3.785-16.613-12.8-22.732-18.53a9.756,9.756,0,0,1,3.785-2.556c.651-.344,1.3-.651,1.9-1a11.648,11.648,0,0,0,4.977-6.144c5.873,3.785,15.089,4.915,22.609,6.918a34.062,34.062,0,0,1,4.78,1.524c1.671.688-1.229,4.743.258,5.886C325.6,211.108,322.192,226.615,316.515,227.45Z" transform="translate(905.849 427.289)" fill="#ff5a1a"/>
    <path id="Path_863" data-name="Path 863" d="M377.222,208.873a11.808,11.808,0,0,0,1.892-7c.135-9.609-4.178-18.677-8.786-27.107-2.384-4.374-4.915-8.724-6.279-13.516-1.45-4.915-1.659-10.371-4.116-14.929-1.229-2.3-3.858-4.5-6.217-3.391-2.027.958-2.372,3.686-2.273,5.91s.233,4.829-1.425,6.328c-.32.295-.7.553-.811.958-.221.811.7,1.4,1.438,1.794,4.448,2.31,7.053,7.176,8.11,12.066s.786,9.965.958,14.966a43.981,43.981,0,0,0,2.642,14.745C364.234,204.326,371.631,216.319,377.222,208.873Z" transform="translate(921.325 415.922)" fill="#be7c5e"/>
    <path id="Path_864" data-name="Path 864" d="M340.014,325.309a13.134,13.134,0,0,0-2.6-1.5,2.2,2.2,0,0,0-2.642.811,3.047,3.047,0,0,0-.16,1.561,4.341,4.341,0,0,0,.172.983,3.355,3.355,0,0,0,1.7,1.647,21.714,21.714,0,0,0,2.666,1.094,1.855,1.855,0,0,0,2.359-.467c.528-.479,2.2-1.991,1.806-2.863-.172-.381-1.094-.381-1.462-.491a8.27,8.27,0,0,1-1.831-.774Z" transform="translate(917.984 457.332)" fill="#cbcbcb"/>
    <path id="Path_865" data-name="Path 865" d="M348.044,335.83c-1.081-1.561-1.917-3.269-3.023-4.817a9.056,9.056,0,0,0-4.325-3.563c-1.29-.442-2.716-.43-3.969-.958a4.166,4.166,0,0,0-1.438-.492c-1.008,0-1.733.909-2.285,1.757-1.106,1.708-2.261,3.686-1.794,5.652a6.623,6.623,0,0,0,1.634,2.765c1.806,2.04,4.2,3.883,6.93,3.846-.135,1.229,1.229,2.15,2.371,2.716l4.079,1.954a7.3,7.3,0,0,0,2.273.811,3.92,3.92,0,0,0,3.33-1.229C354.974,340.831,349.813,338.349,348.044,335.83Z" transform="translate(917.192 457.87)" fill="#535353"/>
    <path id="Path_866" data-name="Path 866" d="M308.223,359.953a.946.946,0,0,0,.172.614.983.983,0,0,0,.491.283,14.141,14.141,0,0,0,4.915.737,2.9,2.9,0,0,0,1.413-.295,2.949,2.949,0,0,0,1.229-1.991,24.575,24.575,0,0,0,.295-7.373,3.588,3.588,0,0,0-1.229-3.047,3.035,3.035,0,0,0-2.322-.086c-1.7.455-4.3,1.659-5.05,3.391C307.24,354.19,308.063,357.827,308.223,359.953Z" transform="translate(911.843 463.041)" fill="#be7c5e"/>
    <path id="Path_867" data-name="Path 867" d="M308.339,357.228a1.094,1.094,0,0,0-.651.258.9.9,0,0,0-.209.467,5.849,5.849,0,0,0,.922,4.718.824.824,0,0,0,.381.332.812.812,0,0,0,.344,0q4.043-.442,8.012-1.229a3.808,3.808,0,0,0,2.224-1.02,2.666,2.666,0,0,0,.246-2.752c-1.081-2.458-2.335-2.1-4.657-1.745Z" transform="translate(911.752 464.734)" fill="#cbcbcb"/>
    <path id="Path_868" data-name="Path 868" d="M320.907,358.875a11.059,11.059,0,0,0-5.517-.455l-5.259.479a4.918,4.918,0,0,0-1.683.356,5.258,5.258,0,0,0-1.585,1.413,36.6,36.6,0,0,1-6.844,6.082,7.141,7.141,0,0,0-1.88,1.6,2.15,2.15,0,0,0-.246,2.31,2.974,2.974,0,0,0,2.593,1.032,25.239,25.239,0,0,0,15.974-5.21A1.609,1.609,0,0,1,317.5,366a2.15,2.15,0,0,1,.885.442,3.269,3.269,0,0,0,3.441,0C324.5,364.711,323.61,360.091,320.907,358.875Z" transform="translate(909.542 465.25)" fill="#535353"/>
    <path id="Path_869" data-name="Path 869" d="M352,235.718c-2.458,13.516-3.932,27.7-11.993,39.578a10.1,10.1,0,0,1-3.686,3.551,13.309,13.309,0,0,1-4.657.909c-6.34.467-12.988.885-19.132-.184-.885-.16-1.72-.344-2.568-.577a25.811,25.811,0,0,1-5.271-1.941,15.976,15.976,0,0,1-3.1-2.027,9.106,9.106,0,0,1-1.757-1.954,12.645,12.645,0,0,1-1.413-6.3c-.565-15.777.578-31.518,1.954-47.209.2-1.794.344-3.551.491-5.308a37.63,37.63,0,0,1,1.069-6.648,12.668,12.668,0,0,1,5.321-7.79,14.2,14.2,0,0,1,3.686-1.573,35.129,35.129,0,0,1,6.684-1.069c4.583-.381,9.167-.578,13.787-.541,12.079,0,20.828,10.162,22.241,19.906C354.57,222.889,353.12,229.34,352,235.718Z" transform="translate(909.683 428.274)" fill="#ff5a1a"/>
    <path id="Path_870" data-name="Path 870" d="M316.93,280.138c-1.032-.491-2.1-.983-3.133-1.487-2.789-1.339-5.579-2.679-8.368-3.969a9.107,9.107,0,0,1-1.757-1.954,12.644,12.644,0,0,1-1.413-6.3c-.565-15.777.577-31.518,1.954-47.209-7.79-3.785-16.613-12.8-22.732-18.53a9.756,9.756,0,0,1,3.785-2.556c2.457.6,4.915,2.138,7.139,3.133,4.473,1.941,9.019,3.686,13.369,6,1.155.6,2.335,1.229,3.477,1.941a12.816,12.816,0,0,1,5.013,4.546,13.982,13.982,0,0,1,1.229,5.579c.111,2.261.111,4.546.074,6.8a49.381,49.381,0,0,1-.344,5.431c-.8,8.294-2.826,16.392-3.391,24.674-.577,7.95.344,16.318,4.583,23A5.7,5.7,0,0,0,316.93,280.138Z" transform="translate(905.84 428.618)" opacity="0.37" fill="url(#linear-gradient-13)"/>
    <path id="Path_871" data-name="Path 871" d="M320.945,207.968a5.517,5.517,0,0,0,6.033-.909c1.462-1.475,1.745-3.686,1.769-5.812a40.527,40.527,0,0,0-.319-5.849,6.621,6.621,0,0,0-.6-2.286c-1.118-2.126-3.944-2.617-6.353-2.458-3.907.221-8.454,2.458-6.734,6.844C316.19,201.247,316.767,206.138,320.945,207.968Z" transform="translate(913.363 426.902)" fill="#be7c5e"/>
    <path id="Path_872" data-name="Path 872" d="M333.67,196.623a7.1,7.1,0,0,1-3.281,4.018,7.717,7.717,0,0,1-3.588.5,25.212,25.212,0,0,1-6.6-1.229,12.46,12.46,0,0,1-4.915-2.7,15.618,15.618,0,0,1-2.961-4.411c-2.261-4.559-4.129-9.83-2.58-14.647a11.489,11.489,0,0,1,8.6-7.631C331.421,167.968,337.565,186.9,333.67,196.623Z" transform="translate(912.176 422.249)" fill="#be7c5e"/>
    <path id="Path_873" data-name="Path 873" d="M315.88,166.706a8.933,8.933,0,0,0-5.787,5.222c-.6,1.487-.885,3.183-2.015,4.325a14.751,14.751,0,0,1-2.064,1.487,7.581,7.581,0,0,0-2.814,7.827,9.315,9.315,0,0,1,.479,2.126,11.61,11.61,0,0,1-.59,2.691,5.689,5.689,0,0,0,5.579,6.525,4.08,4.08,0,0,1,2.458.209c.627.43.9,1.327,1.61,1.585,1.118.405,1.978-.983,2.359-2.1a14.44,14.44,0,0,0,1.057-6.279,28.413,28.413,0,0,0-1.229-4.313,14.425,14.425,0,0,1-.565-5.222,4.067,4.067,0,0,1,.614-2.089c1-1.376,3.146-1.352,4.35-2.556.872-.872,1.315-2.458,2.544-2.458.737-.061,1.376.479,2.04.836a4.1,4.1,0,0,0,3.981-.16,22.12,22.12,0,0,0,3.5,2.458c.6.332.234-4.129.061-4.51a5.468,5.468,0,0,0-4.018-3.035C323.891,168.119,319.763,165.674,315.88,166.706Z" transform="translate(910.76 421.373)" fill="#535353"/>
    <path id="Path_874" data-name="Path 874" d="M280.684,207.664a16.576,16.576,0,0,1-1.659-9.633c.639-8.786,4.19-17.068,7.962-25.03,1.45-3.084,2.986-6.34,2.654-9.72a4.079,4.079,0,0,1,.111-2.249,4.668,4.668,0,0,1,1-1.094c1.462-1.413,2.1-3.441,3.182-5.161a7.668,7.668,0,0,1,4.166-3.428,4.657,4.657,0,0,1,4.976,1.475,5.838,5.838,0,0,1,.946,3.072c.221,3.907-1.511,7.667-3.686,10.936a18.927,18.927,0,0,0-1.7,2.826,15.74,15.74,0,0,0-.86,2.9c-1.462,6.4-2.924,12.841-3.072,19.4-.086,3.5.209,7,0,10.494a23.885,23.885,0,0,1-1.13,6.377c-.7,2.1-1.229,3.76-3.588,3.834A10.617,10.617,0,0,1,280.684,207.664Z" transform="translate(905.247 417.868)" fill="#be7c5e"/>
    <path id="Path_875" data-name="Path 875" d="M198.08,209.4c-.958,2.458-1.843,4.817-2.63,7.274,2.163-1.585,3.8-4.067,6.365-4.8a.516.516,0,0,0,.27-.135.552.552,0,0,0,0-.283,4.915,4.915,0,0,0-.528-2.089,7.79,7.79,0,0,1-.86-1.831c-.086-.467.209-.958-.307-.922s-.958.811-1.229,1.044A4.338,4.338,0,0,0,198.08,209.4Z" transform="translate(886.159 430.558)" fill="#f4f4f6"/>
    <path id="Path_876" data-name="Path 876" d="M208.81,223.406a2.777,2.777,0,0,0-1.929.418,1.376,1.376,0,0,0-.418,1.782,3.92,3.92,0,0,0-2.986,2.789,1.389,1.389,0,0,0,.172,1.3,1.634,1.634,0,0,0,.467.283c1.057.479,2.2.713,3.293,1.106a5.05,5.05,0,0,1,2.74,2,4.583,4.583,0,0,1-.184,4.325,27.424,27.424,0,0,1-2.63,3.686c-.43.578-.836,1.364-.491,1.991a1.684,1.684,0,0,0,1.044.7,5.247,5.247,0,0,0,4.055-.406,1.314,1.314,0,0,1,.455-.184,1.437,1.437,0,0,1,.676.2,3,3,0,0,0,3.477-1.376,7.828,7.828,0,0,0,.971-3.9,31.368,31.368,0,0,0-.16-6.353,8.6,8.6,0,0,0-.7-2.6c-.75-1.511-2.236-2.04-3.244-3.256A6.648,6.648,0,0,0,208.81,223.406Z" transform="translate(887.975 434.393)" fill="#f4f4f6"/>
    <path id="Path_877" data-name="Path 877" d="M172.927,208.112a2,2,0,0,0-1.966,1.008c-.123-.651-1.118-.774-1.622-.344a2.875,2.875,0,0,0-.737,1.806,39.036,39.036,0,0,0-.528,10.211,3.686,3.686,0,0,0,1.044,2.458c.713.59,2.077.381,2.249-.528a2.839,2.839,0,0,0,1.389,1.229.861.861,0,0,0,.492.074.787.787,0,0,0,.43-.258,4.915,4.915,0,0,0,1.339-3.5,23.949,23.949,0,0,0-.442-3.846,25.265,25.265,0,0,1-.209-5.615C174.463,209.575,174.561,208.321,172.927,208.112Z" transform="translate(879.868 430.899)" fill="#f4f4f6"/>
    <path id="Path_878" data-name="Path 878" d="M102.037,175.649a9.56,9.56,0,0,0,4.694,2.04c1.708.332,3.453.455,5.136.9.332.086.786.123.922-.184a.614.614,0,0,0,0-.442,6.144,6.144,0,0,0-.614-1.327,20.411,20.411,0,0,0-4.116-5.407,9.732,9.732,0,0,0-6.144-2.6c-1.229,0-5.124.59-4.387,2.654.295.836,1.536,1.118,2.163,1.708C100.587,173.805,101.164,174.85,102.037,175.649Z" transform="translate(863.737 421.867)" fill="#606161"/>
    <path id="Path_879" data-name="Path 879" d="M108.729,212.418c-.111,0-.184.086-.307.16a3.293,3.293,0,0,0-.909,1.229c-.848,1.683-1.683,3.4-2.531,5.087a22,22,0,0,0-2.458,6.611,27.229,27.229,0,0,0,.307,7.065,54.6,54.6,0,0,1,.27,6.144,2.961,2.961,0,0,1-.836,2.457,3.109,3.109,0,0,1-1.3.5c-.614.111-1.229.184-1.831.295A13.517,13.517,0,0,1,96.6,240.9a2.458,2.458,0,0,1-1.02-.872,3.1,3.1,0,0,1-.086-1.868c.5-3.514-1-7.029-1.143-10.592-.233-5.382,2.556-10.42,5.271-15.089a9.522,9.522,0,0,1,1.954-2.63c1.6-1.339,5.112-1.61,6.525.27a3.8,3.8,0,0,1,.627,2.3Z" transform="translate(863.029 431.054)" opacity="0.37" fill="url(#linear-gradient-14)"/>
    <path id="Path_880" data-name="Path 880" d="M128.54,269.921a3.687,3.687,0,0,1-1.229,2.826c-2.027,2.285-4.006,4.583-6,6.869a29.418,29.418,0,0,1-4.092,4.2,31.456,31.456,0,0,1,.418-4.08c.578-6.648-4.2-12.607-5.112-19.218-.27-1.757-.233-3.551-.5-5.308-1.032-6.414-5.873-11.464-10.727-15.777-.885-.8-3.932-3.1-3.858-4.583a5.836,5.836,0,0,0,2.666.958c2.224,0,2.261-2.027,4.743-1.376,1.9.528,3.785,2.63,4.915,4.2a43.571,43.571,0,0,1,4.092,8.061,85.4,85.4,0,0,0,13.713,21.5,3.92,3.92,0,0,1,.971,1.72Z" transform="translate(863.738 436.893)" opacity="0.37" fill="url(#linear-gradient-15)"/>
    <path id="Path_881" data-name="Path 881" d="M208.506,192.134a.59.59,0,0,0,.418-.479c0-.283-.258-.528-.221-.8s.283-.393.516-.492a1.057,1.057,0,0,1,.479-.074.971.971,0,0,1,.639.5,2.04,2.04,0,0,1,.393.971,2.2,2.2,0,0,1-.836,1.708,2.285,2.285,0,0,1-1,.59,1.155,1.155,0,0,1-1.069-.258,1.229,1.229,0,0,1-.27-.442,1.437,1.437,0,0,1-.1-.676C207.572,191.986,208.026,192.294,208.506,192.134Z" transform="translate(888.905 426.824)" opacity="0.37" fill="url(#linear-gradient-16)"/>
    <path id="Path_882" data-name="Path 882" d="M312.683,189.527a2.973,2.973,0,0,0-1.917,1.29,1.941,1.941,0,0,0,.1,2.224,2.8,2.8,0,0,0,1.487.786,7.09,7.09,0,0,0,2.74.1,2.261,2.261,0,0,0,1.327-.614,1.892,1.892,0,0,0,.16-2.1,3.281,3.281,0,0,0-3.9-1.683Z" transform="translate(912.47 426.617)" fill="url(#linear-gradient-17)"/>
    <path id="Path_883" data-name="Path 883" d="M311.558,190.683a1.229,1.229,0,0,0-.27,1.511,2.138,2.138,0,0,0,1.892.922c.639,0,1.524-.086,1.843-.737.2-.418-.086-.614-.43-.8a7.37,7.37,0,0,1-1.376-.823A1.229,1.229,0,0,0,311.558,190.683Z" transform="translate(912.624 426.849)" opacity="0.37" fill="url(#linear-gradient-18)"/>
    <path id="Path_885" data-name="Path 885" d="M450.8,183.066c2.1,1.229,4.706,1.229,7.151,1.229s5.087.1,7.029,1.585c-.369-3.514-1.991-7.213-5.185-8.724a10.494,10.494,0,0,0-7.373-.221,9.142,9.142,0,0,0-4.915,2.888c-.762.983-.737,1.229.332,1.622a17.528,17.528,0,0,1,2.961,1.622Z" transform="translate(943.7 423.64)" fill="#535353"/>
    <path id="Path_886" data-name="Path 886" d="M455.943,176.966a12.816,12.816,0,0,1,10.518,6.353,9.13,9.13,0,0,0-5.222-8.147,16.625,16.625,0,0,0-9.99-1.229,11.735,11.735,0,0,0-6.525,2.654c-3.06,2.875-2.949,8.22-.2,11.391.553,0,.737-.737.75-1.3,0-3.281-.184-4.977,2.593-7.09A12.767,12.767,0,0,1,455.943,176.966Z" transform="translate(942.663 423.02)" fill="#ff5a1a"/>
    <g id="Group_416" data-name="Group 416" transform="translate(1065.439 488.91)" opacity="0.24">
      <path id="Path_887" data-name="Path 887" d="M186.781,109.892a1.954,1.954,0,0,0-.75.627,1.819,1.819,0,0,0,.184,1.634,6.315,6.315,0,0,0,1.339,1.991,2.679,2.679,0,0,0,2.2.75,3.772,3.772,0,0,0,1.438-.676l6.3-3.981a.737.737,0,0,0,.369-.381.823.823,0,0,0,0-.418c-.983-2.937-.9-4.46-4.092-3.06A71.455,71.455,0,0,0,186.781,109.892Z" transform="translate(-181.46 -81.402)" fill="#ff5a1a"/>
      <path id="Path_888" data-name="Path 888" d="M232.521,110.723l-4.915-3.195a3,3,0,0,0-1.929-.688,3.047,3.047,0,0,0-1.622,1.081l-5.185,5.407a2.015,2.015,0,0,0-.75,1.475,1.93,1.93,0,0,0,.7,1.094,50.38,50.38,0,0,0,8.81,6.721,16.453,16.453,0,0,0,5.247-11.378" transform="translate(-174.093 -81.176)" fill="#ff5a1a"/>
      <path id="Path_889" data-name="Path 889" d="M211.1,99.664l-3.342,2.691a.922.922,0,0,0-.442.614.97.97,0,0,0,.27.6,20.762,20.762,0,0,0,1.733,1.868,1.069,1.069,0,0,0,.43.27.811.811,0,0,0,.565-.172A3.9,3.9,0,0,0,210.4,99" transform="translate(-176.564 -82.969)" fill="#ff5a1a"/>
      <path id="Path_890" data-name="Path 890" d="M223.039,100.634a2.556,2.556,0,0,0-1.855-.111,1.389,1.389,0,0,0-.922,1.5,1.819,1.819,0,0,0,.578.848,3.293,3.293,0,0,0,2.077.786.553.553,0,0,0,.369-.086.627.627,0,0,0,.172-.467,4.915,4.915,0,0,0-.479-2.285" transform="translate(-173.606 -82.649)" fill="#ff5a1a"/>
      <path id="Path_891" data-name="Path 891" d="M233.259,93.03a1.229,1.229,0,0,0-.455-.16,1.069,1.069,0,0,0-.578.258c-.553.393-1.155.9-1.167,1.573a1.978,1.978,0,0,0,.233.836,17.46,17.46,0,0,0,1.069,2.077.54.54,0,0,0,.2.209.578.578,0,0,0,.319,0C236.11,96.716,236.2,94.713,233.259,93.03Z" transform="translate(-171.133 -84.371)" fill="#ff5a1a"/>
      <path id="Path_892" data-name="Path 892" d="M241.7,103.661a7.914,7.914,0,0,0-2.691,0,2.74,2.74,0,0,0-1.72.786,1.229,1.229,0,0,0,0,1.72,1.868,1.868,0,0,0,1.229.209l2.765-.2a4.019,4.019,0,0,0,0-2.347" transform="translate(-169.789 -81.929)" fill="#ff5a1a"/>
      <path id="Path_893" data-name="Path 893" d="M236.5,116.46a.172.172,0,0,0,.1.086h.123l.971-.553a1.231,1.231,0,0,0,.356-.283c.2-.283,0-.664-.1-.971a14.511,14.511,0,0,0-1.966-2.9.639.639,0,0,0-.332-.246.614.614,0,0,0-.332,0,10.351,10.351,0,0,0-1.487.578C234.137,113.634,235.636,115.207,236.5,116.46Z" transform="translate(-170.5 -80.093)" fill="#ff5a1a"/>
      <path id="Path_894" data-name="Path 894" d="M199.514,95.37,198.85,98.8h1.683a.258.258,0,0,0,.209,0,.27.27,0,0,0,.074-.172l.442-4.116a11.241,11.241,0,0,0-2.077.725" transform="translate(-178.502 -83.996)" fill="#ff5a1a"/>
      <path id="Path_895" data-name="Path 895" d="M202.678,118.044a.369.369,0,0,1,.123.233.381.381,0,0,1-.147.283,4.6,4.6,0,0,1-3.686,1.229,2.458,2.458,0,0,1-1.61-.725c-1.057-1.229-1.7-4.718.258-5.5S201.658,116.839,202.678,118.044Z" transform="translate(-179.073 -79.662)" fill="#ff5a1a"/>
      <path id="Path_896" data-name="Path 896" d="M212.31,113.153l-2.04,2.789,1.167.688a.6.6,0,0,0,.393.123.614.614,0,0,0,.369-.295l.86-1.229a1.93,1.93,0,0,0,.393-.774c.1-.774-.75-1.229-1.462-1.585" transform="translate(-175.889 -79.796)" fill="#ff5a1a"/>
      <path id="Path_897" data-name="Path 897" d="M182.376,96.282a16.244,16.244,0,0,0,1.45,3.809,7.028,7.028,0,0,1,2.6-.467c-.307-1.044-.664-2.077-1.057-3.1-.086-.2-.184-.418-.393-.491a.737.737,0,0,0-.455,0l-2.236.725" transform="translate(-182.29 -83.655)" fill="#ff5a1a"/>
      <path id="Path_898" data-name="Path 898" d="M214.03,89.537c0-.061,3.883-2.187,1.671-3.49-.639-.369-1.561.43-1.9,1a2.1,2.1,0,0,0,.233,2.494Z" transform="translate(-175.152 -85.954)" fill="#ff5a1a"/>
    </g>
    <g id="Group_417" data-name="Group 417" transform="translate(1065.439 488.91)" opacity="0.24">
      <path id="Path_899" data-name="Path 899" d="M186.781,109.892a1.954,1.954,0,0,0-.75.627,1.819,1.819,0,0,0,.184,1.634,6.315,6.315,0,0,0,1.339,1.991,2.679,2.679,0,0,0,2.2.75,3.772,3.772,0,0,0,1.438-.676l6.3-3.981a.737.737,0,0,0,.369-.381.823.823,0,0,0,0-.418c-.983-2.937-.9-4.46-4.092-3.06A71.455,71.455,0,0,0,186.781,109.892Z" transform="translate(-181.46 -81.402)" fill="#ff5a1a"/>
      <path id="Path_900" data-name="Path 900" d="M232.521,110.723l-4.915-3.195a3,3,0,0,0-1.929-.688,3.047,3.047,0,0,0-1.622,1.081l-5.185,5.407a2.015,2.015,0,0,0-.75,1.475,1.93,1.93,0,0,0,.7,1.094,50.38,50.38,0,0,0,8.81,6.721,16.453,16.453,0,0,0,5.247-11.378" transform="translate(-174.093 -81.176)" fill="#ff5a1a"/>
      <path id="Path_901" data-name="Path 901" d="M211.1,99.664l-3.342,2.691a.922.922,0,0,0-.442.614.97.97,0,0,0,.27.6,20.762,20.762,0,0,0,1.733,1.868,1.069,1.069,0,0,0,.43.27.811.811,0,0,0,.565-.172A3.9,3.9,0,0,0,210.4,99" transform="translate(-176.564 -82.969)" fill="#ff5a1a"/>
      <path id="Path_902" data-name="Path 902" d="M223.039,100.634a2.556,2.556,0,0,0-1.855-.111,1.389,1.389,0,0,0-.922,1.5,1.819,1.819,0,0,0,.578.848,3.293,3.293,0,0,0,2.077.786.553.553,0,0,0,.369-.086.627.627,0,0,0,.172-.467,4.915,4.915,0,0,0-.479-2.285" transform="translate(-173.606 -82.649)" fill="#ff5a1a"/>
      <path id="Path_903" data-name="Path 903" d="M233.259,93.03a1.229,1.229,0,0,0-.455-.16,1.069,1.069,0,0,0-.578.258c-.553.393-1.155.9-1.167,1.573a1.978,1.978,0,0,0,.233.836,17.46,17.46,0,0,0,1.069,2.077.54.54,0,0,0,.2.209.578.578,0,0,0,.319,0C236.11,96.716,236.2,94.713,233.259,93.03Z" transform="translate(-171.133 -84.371)" fill="#ff5a1a"/>
      <path id="Path_904" data-name="Path 904" d="M241.7,103.661a7.914,7.914,0,0,0-2.691,0,2.74,2.74,0,0,0-1.72.786,1.229,1.229,0,0,0,0,1.72,1.868,1.868,0,0,0,1.229.209l2.765-.2a4.019,4.019,0,0,0,0-2.347" transform="translate(-169.789 -81.929)" fill="#ff5a1a"/>
      <path id="Path_905" data-name="Path 905" d="M236.5,116.46a.172.172,0,0,0,.1.086h.123l.971-.553a1.231,1.231,0,0,0,.356-.283c.2-.283,0-.664-.1-.971a14.511,14.511,0,0,0-1.966-2.9.639.639,0,0,0-.332-.246.614.614,0,0,0-.332,0,10.351,10.351,0,0,0-1.487.578C234.137,113.634,235.636,115.207,236.5,116.46Z" transform="translate(-170.5 -80.093)" fill="#ff5a1a"/>
      <path id="Path_906" data-name="Path 906" d="M199.514,95.37,198.85,98.8h1.683a.258.258,0,0,0,.209,0,.27.27,0,0,0,.074-.172l.442-4.116a11.241,11.241,0,0,0-2.077.725" transform="translate(-178.502 -83.996)" fill="#ff5a1a"/>
      <path id="Path_907" data-name="Path 907" d="M202.678,118.044a.369.369,0,0,1,.123.233.381.381,0,0,1-.147.283,4.6,4.6,0,0,1-3.686,1.229,2.458,2.458,0,0,1-1.61-.725c-1.057-1.229-1.7-4.718.258-5.5S201.658,116.839,202.678,118.044Z" transform="translate(-179.073 -79.662)" fill="#ff5a1a"/>
      <path id="Path_908" data-name="Path 908" d="M212.31,113.153l-2.04,2.789,1.167.688a.6.6,0,0,0,.393.123.614.614,0,0,0,.369-.295l.86-1.229a1.93,1.93,0,0,0,.393-.774c.1-.774-.75-1.229-1.462-1.585" transform="translate(-175.889 -79.796)" fill="#ff5a1a"/>
      <path id="Path_909" data-name="Path 909" d="M182.376,96.282a16.244,16.244,0,0,0,1.45,3.809,7.028,7.028,0,0,1,2.6-.467c-.307-1.044-.664-2.077-1.057-3.1-.086-.2-.184-.418-.393-.491a.737.737,0,0,0-.455,0l-2.236.725" transform="translate(-182.29 -83.655)" fill="#ff5a1a"/>
      <path id="Path_910" data-name="Path 910" d="M214.03,89.537c0-.061,3.883-2.187,1.671-3.49-.639-.369-1.561.43-1.9,1a2.1,2.1,0,0,0,.233,2.494Z" transform="translate(-175.152 -85.954)" fill="#ff5a1a"/>
    </g>
    <g id="Group_418" data-name="Group 418" transform="translate(1302.062 518.309)" opacity="0.24">
      <path id="Path_911" data-name="Path 911" d="M379.351,133.812a1.99,1.99,0,0,0-.75.639,1.819,1.819,0,0,0,.184,1.634,6.462,6.462,0,0,0,1.339,1.978,2.7,2.7,0,0,0,2.2.762,4.178,4.178,0,0,0,1.438-.676l6.3-3.993a.737.737,0,0,0,.369-.381.675.675,0,0,0,0-.406c-.983-2.937-.9-4.473-4.092-3.072A62.981,62.981,0,0,0,379.351,133.812Z" transform="translate(-374.03 -105.328)" fill="#ff5a1a"/>
      <path id="Path_912" data-name="Path 912" d="M425.1,134.721l-4.915-3.182a2.924,2.924,0,0,0-1.929-.688,2.961,2.961,0,0,0-1.622,1.069l-5.185,5.419a1.978,1.978,0,0,0-.75,1.475,1.88,1.88,0,0,0,.713,1.094,49.152,49.152,0,0,0,8.8,6.709,16.453,16.453,0,0,0,5.247-11.378" transform="translate(-366.661 -105.082)" fill="#ff5a1a"/>
      <path id="Path_913" data-name="Path 913" d="M403.7,123.589l-3.342,2.691a.959.959,0,0,0-.442.614.9.9,0,0,0,.283.59,17.708,17.708,0,0,0,1.72,1.868.676.676,0,0,0,1,.111A3.871,3.871,0,0,0,403,122.95" transform="translate(-369.127 -106.889)" fill="#ff5a1a"/>
      <path id="Path_914" data-name="Path 914" d="M415.621,124.564a2.666,2.666,0,0,0-1.868-.123,1.4,1.4,0,0,0-.922,1.5,1.7,1.7,0,0,0,.578.848,3.379,3.379,0,0,0,2.089.823.614.614,0,0,0,.369-.086.626.626,0,0,0,.172-.467,4.806,4.806,0,0,0-.479-2.3" transform="translate(-366.176 -106.574)" fill="#ff5a1a"/>
      <path id="Path_915" data-name="Path 915" d="M425.83,116.95a.922.922,0,0,0-.455-.16,1.094,1.094,0,0,0-.578.246c-.553.405-1.155.9-1.167,1.585a2.088,2.088,0,0,0,.233.836,16.4,16.4,0,0,0,1.069,2.064.466.466,0,0,0,.2.209.418.418,0,0,0,.32,0C428.68,120.611,428.766,118.645,425.83,116.95Z" transform="translate(-363.703 -108.298)" fill="#ff5a1a"/>
      <path id="Path_916" data-name="Path 916" d="M434.268,127.591a8.246,8.246,0,0,0-2.691,0,2.8,2.8,0,0,0-1.72.786,1.229,1.229,0,0,0,0,1.733,1.941,1.941,0,0,0,1.229.209l2.765-.209a4.019,4.019,0,0,0,0-2.347" transform="translate(-362.361 -105.853)" fill="#ff5a1a"/>
      <path id="Path_917" data-name="Path 917" d="M429.044,140.389a.172.172,0,0,0,.1.086.16.16,0,0,0,.123,0l.971-.553a.9.9,0,0,0,.356-.283c.2-.27,0-.651-.1-.958a14.09,14.09,0,0,0-1.966-2.912.736.736,0,0,0-.332-.246.8.8,0,0,0-.332,0,9.634,9.634,0,0,0-1.474.565C426.709,137.551,428.221,139.136,429.044,140.389Z" transform="translate(-363.072 -104.017)" fill="#ff5a1a"/>
      <path id="Path_918" data-name="Path 918" d="M392.124,119.309l-.664,3.379h1.683a.3.3,0,0,0,.209,0,.345.345,0,0,0,.074-.184l.442-4.1a9.682,9.682,0,0,0-2.077.725" transform="translate(-371.063 -107.93)" fill="#ff5a1a"/>
      <path id="Path_919" data-name="Path 919" d="M395.25,141.961a.5.5,0,0,1,.135.233.467.467,0,0,1-.16.295,4.583,4.583,0,0,1-3.686,1.229,2.458,2.458,0,0,1-1.61-.725c-1.069-1.229-1.708-4.731.246-5.5S394.23,140.769,395.25,141.961Z" transform="translate(-371.645 -103.586)" fill="#ff5a1a"/>
      <path id="Path_920" data-name="Path 920" d="M404.88,137.053l-2.04,2.8,1.229.688a.7.7,0,0,0,.381.123.6.6,0,0,0,.369-.307l.86-1.229a1.978,1.978,0,0,0,.393-.786c.1-.762-.75-1.229-1.45-1.573" transform="translate(-368.459 -103.728)" fill="#ff5a1a"/>
      <path id="Path_921" data-name="Path 921" d="M374.946,120.213a16.455,16.455,0,0,0,1.45,3.809,7.373,7.373,0,0,1,2.617-.479c-.32-1.044-.676-2.077-1.069-3.084-.086-.209-.184-.43-.393-.492a.688.688,0,0,0-.442,0l-2.249.725" transform="translate(-374.86 -107.58)" fill="#ff5a1a"/>
      <path id="Path_922" data-name="Path 922" d="M406.6,113.468c0-.074,3.883-2.2,1.671-3.49-.639-.381-1.561.418-1.9,1a2.126,2.126,0,0,0,.233,2.494Z" transform="translate(-367.721 -109.879)" fill="#ff5a1a"/>
    </g>
    <g id="Group_419" data-name="Group 419" transform="translate(1229.638 516.876)" opacity="0.24">
      <path id="Path_923" data-name="Path 923" d="M320.421,132.653a1.4,1.4,0,0,0-.553,2.261A6.413,6.413,0,0,0,321.2,136.9a2.691,2.691,0,0,0,2.2.75,4.115,4.115,0,0,0,1.45-.676l6.291-3.993a.676.676,0,0,0,.369-.369.713.713,0,0,0,0-.418c-.983-2.937-.885-4.473-4.08-3.06A76.563,76.563,0,0,0,320.421,132.653Z" transform="translate(-315.101 -104.162)" fill="#ff5a1a"/>
      <path id="Path_924" data-name="Path 924" d="M366.163,133.513l-4.915-3.195a3.048,3.048,0,0,0-1.929-.688,3.011,3.011,0,0,0-1.634,1.081l-5.173,5.407a1.99,1.99,0,0,0-.762,1.475,1.941,1.941,0,0,0,.713,1.094,49.148,49.148,0,0,0,8.8,6.709,16.454,16.454,0,0,0,5.247-11.366" transform="translate(-307.724 -103.928)" fill="#ff5a1a"/>
      <path id="Path_925" data-name="Path 925" d="M344.7,122.419l-3.342,2.691a.958.958,0,0,0-.442.614.946.946,0,0,0,.283.6,20.5,20.5,0,0,0,1.72,1.868,1.106,1.106,0,0,0,.442.27.823.823,0,0,0,.553-.172A3.871,3.871,0,0,0,344,121.78" transform="translate(-310.201 -105.724)" fill="#ff5a1a"/>
      <path id="Path_926" data-name="Path 926" d="M356.68,123.394a2.593,2.593,0,0,0-1.868-.111,1.388,1.388,0,0,0-.909,1.5,1.708,1.708,0,0,0,.565.848,3.33,3.33,0,0,0,2.077.786.676.676,0,0,0,.381-.086.627.627,0,0,0,.16-.467,4.732,4.732,0,0,0-.479-2.285" transform="translate(-307.234 -105.408)" fill="#ff5a1a"/>
      <path id="Path_927" data-name="Path 927" d="M366.9,115.78a.959.959,0,0,0-.442-.16,1.032,1.032,0,0,0-.578.258,2.469,2.469,0,0,0-1.229,1.573,2.03,2.03,0,0,0,.233.836,18.224,18.224,0,0,0,1.069,2.064.565.565,0,0,0,.2.221.479.479,0,0,0,.319,0C369.749,119.454,369.835,117.475,366.9,115.78Z" transform="translate(-304.772 -107.133)" fill="#ff5a1a"/>
      <path id="Path_928" data-name="Path 928" d="M375.327,126.421a7.913,7.913,0,0,0-2.691,0,2.74,2.74,0,0,0-1.72.786,1.229,1.229,0,0,0,0,1.72,1.819,1.819,0,0,0,1.229.209l2.765-.2a3.956,3.956,0,0,0,0-2.359" transform="translate(-303.42 -104.688)" fill="#ff5a1a"/>
      <path id="Path_929" data-name="Path 929" d="M370.1,139.218a.172.172,0,0,0,.1.086.16.16,0,0,0,.123,0l.983-.553a1.045,1.045,0,0,0,.344-.27.971.971,0,0,0-.1-.971,14.023,14.023,0,0,0-1.966-2.9.59.59,0,0,0-.332-.246.626.626,0,0,0-.332,0,9.675,9.675,0,0,0-1.475.578C367.77,136.379,369.281,137.964,370.1,139.218Z" transform="translate(-304.132 -102.85)" fill="#ff5a1a"/>
      <path id="Path_930" data-name="Path 930" d="M333.124,118.169l-.664,3.379h1.683a.246.246,0,0,0,.221,0,.406.406,0,0,0,.061-.184l.442-4.1a11.244,11.244,0,0,0-2.077.725" transform="translate(-312.136 -106.758)" fill="#ff5a1a"/>
      <path id="Path_931" data-name="Path 931" d="M336.321,140.854a.479.479,0,0,1,.123.233.393.393,0,0,1-.16.283A4.583,4.583,0,0,1,332.6,142.6a2.458,2.458,0,0,1-1.61-.725c-1.057-1.229-1.708-4.718.246-5.5S335.289,139.625,336.321,140.854Z" transform="translate(-312.704 -102.409)" fill="#ff5a1a"/>
      <path id="Path_932" data-name="Path 932" d="M345.94,135.913,343.9,138.7l1.229.688a.553.553,0,0,0,.381.123.688.688,0,0,0,.381-.295l.848-1.229a1.77,1.77,0,0,0,.393-.786c.1-.762-.75-1.229-1.45-1.573" transform="translate(-309.519 -102.555)" fill="#ff5a1a"/>
      <path id="Path_933" data-name="Path 933" d="M316.018,119.053a16.2,16.2,0,0,0,1.438,3.809,7.04,7.04,0,0,1,2.617-.467q-.479-1.561-1.069-3.1c-.074-.2-.184-.43-.393-.492a.688.688,0,0,0-.442,0l-2.249.725" transform="translate(-315.92 -106.412)" fill="#ff5a1a"/>
      <path id="Path_934" data-name="Path 934" d="M347.659,112.3c0-.074,3.9-2.2,1.683-3.49-.639-.369-1.573.418-1.917,1a2.126,2.126,0,0,0,.233,2.494Z" transform="translate(-308.781 -108.713)" fill="#ff5a1a"/>
    </g>
    <path id="Path_935" data-name="Path 935" d="M390.249,150.4a1.744,1.744,0,0,0-.737.627,1.819,1.819,0,0,0,.184,1.634,6.218,6.218,0,0,0,1.327,1.978,2.7,2.7,0,0,0,2.2.762,4.338,4.338,0,0,0,1.45-.676l6.3-3.993a.762.762,0,0,0,.356-.381.774.774,0,0,0,0-.405c-1-2.937-.9-4.473-4.092-3.072A72.96,72.96,0,0,0,390.249,150.4Z" transform="translate(930.527 416.773)" fill="#fff"/>
    <path id="Path_936" data-name="Path 936" d="M436,151.251l-4.915-3.183a3.047,3.047,0,0,0-1.929-.688,2.986,2.986,0,0,0-1.634,1.069l-5.173,5.419a2.015,2.015,0,0,0-.762,1.475,1.941,1.941,0,0,0,.713,1.094,49.152,49.152,0,0,0,8.8,6.709,16.453,16.453,0,0,0,5.247-11.378" transform="translate(937.892 417.008)" fill="#fff"/>
    <path id="Path_937" data-name="Path 937" d="M414.572,140.169l-3.342,2.691a.946.946,0,0,0-.43.614.872.872,0,0,0,.27.6,18.874,18.874,0,0,0,1.72,1.855.884.884,0,0,0,.442.27.811.811,0,0,0,.553-.16,3.883,3.883,0,0,0,.1-6.512" transform="translate(935.423 415.212)" fill="#fff"/>
    <path id="Path_938" data-name="Path 938" d="M426.52,141.144a2.593,2.593,0,0,0-1.868-.111,1.376,1.376,0,0,0-.909,1.5,1.623,1.623,0,0,0,.565.836,3.342,3.342,0,0,0,2.077.8.676.676,0,0,0,.381-.086.578.578,0,0,0,.16-.467,4.915,4.915,0,0,0-.467-2.3" transform="translate(938.381 415.528)" fill="#fff"/>
    <path id="Path_939" data-name="Path 939" d="M436.727,133.53a.848.848,0,0,0-.442-.16,1.02,1.02,0,0,0-.577.246c-.553.406-1.167.9-1.167,1.585a2.016,2.016,0,0,0,.221.836,20.492,20.492,0,0,0,1.069,2.064.467.467,0,0,0,.2.209.418.418,0,0,0,.319,0C439.59,137.191,439.664,135.225,436.727,133.53Z" transform="translate(940.854 413.803)" fill="#fff"/>
    <path id="Path_940" data-name="Path 940" d="M445.168,144.171a8.232,8.232,0,0,0-2.691,0,2.8,2.8,0,0,0-1.72.786,1.229,1.229,0,0,0,0,1.733,1.917,1.917,0,0,0,1.229.209l2.765-.2a4.055,4.055,0,0,0,0-2.359" transform="translate(942.194 416.249)" fill="#fff"/>
    <path id="Path_941" data-name="Path 941" d="M439.944,156.964a.221.221,0,0,0,.1.086.148.148,0,0,0,.123,0l.983-.553a.75.75,0,0,0,.246-1.229,14.1,14.1,0,0,0-1.966-2.912.737.737,0,0,0-.332-.246.8.8,0,0,0-.332.061,10.145,10.145,0,0,0-1.474.565C437.609,154.125,439.121,155.661,439.944,156.964Z" transform="translate(941.483 418.09)" fill="#fff"/>
    <path id="Path_942" data-name="Path 942" d="M402.981,135.889l-.651,3.379H404a.344.344,0,0,0,.221,0,.333.333,0,0,0,.061-.184l.442-4.1a9.682,9.682,0,0,0-2.077.725" transform="translate(933.486 414.172)" fill="#fff"/>
    <path id="Path_943" data-name="Path 943" d="M406.18,158.541a.577.577,0,0,1,.123.246.393.393,0,0,1-.16.283,4.583,4.583,0,0,1-3.686,1.229,2.458,2.458,0,0,1-1.61-.725c-1.057-1.229-1.7-4.731.246-5.5S405.124,157.349,406.18,158.541Z" transform="translate(932.916 418.516)" fill="#fff"/>
    <path id="Path_944" data-name="Path 944" d="M415.777,153.641l-2.027,2.8,1.167.688a.737.737,0,0,0,.381.123.663.663,0,0,0,.381-.307l.848-1.167a1.831,1.831,0,0,0,.393-.786c.1-.762-.737-1.229-1.45-1.573" transform="translate(936.098 418.39)" fill="#fff"/>
    <path id="Path_945" data-name="Path 945" d="M385.858,136.79A16.423,16.423,0,0,0,387.3,140.6a7.371,7.371,0,0,1,2.617-.479c-.32-1.044-.664-2.077-1.069-3.084a.565.565,0,0,0-.836-.442l-2.249.725" transform="translate(929.695 414.525)" fill="#fff"/>
    <path id="Path_946" data-name="Path 946" d="M417.5,130.048c0-.074,3.9-2.2,1.683-3.49-.639-.381-1.56.418-1.9,1A2.1,2.1,0,0,0,417.5,130.048Z" transform="translate(936.834 412.222)" fill="#fff"/>
    <path id="Path_947" data-name="Path 947" d="M264.691,117.612a1.88,1.88,0,0,0-.749.627,1.843,1.843,0,0,0,.184,1.647,6.218,6.218,0,0,0,1.327,1.978,2.691,2.691,0,0,0,2.2.75,4.079,4.079,0,0,0,1.45-.664l6.3-3.993a.762.762,0,0,0,.356-.381.774.774,0,0,0,0-.405c-1-2.949-.9-4.473-4.092-3.072a76.342,76.342,0,0,0-6.979,3.514Z" transform="translate(901.801 409.274)" fill="#fff"/>
    <path id="Path_948" data-name="Path 948" d="M334.283,149.653l-4.915-3.195a3.047,3.047,0,0,0-1.929-.688,3.084,3.084,0,0,0-1.634,1.081l-5.173,5.407a1.991,1.991,0,0,0-.762,1.474,2.015,2.015,0,0,0,.713,1.106,50.309,50.309,0,0,0,8.8,6.709,16.453,16.453,0,0,0,5.247-11.378" transform="translate(914.622 416.64)" fill="#fff"/>
    <path id="Path_949" data-name="Path 949" d="M309.6,119.119l-3.342,2.691a.946.946,0,0,0-.43.614.848.848,0,0,0,.27.6,19,19,0,0,0,1.72,1.868,1.106,1.106,0,0,0,.442.27.762.762,0,0,0,.553-.172,3.932,3.932,0,0,0,1.819-3.232,3.981,3.981,0,0,0-1.72-3.281" transform="translate(911.41 410.397)" fill="#fff"/>
    <path id="Path_950" data-name="Path 950" d="M327.129,110.944a2.593,2.593,0,0,0-1.868-.111,1.389,1.389,0,0,0-.909,1.5,1.573,1.573,0,0,0,.578.836,3.281,3.281,0,0,0,2.064.8.651.651,0,0,0,.381-.086.626.626,0,0,0,.172-.467,4.914,4.914,0,0,0-.479-2.3" transform="translate(915.644 408.619)" fill="#fff"/>
    <path id="Path_951" data-name="Path 951" d="M337.349,103.33a.848.848,0,0,0-.442-.16,1.057,1.057,0,0,0-.577.246c-.553.406-1.229.9-1.229,1.585a2.222,2.222,0,0,0,.221.836A18.32,18.32,0,0,0,336.4,107.9a.406.406,0,0,0,.2.209.381.381,0,0,0,.307,0C340.212,106.991,340.3,105.025,337.349,103.33Z" transform="translate(918.106 406.895)" fill="#fff"/>
    <path id="Path_952" data-name="Path 952" d="M378.567,112.851a8.234,8.234,0,0,0-2.691,0,2.74,2.74,0,0,0-1.72.786,1.229,1.229,0,0,0,0,1.72,1.843,1.843,0,0,0,1.229.221l2.765-.209a4.017,4.017,0,0,0,0-2.347" transform="translate(926.96 409.084)" fill="#fff"/>
    <path id="Path_953" data-name="Path 953" d="M353.224,123.63a.221.221,0,0,0,.1.086.2.2,0,0,0,.123,0l.983-.553a1.117,1.117,0,0,0,.344-.283.971.971,0,0,0-.1-.971,14.021,14.021,0,0,0-1.966-2.9.59.59,0,0,0-.332-.246.627.627,0,0,0-.332,0,9.674,9.674,0,0,0-1.474.578C350.89,120.8,352.4,122.377,353.224,123.63Z" transform="translate(921.645 410.457)" fill="#fff"/>
    <path id="Path_954" data-name="Path 954" d="M303.591,105.689l-.651,3.379h1.683a.3.3,0,0,0,.209,0,.258.258,0,0,0,0-.184l.455-4.1a10.521,10.521,0,0,0-2.089.725" transform="translate(910.749 407.263)" fill="#fff"/>
    <path id="Path_955" data-name="Path 955" d="M309.02,151.694a.332.332,0,0,1,.123.233.356.356,0,0,1-.16.283,4.559,4.559,0,0,1-3.686,1.229,2.458,2.458,0,0,1-1.61-.725c-1.057-1.229-1.7-4.718.246-5.5S307.988,150.489,309.02,151.694Z" transform="translate(910.69 416.946)" fill="#fff"/>
    <path id="Path_956" data-name="Path 956" d="M270.49,135.68l-2.04,2.789,1.229.688a.467.467,0,0,0,.75-.172l.86-1.229a1.856,1.856,0,0,0,.393-.774c.1-.762-.75-1.229-1.45-1.573" transform="translate(902.859 414.27)" fill="#fff"/>
    <path id="Path_957" data-name="Path 957" d="M286.466,106.592a16.455,16.455,0,0,0,1.45,3.809,7.25,7.25,0,0,1,2.605-.479c-.307-1.044-.664-2.077-1.069-3.084-.074-.209-.172-.43-.381-.492a.737.737,0,0,0-.455,0l-2.236.725" transform="translate(906.961 407.613)" fill="#fff"/>
    <path id="Path_958" data-name="Path 958" d="M318.1,99.848c0-.074,3.883-2.2,1.671-3.49-.639-.381-1.561.418-1.9,1a2.089,2.089,0,0,0,.233,2.494Z" transform="translate(914.093 405.314)" fill="#fff"/>
    <path id="Path_959" data-name="Path 959" d="M115.879,128.422a1.954,1.954,0,0,0-.75.627,1.868,1.868,0,0,0,.2,1.634,6.28,6.28,0,0,0,1.327,1.991,2.691,2.691,0,0,0,2.2.75,4.08,4.08,0,0,0,1.45-.663l6.291-3.994a.737.737,0,0,0,.369-.381.664.664,0,0,0,0-.405c-.983-2.949-.9-4.473-4.092-3.072A71.457,71.457,0,0,0,115.879,128.422Z" transform="translate(867.761 411.747)" fill="#fff"/>
    <path id="Path_960" data-name="Path 960" d="M185.471,160.455l-4.915-3.183a2.224,2.224,0,0,0-3.551.393l-5.185,5.407a2.015,2.015,0,0,0-.749,1.475,1.929,1.929,0,0,0,.7,1.094,49.67,49.67,0,0,0,8.81,6.709,16.453,16.453,0,0,0,5.247-11.366" transform="translate(880.582 419.109)" fill="#fff"/>
    <path id="Path_961" data-name="Path 961" d="M160.8,129.88l-3.342,2.74a.958.958,0,0,0-.442.614.946.946,0,0,0,.283.6,18.873,18.873,0,0,0,1.72,1.855.946.946,0,0,0,.442.283.922.922,0,0,0,.553-.172,3.871,3.871,0,0,0,.086-6.512" transform="translate(877.368 412.87)" fill="#fff"/>
    <path id="Path_962" data-name="Path 962" d="M178.329,121.754a2.654,2.654,0,0,0-1.868-.123,1.388,1.388,0,0,0-.909,1.5,1.561,1.561,0,0,0,.578.848,3.269,3.269,0,0,0,2.064.786.516.516,0,0,0,.381-.086.553.553,0,0,0,.16-.455,4.915,4.915,0,0,0-.467-2.3" transform="translate(881.604 411.092)" fill="#fff"/>
    <path id="Path_963" data-name="Path 963" d="M188.549,114.14a.848.848,0,0,0-.442-.16,1.02,1.02,0,0,0-.577.246c-.553.393-1.229.9-1.229,1.573a2.064,2.064,0,0,0,.221.848,20.466,20.466,0,0,0,1.069,2.064.467.467,0,0,0,.2.209.479.479,0,0,0,.319,0C191.412,117.8,191.485,115.835,188.549,114.14Z" transform="translate(884.066 409.368)" fill="#fff"/>
    <path id="Path_964" data-name="Path 964" d="M229.767,123.661a8.246,8.246,0,0,0-2.691,0,2.74,2.74,0,0,0-1.72.786,1.229,1.229,0,0,0,0,1.72,1.757,1.757,0,0,0,1.229.209l2.765-.2a4.018,4.018,0,0,0,0-2.347" transform="translate(892.92 411.557)" fill="#fff"/>
    <path id="Path_965" data-name="Path 965" d="M204.424,134.438a.172.172,0,0,0,.1.086.16.16,0,0,0,.123,0l.971-.553a.982.982,0,0,0,.356-.27c.2-.283,0-.663-.1-.971a14.094,14.094,0,0,0-1.966-2.912.639.639,0,0,0-.332-.233.614.614,0,0,0-.332,0,9.63,9.63,0,0,0-1.474.565C202.053,131.6,203.6,133.184,204.424,134.438Z" transform="translate(887.605 412.932)" fill="#fff"/>
    <path id="Path_966" data-name="Path 966" d="M154.791,116.5l-.651,3.379h1.671a.344.344,0,0,0,.221,0,.331.331,0,0,0,0-.184l.442-4.1a9.683,9.683,0,0,0-2.077.725" transform="translate(876.709 409.736)" fill="#fff"/>
    <path id="Path_967" data-name="Path 967" d="M160.181,162.491a.614.614,0,0,1,.123.233.418.418,0,0,1-.16.295,4.583,4.583,0,0,1-3.686,1.229,2.458,2.458,0,0,1-1.61-.725c-1.057-1.229-1.708-4.731.246-5.5S159.2,161.3,160.181,162.491Z" transform="translate(876.64 419.42)" fill="#fff"/>
    <path id="Path_968" data-name="Path 968" d="M121.69,146.493l-2.04,2.789,1.167.688a.578.578,0,0,0,.393.123.615.615,0,0,0,.369-.295l.86-1.229a1.757,1.757,0,0,0,.381-.774c.1-.774-.737-1.229-1.45-1.585" transform="translate(868.819 416.741)" fill="#fff"/>
    <path id="Path_969" data-name="Path 969" d="M137.668,117.389a16.292,16.292,0,0,0,1.438,3.821,7.373,7.373,0,0,1,2.617-.479c-.319-1.044-.663-2.077-1.069-3.084a.7.7,0,0,0-.393-.492.786.786,0,0,0-.442,0l-2.249.737" transform="translate(872.918 410.087)" fill="#fff"/>
    <path id="Path_970" data-name="Path 970" d="M169.309,110.668c0-.074,3.9-2.2,1.683-3.49-.639-.381-1.561.418-1.9,1a2.1,2.1,0,0,0,.221,2.494Z" transform="translate(880.057 407.789)" fill="#fff"/>
    <g id="Group_420" data-name="Group 420" transform="translate(979.794 530.302)" opacity="0.24">
      <path id="Path_971" data-name="Path 971" d="M114.356,122.741a.975.975,0,0,0-.836,1.413,4.485,4.485,0,0,0,.492,1.6,1.917,1.917,0,0,0,1.327.958,3.158,3.158,0,0,0,1.118-.16l5.038-1.425a.492.492,0,0,0,.319-.184.455.455,0,0,0,0-.283c-.074-2.175.295-3.195-2.138-2.888a52.828,52.828,0,0,0-5.321.971Z" transform="translate(-112.39 -119.165)" fill="#ff5a1a"/>
      <path id="Path_972" data-name="Path 972" d="M154.857,158.391l-2.654-3.133a2.077,2.077,0,0,0-1.155-.848,2.15,2.15,0,0,0-1.315.393l-4.583,2.6c-.344.2-.725.442-.8.836a1.315,1.315,0,0,0,.258.885,34.285,34.285,0,0,0,4.571,6.291,11.538,11.538,0,0,0,5.8-6.6" transform="translate(-105.325 -111.686)" fill="#ff5a1a"/>
      <path id="Path_973" data-name="Path 973" d="M144.252,133.005l-2.789,1.143a.5.5,0,0,0-.356.786,13.737,13.737,0,0,0,.786,1.6.59.59,0,0,0,.246.27.577.577,0,0,0,.405,0,2.716,2.716,0,0,0,1.364-4.362" transform="translate(-106.087 -116.712)" fill="#ff5a1a"/>
      <path id="Path_974" data-name="Path 974" d="M157.6,131.085a1.782,1.782,0,0,0-1.229-.455,1,1,0,0,0-.922.823,1.229,1.229,0,0,0,.221.688,2.286,2.286,0,0,0,1.229.946.406.406,0,0,0,.27,0c.111,0,.16-.16.2-.27a3.4,3.4,0,0,0,.147-1.647" transform="translate(-102.785 -117.126)" fill="#ff5a1a"/>
      <path id="Path_975" data-name="Path 975" d="M166.035,128.043a.663.663,0,0,0-.27-.2.688.688,0,0,0-.442,0c-.455.16-.958.369-1.106.823a1.476,1.476,0,0,0,0,.614,11.987,11.987,0,0,0,.307,1.61.283.283,0,0,0,.086.172.331.331,0,0,0,.221,0C167.214,131.078,167.644,129.776,166.035,128.043Z" transform="translate(-100.787 -117.771)" fill="#ff5a1a"/>
      <path id="Path_976" data-name="Path 976" d="M191.871,142.733a5.838,5.838,0,0,0-1.806-.565,1.942,1.942,0,0,0-1.315.184.86.86,0,0,0-.319,1.167,1.389,1.389,0,0,0,.811.406l1.9.418a2.9,2.9,0,0,0,.479-1.585" transform="translate(-95.266 -114.496)" fill="#ff5a1a"/>
      <path id="Path_977" data-name="Path 977" d="M172.6,144.908a.086.086,0,0,0,0,.074h.1l.762-.172a.7.7,0,0,0,.295-.111.688.688,0,0,0,.123-.676,9.831,9.831,0,0,0-.737-2.347.418.418,0,0,0-.172-.233.492.492,0,0,0-.234,0,8.066,8.066,0,0,0-1.106.086,11.243,11.243,0,0,0,.971,3.379Z" transform="translate(-99.084 -114.655)" fill="#ff5a1a"/>
      <path id="Path_978" data-name="Path 978" d="M142.908,122.8l-1.118,2.15,1.118.369a.233.233,0,0,0,.16,0,.184.184,0,0,0,.074-.111l1.13-2.679a8.174,8.174,0,0,0-1.548.074" transform="translate(-105.91 -118.98)" fill="#ff5a1a"/>
      <path id="Path_979" data-name="Path 979" d="M137.275,154.9a.331.331,0,0,1,0,.184c0,.086-.1.123-.172.16a3.219,3.219,0,0,1-2.728.123,1.708,1.708,0,0,1-.946-.811c-.467-1.02-.184-3.527,1.229-3.686S136.82,153.894,137.275,154.9Z" transform="translate(-107.87 -112.497)" fill="#ff5a1a"/>
      <path id="Path_980" data-name="Path 980" d="M114.531,136.349l-1.941,1.475.651.7a.467.467,0,0,0,.233.16.406.406,0,0,0,.319-.123l.811-.627a1.3,1.3,0,0,0,.418-.442c.221-.491-.246-1.008-.664-1.352" transform="translate(-112.59 -115.865)" fill="#ff5a1a"/>
      <path id="Path_981" data-name="Path 981" d="M131.032,120a11.8,11.8,0,0,0,.209,2.863,4.988,4.988,0,0,1,1.855.209,17.874,17.874,0,0,0-.1-2.3.541.541,0,0,0-.16-.418.467.467,0,0,0-.32,0H130.86" transform="translate(-108.41 -119.557)" fill="#ff5a1a"/>
      <path id="Path_982" data-name="Path 982" d="M153.8,121.815s3.072-.688,1.843-2.015c-.356-.381-1.143,0-1.487.295a1.475,1.475,0,0,0-.356,1.72Z" transform="translate(-103.195 -119.64)" fill="#ff5a1a"/>
    </g>
  </g>
</svg>
