<svg id="Group_425" data-name="Group 425" xmlns="http://www.w3.org/2000/svg" xmlns:xlink="http://www.w3.org/1999/xlink" width="303.1" height="296.97" viewBox="0 0 303.1 296.97">
  <defs>
    <linearGradient id="linear-gradient" y1="0.5" x2="1" y2="0.5" gradientUnits="objectBoundingBox">
      <stop offset="0" stop-color="#010101" stop-opacity="0"/>
      <stop offset="0.95" stop-color="#010101"/>
    </linearGradient>
    <linearGradient id="linear-gradient-2" x1="0.5" x2="0.5" y2="1" gradientUnits="objectBoundingBox">
      <stop offset="0" stop-color="#be7c5e"/>
      <stop offset="1" stop-color="#5f3e2f"/>
    </linearGradient>
    <linearGradient id="linear-gradient-3" x1="0.184" y1="0.649" x2="0.957" y2="0.251" xlink:href="#linear-gradient"/>
    <linearGradient id="linear-gradient-9" x1="0.469" y1="0.641" x2="1.625" y2="-0.612" xlink:href="#linear-gradient"/>
    <linearGradient id="linear-gradient-10" x1="0.33" y1="0.5" x2="0.67" y2="0.5" xlink:href="#linear-gradient"/>
    <linearGradient id="linear-gradient-11" x1="0.541" y1="-0.178" x2="0.159" y2="5.007" xlink:href="#linear-gradient"/>
    <linearGradient id="linear-gradient-12" x1="0.498" y1="-0.846" x2="0.515" y2="8.404" xlink:href="#linear-gradient"/>
    <linearGradient id="linear-gradient-13" x1="0.681" y1="0.22" x2="0.11" y2="1.31" xlink:href="#linear-gradient"/>
    <linearGradient id="linear-gradient-14" x1="0.39" y1="0.294" x2="1.027" y2="0.996" xlink:href="#linear-gradient"/>
    <linearGradient id="linear-gradient-15" x1="0.664" y1="0.332" x2="-0.005" y2="1.207" xlink:href="#linear-gradient"/>
    <linearGradient id="linear-gradient-16" x1="0.462" y1="0.392" x2="1.099" y2="1.018" xlink:href="#linear-gradient"/>
    <linearGradient id="linear-gradient-17" x1="-0.202" y1="0.499" x2="1.564" y2="0.501" xlink:href="#linear-gradient"/>
    <linearGradient id="linear-gradient-18" x1="0.643" y1="0.538" x2="0.028" y2="0.399" xlink:href="#linear-gradient"/>
    <linearGradient id="linear-gradient-19" x1="0.682" y1="0.22" x2="0.111" y2="1.306" xlink:href="#linear-gradient"/>
    <linearGradient id="linear-gradient-20" x1="0.392" y1="0.294" x2="1.03" y2="0.996" xlink:href="#linear-gradient"/>
    <linearGradient id="linear-gradient-21" x1="0.663" y1="0.332" x2="-0.006" y2="1.207" xlink:href="#linear-gradient"/>
    <linearGradient id="linear-gradient-22" x1="0.462" y1="0.389" x2="1.1" y2="1.015" xlink:href="#linear-gradient"/>
    <linearGradient id="linear-gradient-23" x1="-0.199" y1="0.499" x2="1.566" y2="0.501" xlink:href="#linear-gradient"/>
    <linearGradient id="linear-gradient-24" x1="0.657" y1="0.513" x2="-0.043" y2="0.459" xlink:href="#linear-gradient"/>
  </defs>
  <path id="Path_984" data-name="Path 984" d="M361.61,156.7l-25.384-6.867-1.375,4.578,32.241,21.042Z" transform="translate(-167.897 -74.049)" fill="#ff5a1a"/>
  <path id="Path_985" data-name="Path 985" d="M362.17,157.036l-25.384-6.867-1.366,4.578,32.241,21.033Z" transform="translate(-167.93 -74.068)" opacity="0.37" fill="url(#linear-gradient)"/>
  <path id="Path_986" data-name="Path 986" d="M433.22,149.084c-1.488,1.177-2.92,2.619-4.785,3-2.722.546-5.294-1.356-7.319-3.268-2.732-2.581-5.322-5.557-6.33-9.184s0-8.035,3.127-10.088c2.063-1.328,4.662-1.469,7.121-1.469a82.732,82.732,0,0,1,12.942,1.074,8.29,8.29,0,0,1,2.892.857c3.165,1.827,3.466,6.311,2.176,9.287C440.972,144.1,437.119,145.995,433.22,149.084Z" transform="translate(-180.742 -92.546)" fill="url(#linear-gradient-2)"/>
  <path id="Path_987" data-name="Path 987" d="M396.375,135.887s3.975-8.939,13.479-7.1,19.337,19.563,15.673,28.822a95.407,95.407,0,0,1-8.232,16.125l-3.391-2.374s7.78-8.581,7.78-15.777-11.67-18.3-12.009-18.64-6.292-4.71-10.521,2.053S396.375,135.887,396.375,135.887Z" transform="translate(-179.681 -92.573)" fill="#ff5a1a"/>
  <path id="Path_988" data-name="Path 988" d="M396.375,135.887s3.975-8.939,13.479-7.1,19.337,19.563,15.673,28.822a95.407,95.407,0,0,1-8.232,16.125l-3.391-2.374s7.78-8.581,7.78-15.777-11.67-18.3-12.009-18.64-6.292-4.71-10.521,2.053S396.375,135.887,396.375,135.887Z" transform="translate(-179.681 -92.573)" opacity="0.37" fill="url(#linear-gradient-3)"/>
  <path id="Path_989" data-name="Path 989" d="M441.64,112.41c-1.262.5-2.779,1.187-2.91,2.543a3.014,3.014,0,0,0,.254,1.441,26.263,26.263,0,0,0,2.986,4.813c3.193,4.644,5.35,9.9,8,14.873a1.639,1.639,0,0,0,.612.744,1.554,1.554,0,0,0,.942.075c2.826-.4,5.388-2.044,7.827-3.6q9.57-6.122,19.62-11.388a12.951,12.951,0,0,0,4.709-3.476c1.413-1.94,1.611-4.5,1.573-6.914a29.247,29.247,0,0,0-1.658-10.2,16.229,16.229,0,0,0-6.283-7.959c-2.157-1.356-4.71-3.994-7.281-2.628s-4.71,3.768-6.8,5.576c-4.361,3.909-8.534,8.053-13.319,11.444a39.323,39.323,0,0,1-8.27,4.653Z" transform="translate(-182.155 -90.355)" fill="#ff5a1a"/>
  <path id="Path_990" data-name="Path 990" d="M436.039,119.906a1.545,1.545,0,0,0-.791.772,1.319,1.319,0,0,0,.094.848,19.012,19.012,0,0,0,2.515,3.7,21.2,21.2,0,0,1,1.639,3.146c1.5,3.287,3.052,6.593,4.71,9.777a.81.81,0,0,0,1.394.32,17.1,17.1,0,0,0,3.768-2.929,1.092,1.092,0,0,0,.283-.4,1.13,1.13,0,0,0-.057-.612,20.452,20.452,0,0,0-1.884-3.994,91.063,91.063,0,0,0-5.322-8.157c-.8-1.13-1.686-2.939-2.826-3.768S436.972,119.406,436.039,119.906Z" transform="translate(-181.951 -91.983)" fill="#fff"/>
  <path id="Path_991" data-name="Path 991" d="M405.534,142.2a4.813,4.813,0,0,1-1.95-2.251,3.325,3.325,0,0,1,.188-2.91,5.2,5.2,0,0,1,1.394-1.4,37.455,37.455,0,0,1,4.926-3.165,12.4,12.4,0,0,1,2.882-1.187,14.714,14.714,0,0,1,2.948-.311,5.077,5.077,0,0,1,2.553.358A2.6,2.6,0,0,1,419.7,134.4a5.793,5.793,0,0,1-2.392,2.487c-2.223,1.629-4.1,3.692-6.348,5.294A4.71,4.71,0,0,1,405.534,142.2Z" transform="translate(-180.099 -92.712)" fill="url(#linear-gradient-2)"/>
  <path id="Path_992" data-name="Path 992" d="M409.335,148.305a4.71,4.71,0,0,1-1.94-2.251,3.353,3.353,0,0,1,.179-2.911,5.519,5.519,0,0,1,1.4-1.4,37.447,37.447,0,0,1,4.926-3.165,12.326,12.326,0,0,1,2.873-1.187,14.873,14.873,0,0,1,2.958-.311,5.086,5.086,0,0,1,2.553.358,2.618,2.618,0,0,1,1.224,3.071,5.812,5.812,0,0,1-2.374,2.524c-2.223,1.63-4.1,3.692-6.349,5.294A4.709,4.709,0,0,1,409.335,148.305Z" transform="translate(-180.32 -93.067)" fill="url(#linear-gradient-2)"/>
  <path id="Path_993" data-name="Path 993" d="M413.765,153.686a4.709,4.709,0,0,1-1.94-2.251,3.353,3.353,0,0,1,.179-2.911,5.342,5.342,0,0,1,1.4-1.394,36.581,36.581,0,0,1,4.926-3.174,12.33,12.33,0,0,1,2.873-1.187,14.193,14.193,0,0,1,2.958-.3,4.983,4.983,0,0,1,2.553.348,2.628,2.628,0,0,1,1.224,3.08,5.877,5.877,0,0,1-2.392,2.477c-2.232,1.63-4.107,3.692-6.358,5.294A4.709,4.709,0,0,1,413.765,153.686Z" transform="translate(-180.578 -93.38)" fill="url(#linear-gradient-2)"/>
  <path id="Path_994" data-name="Path 994" d="M418.865,158.6a4.709,4.709,0,0,1-1.94-2.242,3.381,3.381,0,0,1,.179-2.92,5.654,5.654,0,0,1,1.394-1.394,37.213,37.213,0,0,1,4.936-3.165,12.357,12.357,0,0,1,2.826-1.2,15.521,15.521,0,0,1,2.958-.3,5.19,5.19,0,0,1,2.553.348,2.628,2.628,0,0,1,1.224,3.08,5.812,5.812,0,0,1-2.4,2.487c-2.223,1.63-4.1,3.692-6.348,5.294A4.653,4.653,0,0,1,418.865,158.6Z" transform="translate(-180.874 -93.665)" fill="url(#linear-gradient-2)"/>
  <path id="Path_995" data-name="Path 995" d="M420.407,120.579a5.942,5.942,0,0,0-2,.217,6.4,6.4,0,0,0-2.458,1.884l-5.388,5.651a7.354,7.354,0,0,0-1.432,1.884,7.168,7.168,0,0,0-.527,2.675c-.16,2.4-.235,4.813-.235,7.215a1.413,1.413,0,0,0,.245.942,1.234,1.234,0,0,0,1.045.283,6.1,6.1,0,0,0,5.133-4.427,9.323,9.323,0,0,1,.725-2.261,5.793,5.793,0,0,1,2.637-1.969,1.338,1.338,0,0,1,.527-.17,1.394,1.394,0,0,1,.791.283c1.582.942,3.174,1.884,4.832,2.694a13.676,13.676,0,0,0,6.593,1.752,13.45,13.45,0,0,0,7.29-2.826,6.273,6.273,0,0,0,2.2-4.776c-.1-2.468-1.959-4.465-3.7-6.217-.8-.8-1.5-1.884-2.675-2.025-1.5-.122-3.042,0-4.559-.113C426.445,121.031,423.431,120.579,420.407,120.579Z" transform="translate(-180.391 -92.11)" fill="url(#linear-gradient-2)"/>
  <path id="Path_996" data-name="Path 996" d="M348.45,123.663l3.655,3.89,14.637,47.566.461,4.116,45.965-19.667-4.578-4.578-22.869-43.215.462-2.976Z" transform="translate(-168.688 -71.665)" fill="#ff5a1a"/>
  <path id="Path_997" data-name="Path 997" d="M345.222,169.935A10.634,10.634,0,0,1,334.56,180.56a9.788,9.788,0,0,1-1.95-.2l4.653-20.722A10.6,10.6,0,0,1,345.222,169.935Z" transform="translate(-175.99 -94.38)" fill="#ff5a1a"/>
  <path id="Path_998" data-name="Path 998" d="M366.93,145.91l28.012-12.81,22.917,43.073-7.846,2.892L398.079,157.4a24.951,24.951,0,0,0-27.146-12.367Z" transform="translate(-177.984 -92.838)" opacity="0.37" fill="url(#linear-gradient-9)"/>
  <ellipse id="Ellipse_228" data-name="Ellipse 228" cx="10.615" cy="2.976" rx="10.615" ry="2.976" transform="translate(153.778 85.346) rotate(-78.34)" fill="#ff5a1a"/>
  <ellipse id="Ellipse_229" data-name="Ellipse 229" cx="10.615" cy="2.976" rx="10.615" ry="2.976" transform="translate(153.778 85.346) rotate(-78.34)" opacity="0.37" fill="url(#linear-gradient-10)"/>
  <path id="Path_999" data-name="Path 999" d="M352.1,127.674l28.775-13.14,1.027-3.664L348.45,123.784Z" transform="translate(-168.687 -71.785)" fill="url(#linear-gradient-11)"/>
  <path id="Path_1000" data-name="Path 1000" d="M330.564,164.533H330a.537.537,0,0,1-.509-.575.518.518,0,0,1,.575-.509h.556a.546.546,0,0,1-.057,1.083Z" transform="translate(-175.809 -94.601)" fill="#ff5a1a"/>
  <path id="Path_1001" data-name="Path 1001" d="M268.427,234.809h0a.556.556,0,0,1-.537-.556V233.17a.537.537,0,0,1,.537-.527h0a.546.546,0,0,1,.528.565v1.074a.546.546,0,0,1-.527.528Zm.462-8.571h-.047a.537.537,0,0,1-.49-.593l.094-1.074a.527.527,0,0,1,.593-.49.537.537,0,0,1,.49.593l-.1,1.064a.537.537,0,0,1-.49.5Zm1.027-8.477h-.038a.546.546,0,0,1-.452-.622l.179-1.064a.537.537,0,0,1,.622-.452.546.546,0,0,1,.443.631l-.17,1.055a.546.546,0,0,1-.622.414Zm1.7-8.421h-.132a.546.546,0,0,1-.4-.659c.085-.358.179-.706.264-1.046a.565.565,0,0,1,.669-.4.546.546,0,0,1,.386.669c-.085.339-.179.688-.264,1.036a.537.537,0,0,1-.527.358Zm2.487-8.2a.424.424,0,0,1-.188,0,.546.546,0,0,1-.33-.7l.377-1.008a.546.546,0,0,1,.706-.32.537.537,0,0,1,.311.7l-.386.9a.556.556,0,0,1-.49.386Zm3.4-7.874a.509.509,0,0,1-.254-.066.527.527,0,0,1-.226-.725l.5-.942a.546.546,0,0,1,.942.509l-.5.942a.546.546,0,0,1-.462.245Zm4.427-7.347a.546.546,0,0,1-.311-.094.556.556,0,0,1-.132-.763l.64-.876a.546.546,0,0,1,.876.65l-.631.857a.537.537,0,0,1-.443.188Zm5.52-6.593a.546.546,0,0,1-.386-.942c.254-.264.518-.509.772-.763a.556.556,0,0,1,.772,0,.546.546,0,0,1,0,.772l-.763.744a.509.509,0,0,1-.4.179Zm6.593-5.529a.575.575,0,0,1-.452-.235.546.546,0,0,1,.141-.754l.885-.612a.556.556,0,0,1,.763.141.565.565,0,0,1-.151.763l-.876.593a.556.556,0,0,1-.348.094Zm7.413-4.314a.546.546,0,0,1-.226-1.036l.989-.452a.546.546,0,1,1,.433,1l-.942.443a.659.659,0,0,1-.292.038Zm8.044-3a.527.527,0,0,1-.518-.4.537.537,0,0,1,.377-.669q.528-.16,1.046-.283a.528.528,0,0,1,.659.386.546.546,0,0,1-.386.669l-1.027.273a.386.386,0,0,1-.207.009Zm8.477-1.677a.546.546,0,0,1-.066-1.083l1.083-.113a.539.539,0,1,1,.1,1.074l-1.055.122Z" transform="translate(-172.23 -94.61)" fill="#ff5a1a"/>
  <path id="Path_1002" data-name="Path 1002" d="M268.436,247.819a.546.546,0,0,1-.546-.527v-.556a.546.546,0,0,1,.537-.546h0a.546.546,0,0,1,.546.527v.546a.537.537,0,0,1-.527.556Z" transform="translate(-172.23 -99.408)" fill="#ff5a1a"/>
  <path id="Path_1003" data-name="Path 1003" d="M331.8,170.442h-.537a.565.565,0,0,1-.546-.556.622.622,0,0,1,.556-.546h.565a.537.537,0,0,1,.509.575.546.546,0,0,1-.546.527Z" transform="translate(-175.88 -94.943)" fill="#ff5a1a"/>
  <path id="Path_1004" data-name="Path 1004" d="M281.518,233.818h0a.537.537,0,0,1-.518-.575v-1.064a.518.518,0,0,1,.584-.509.556.556,0,0,1,.518.584l-.075,1.083a.537.537,0,0,1-.509.48Zm.782-8.666h-.066a.546.546,0,0,1-.48-.612l.141-1.093a.556.556,0,0,1,1.093.151l-.1,1.046a.546.546,0,0,1-.584.509Zm1.385-8.6h-.1a.546.546,0,0,1-.433-.65l.226-1.064a.527.527,0,0,1,.65-.424.556.556,0,0,1,.424.65l-.217,1.055a.556.556,0,0,1-.546.433Zm2.11-8.477a.424.424,0,0,1-.151,0,.556.556,0,0,1-.377-.678l.33-1.055a.548.548,0,1,1,1.046.33l-.32,1.036a.556.556,0,0,1-.527.4Zm2.976-8.185a.433.433,0,0,1-.217,0,.537.537,0,0,1-.292-.716l.452-1.008a.537.537,0,0,1,.725-.273.556.556,0,0,1,.273.725l-.443.942a.537.537,0,0,1-.5.367Zm3.994-7.733a.556.556,0,0,1-.292-.085.546.546,0,0,1-.179-.754c.188-.311.386-.622.584-.942a.537.537,0,0,1,.754-.17.546.546,0,0,1,.17.754c-.188.3-.386.6-.575.942a.546.546,0,0,1-.462.292Zm5.133-7.017a.556.556,0,0,1-.358-.132.546.546,0,0,1-.057-.772l.735-.829a.546.546,0,0,1,.772,0,.537.537,0,0,1,0,.772c-.235.264-.48.527-.716.8a.565.565,0,0,1-.377.2Zm6.32-5.981a.518.518,0,0,1-.433-.207.546.546,0,0,1,.094-.772l.876-.669a.565.565,0,0,1,.772.122.546.546,0,0,1-.122.763l-.857.65a.537.537,0,0,1-.33.151Zm7.375-4.6a.546.546,0,0,1-.235-1.046l1-.471a.548.548,0,1,1,.452,1l-.942.462a.547.547,0,0,1-.273.094Zm8.176-2.986a.546.546,0,0,1-.132-1.083l1.083-.254a.537.537,0,0,1,.65.424.546.546,0,0,1-.424.65l-1.046.245Z" transform="translate(-172.992 -94.995)" fill="#ff5a1a"/>
  <path id="Path_1005" data-name="Path 1005" d="M281.227,246.448h0a.537.537,0,0,1-.537-.556v-.556a.556.556,0,0,1,.556-.537h0a.546.546,0,0,1,.537.556v.575a.546.546,0,0,1-.556.518Z" transform="translate(-172.974 -99.327)" fill="#ff5a1a"/>
  <path id="Path_1006" data-name="Path 1006" d="M331.813,179.112h-.462a.471.471,0,0,1,0-.942h.49a.471.471,0,1,1,0,.942Z" transform="translate(-175.89 -95.456)" fill="#ff5a1a"/>
  <path id="Path_1007" data-name="Path 1007" d="M294.972,243.88h0a.49.49,0,0,1-.452-.49v-.942a.424.424,0,0,1,.49-.443.471.471,0,0,1,.452.49v.942A.471.471,0,0,1,294.972,243.88Zm.4-7.243h0a.471.471,0,0,1-.433-.509l.075-.942a.443.443,0,0,1,.5-.433.471.471,0,0,1,.433.509l-.066.942a.471.471,0,0,1-.5.433Zm.688-7.215H296a.461.461,0,0,1-.4-.518l.1-.942a.474.474,0,0,1,.942.113l-.1.942a.48.48,0,0,1-.471.405Zm1.036-7.177h-.085a.462.462,0,0,1-.377-.546l.16-.942a.462.462,0,0,1,.537-.377.48.48,0,0,1,.386.546l-.16.895a.461.461,0,0,1-.452.424Zm1.441-7.1h-.1a.461.461,0,0,1-.349-.565l.207-.885a.48.48,0,0,1,.574-.339.461.461,0,0,1,.339.565l-.207.885a.48.48,0,0,1-.452.339Zm1.94-6.989a.367.367,0,0,1-.141,0,.462.462,0,0,1-.3-.593l.283-.867a.462.462,0,0,1,.593-.292.48.48,0,0,1,.3.593c-.1.283-.188.565-.283.857a.471.471,0,0,1-.443.3Zm2.562-6.772a.434.434,0,0,1-.188-.047.461.461,0,0,1-.245-.612l.367-.838a.471.471,0,0,1,.857.386l-.367.819a.471.471,0,0,1-.414.292Zm3.306-6.452a.452.452,0,0,1-.245-.066.471.471,0,0,1-.16-.641l.48-.782a.472.472,0,1,1,.8.5c-.16.254-.32.509-.471.763a.471.471,0,0,1-.4.226Zm4.229-5.868a.433.433,0,0,1-.311-.122.462.462,0,0,1-.047-.659l.612-.688a.471.471,0,1,1,.688.631q-.292.32-.593.678a.471.471,0,0,1-.339.16Zm5.275-4.954a.48.48,0,0,1-.377-.188.471.471,0,0,1,.1-.659l.744-.537a.471.471,0,0,1,.537.772l-.725.518a.443.443,0,0,1-.273.094Zm6.32-3.5a.478.478,0,0,1-.16-.942l.867-.311a.471.471,0,0,1,.3.885l-.838.311Z" transform="translate(-173.777 -95.524)" fill="#ff5a1a"/>
  <path id="Path_1008" data-name="Path 1008" d="M294.832,255.123h0a.471.471,0,0,1-.462-.48v-.471a.471.471,0,0,1,.471-.462h0a.471.471,0,0,1,.471.471v.471a.462.462,0,0,1-.48.471Z" transform="translate(-173.768 -99.844)" fill="#ff5a1a"/>
  <ellipse id="Ellipse_230" data-name="Ellipse 230" cx="106.115" cy="14.176" rx="106.115" ry="14.176" transform="translate(0 268.618)" fill="url(#linear-gradient-12)"/>
  <path id="Path_1009" data-name="Path 1009" d="M261.339,254.444c3.768-4.578,8.571-8.477,14.251-10.107,6.593-1.884,13.573-.641,20.383-1.177a44.768,44.768,0,0,1-7.074,15.862,23.765,23.765,0,0,1-6.377,6.49c-6.64,4.276-15.231,3.174-23.124,2.76-2.072-.113-4.4-.066-5.849,1.413-.64.659-3.25,2.637-2.9.443.113-.7,2.666-3.033,3.127-3.89a75.353,75.353,0,0,1,7.564-11.793Z" transform="translate(-171.227 -99.232)" fill="#ff5a1a"/>
  <path id="Path_1010" data-name="Path 1010" d="M242.7,251.3a22.483,22.483,0,0,0-15.249-11.444c-4.766-.942-9.72-.33-14.534-1.055,3.965,7.036,6.038,15.749,12.735,20.251,5.83,3.918,13.639,3.513,19.2,7.893,1.554,1.225,2.722,3.25,3.494.33.424-1.582-.292-2.741-.942-4.088C245.5,259.362,244.69,255.095,242.7,251.3Z" transform="translate(-169.037 -98.978)" fill="#ff5a1a"/>
  <path id="Path_1011" data-name="Path 1011" d="M261.339,254.444c3.768-4.578,8.571-8.477,14.251-10.107,6.593-1.884,13.573-.641,20.383-1.177a44.768,44.768,0,0,1-7.074,15.862,23.765,23.765,0,0,1-6.377,6.49c-6.64,4.276-15.231,3.174-23.124,2.76-2.072-.113-4.4-.066-5.849,1.413-.64.659-3.25,2.637-2.9.443.113-.7,2.666-3.033,3.127-3.89a75.353,75.353,0,0,1,7.564-11.793Z" transform="translate(-171.227 -99.232)" opacity="0.37" fill="url(#linear-gradient-13)"/>
  <path id="Path_1012" data-name="Path 1012" d="M242.7,251.3a22.483,22.483,0,0,0-15.249-11.444c-4.766-.942-9.72-.33-14.534-1.055,3.965,7.036,6.038,15.749,12.735,20.251,5.83,3.918,13.639,3.513,19.2,7.893,1.554,1.225,2.722,3.25,3.494.33.424-1.582-.292-2.741-.942-4.088C245.5,259.362,244.69,255.095,242.7,251.3Z" transform="translate(-169.037 -98.978)" opacity="0.37" fill="url(#linear-gradient-14)"/>
  <path id="Path_1013" data-name="Path 1013" d="M258.175,324.673c3.137-5.162,7.46-9.777,12.97-12.245,6.367-2.826,13.639-2.571,20.439-4.088a45.523,45.523,0,0,1-4.87,17.086,24.415,24.415,0,0,1-5.52,7.46c-6.113,5.275-14.948,5.369-22.992,6.066-2.11.188-4.455.565-5.717,2.261-.556.754-2.9,3.118-2.826.857,0-.725,2.261-3.447,2.609-4.37A76.3,76.3,0,0,1,258.175,324.673Z" transform="translate(-171.171 -103.018)" fill="#ff5a1a"/>
  <path id="Path_1014" data-name="Path 1014" d="M241.39,328.875a22.963,22.963,0,0,0-17.3-8.986c-4.954-.17-9.843,1.29-14.807,1.356,5.162,6.424,8.694,14.854,16.191,18.273,6.518,2.976,14.317,1.272,20.647,4.71,1.761.942,3.278,2.826,3.57-.245.16-1.667-.754-2.713-1.639-3.956C245.543,336.523,244.017,332.369,241.39,328.875Z" transform="translate(-168.825 -103.688)" fill="#ff5a1a"/>
  <path id="Path_1015" data-name="Path 1015" d="M258.175,324.673c3.137-5.162,7.46-9.777,12.97-12.245,6.367-2.826,13.639-2.571,20.439-4.088a45.523,45.523,0,0,1-4.87,17.086,24.415,24.415,0,0,1-5.52,7.46c-6.113,5.275-14.948,5.369-22.992,6.066-2.11.188-4.455.565-5.717,2.261-.556.754-2.9,3.118-2.826.857,0-.725,2.261-3.447,2.609-4.37A76.3,76.3,0,0,1,258.175,324.673Z" transform="translate(-171.171 -103.018)" opacity="0.37" fill="url(#linear-gradient-15)"/>
  <path id="Path_1016" data-name="Path 1016" d="M241.39,328.875a22.963,22.963,0,0,0-17.3-8.986c-4.954-.17-9.843,1.29-14.807,1.356,5.162,6.424,8.694,14.854,16.191,18.273,6.518,2.976,14.317,1.272,20.647,4.71,1.761.942,3.278,2.826,3.57-.245.16-1.667-.754-2.713-1.639-3.956C245.543,336.523,244.017,332.369,241.39,328.875Z" transform="translate(-168.825 -103.688)" opacity="0.37" fill="url(#linear-gradient-16)"/>
  <rect id="Rectangle_377" data-name="Rectangle 377" width="4.578" height="144.837" transform="translate(77.613 129.574)" fill="#ff5a1a"/>
  <rect id="Rectangle_378" data-name="Rectangle 378" width="4.578" height="144.837" transform="translate(77.613 129.574)" opacity="0.37" fill="url(#linear-gradient-17)"/>
  <ellipse id="Ellipse_231" data-name="Ellipse 231" cx="29.19" cy="29.19" rx="29.19" ry="29.19" transform="translate(49.563 77.326)" fill="#f8c244"/>
  <ellipse id="Ellipse_232" data-name="Ellipse 232" cx="24.876" cy="24.876" rx="24.876" ry="24.876" transform="translate(53.877 81.64)" fill="#e8a825"/>
  <path id="Path_1018" data-name="Path 1018" d="M285.454,382.067c-7.667,4.22-21.212,7.017-36.678,7.017-14.844,0-27.937-2.6-35.736-6.537a43.271,43.271,0,0,1,72.414-.48Z" transform="translate(-169.044 -106.178)" fill="#ff5a1a"/>
  <path id="Path_1019" data-name="Path 1019" d="M285.454,382.067c-7.667,4.22-21.212,7.017-36.678,7.017-14.844,0-27.937-2.6-35.736-6.537a43.271,43.271,0,0,1,72.414-.48Z" transform="translate(-169.044 -106.178)" opacity="0.37" fill="url(#linear-gradient-18)"/>
  <path id="Path_1020" data-name="Path 1020" d="M341.635,298.994a18.922,18.922,0,0,1,9.118-6.461c4.2-1.215,8.694-.414,13.045-.763a28.767,28.767,0,0,1-4.512,10.182,15.069,15.069,0,0,1-4.078,4.144c-4.248,2.741-9.739,2.035-14.8,1.771-1.319-.075-2.826,0-3.768.942-.4.414-2.072,1.686-1.884.283.075-.443,1.7-1.94,2.006-2.487A48.105,48.105,0,0,1,341.635,298.994Z" transform="translate(-176.114 -102.055)" fill="#ff5a1a"/>
  <path id="Path_1021" data-name="Path 1021" d="M329.735,296.977a14.345,14.345,0,0,0-9.758-7.309c-3.042-.622-6.217-.217-9.287-.678,2.534,4.5,3.852,10.069,8.138,12.951,3.768,2.505,8.731,2.251,12.245,5.049.989.782,1.743,2.082,2.232.217a3.513,3.513,0,0,0-.612-2.618C331.525,302.186,331.007,299.407,329.735,296.977Z" transform="translate(-174.717 -101.894)" fill="#ff5a1a"/>
  <path id="Path_1022" data-name="Path 1022" d="M341.635,298.994a18.922,18.922,0,0,1,9.118-6.461c4.2-1.215,8.694-.414,13.045-.763a28.767,28.767,0,0,1-4.512,10.182,15.069,15.069,0,0,1-4.078,4.144c-4.248,2.741-9.739,2.035-14.8,1.771-1.319-.075-2.826,0-3.768.942-.4.414-2.072,1.686-1.884.283.075-.443,1.7-1.94,2.006-2.487A48.105,48.105,0,0,1,341.635,298.994Z" transform="translate(-176.114 -102.055)" opacity="0.37" fill="url(#linear-gradient-19)"/>
  <path id="Path_1023" data-name="Path 1023" d="M329.735,296.977a14.345,14.345,0,0,0-9.758-7.309c-3.042-.622-6.217-.217-9.287-.678,2.534,4.5,3.852,10.069,8.138,12.951,3.768,2.505,8.731,2.251,12.245,5.049.989.782,1.743,2.082,2.232.217a3.513,3.513,0,0,0-.612-2.618C331.525,302.186,331.007,299.407,329.735,296.977Z" transform="translate(-174.717 -101.894)" opacity="0.37" fill="url(#linear-gradient-20)"/>
  <path id="Path_1024" data-name="Path 1024" d="M339.662,343.926a19.338,19.338,0,0,1,8.3-7.827c4.078-1.818,8.722-1.648,13.083-2.609a29.332,29.332,0,0,1-3.118,10.917,15.674,15.674,0,0,1-3.532,4.776c-3.918,3.372-9.57,3.438-14.713,3.881-1.347.122-2.826.358-3.655,1.451-.358.48-1.884,2-1.837.546,0-.462,1.451-2.2,1.667-2.826A48.979,48.979,0,0,1,339.662,343.926Z" transform="translate(-176.082 -104.479)" fill="#ff5a1a"/>
  <path id="Path_1025" data-name="Path 1025" d="M328.895,346.645a14.665,14.665,0,0,0-11.039-5.746c-3.174-.113-6.3.82-9.476.867,3.306,4.107,5.567,9.5,10.361,11.689,4.173,1.884,9.155.81,13.187,3.042,1.13.622,2.1,1.808,2.289-.16a3.551,3.551,0,0,0-1.055-2.524C331.57,351.515,330.628,348.849,328.895,346.645Z" transform="translate(-174.582 -104.909)" fill="#ff5a1a"/>
  <path id="Path_1026" data-name="Path 1026" d="M339.662,343.926a19.338,19.338,0,0,1,8.3-7.827c4.078-1.818,8.722-1.648,13.083-2.609a29.332,29.332,0,0,1-3.118,10.917,15.674,15.674,0,0,1-3.532,4.776c-3.918,3.372-9.57,3.438-14.713,3.881-1.347.122-2.826.358-3.655,1.451-.358.48-1.884,2-1.837.546,0-.462,1.451-2.2,1.667-2.826A48.979,48.979,0,0,1,339.662,343.926Z" transform="translate(-176.082 -104.479)" opacity="0.37" fill="url(#linear-gradient-21)"/>
  <path id="Path_1027" data-name="Path 1027" d="M328.895,346.645a14.665,14.665,0,0,0-11.039-5.746c-3.174-.113-6.3.82-9.476.867,3.306,4.107,5.567,9.5,10.361,11.689,4.173,1.884,9.155.81,13.187,3.042,1.13.622,2.1,1.808,2.289-.16a3.551,3.551,0,0,0-1.055-2.524C331.57,351.515,330.628,348.849,328.895,346.645Z" transform="translate(-174.582 -104.909)" opacity="0.37" fill="url(#linear-gradient-22)"/>
  <rect id="Rectangle_379" data-name="Rectangle 379" width="2.929" height="92.665" transform="translate(157.543 180.531)" fill="#ff5a1a"/>
  <rect id="Rectangle_380" data-name="Rectangle 380" width="2.929" height="92.665" transform="translate(157.543 180.531)" opacity="0.37" fill="url(#linear-gradient-23)"/>
  <ellipse id="Ellipse_233" data-name="Ellipse 233" cx="18.678" cy="18.678" rx="18.678" ry="18.678" transform="translate(139.6 147.103)" fill="#f8c244"/>
  <ellipse id="Ellipse_234" data-name="Ellipse 234" cx="15.918" cy="15.918" rx="15.918" ry="15.918" transform="translate(142.359 149.862)" fill="#e8a825"/>
  <path id="Path_1029" data-name="Path 1029" d="M357.142,380.647c-4.907,2.7-13.573,4.493-23.472,4.493-9.494,0-17.9-1.667-22.86-4.182a27.692,27.692,0,0,1,46.332-.311Z" transform="translate(-174.724 -106.5)" fill="#ff5a1a"/>
  <path id="Path_1030" data-name="Path 1030" d="M357.142,380.647c-4.907,2.7-13.573,4.493-23.472,4.493-9.494,0-17.9-1.667-22.86-4.182a27.692,27.692,0,0,1,46.332-.311Z" transform="translate(-174.724 -106.5)" opacity="0.37" fill="url(#linear-gradient-24)"/>
</svg>
